<?xml version="1.0" standalone="no"?>
		<!DOCTYPE svg PUBLIC "-//W3C//DTD SVG 1.1//EN" "http://www.w3.org/Graphics/SVG/1.1/DTD/svg11.dtd">
		<svg xmlns="http://www.w3.org/2000/svg" version="1.1" xmlns:xlink="http://www.w3.org/1999/xlink" height="496" width="2507">
		<script type="text/ecmascript" xlink:href="http://code.jquery.com/jquery-2.1.1.min.js" />
		<text x="1025" y="32" style="font-size: 32px; text-anchor: middle" transform="">appattempt_1415093602516_0002_000001</text><text x="84" y="96" style="text-anchor:end; font-size: 16px;" transform="">Container ID</text><text x="96" y="152" style="text-anchor:end; font-size: 16px;" transform="">container_1415093602516_0002_01_000002</text><line x1="100" y1="152" x2="2151" y2="152"  style="stroke: #ccc"  /><text x="96" y="176" style="text-anchor:end; font-size: 16px;" transform="">container_1415093602516_0002_01_000009</text><line x1="100" y1="176" x2="2151" y2="176"  style="stroke: #ccc"  /><text x="96" y="200" style="text-anchor:end; font-size: 16px;" transform="">container_1415093602516_0002_01_000003</text><line x1="100" y1="200" x2="2151" y2="200"  style="stroke: #ccc"  /><text x="96" y="224" style="text-anchor:end; font-size: 16px;" transform="">container_1415093602516_0002_01_000005</text><line x1="100" y1="224" x2="2151" y2="224"  style="stroke: #ccc"  /><text x="96" y="248" style="text-anchor:end; font-size: 16px;" transform="">container_1415093602516_0002_01_000008</text><line x1="100" y1="248" x2="2151" y2="248"  style="stroke: #ccc"  /><text x="96" y="272" style="text-anchor:end; font-size: 16px;" transform="">container_1415093602516_0002_01_000007</text><line x1="100" y1="272" x2="2151" y2="272"  style="stroke: #ccc"  /><text x="96" y="296" style="text-anchor:end; font-size: 16px;" transform="">container_1415093602516_0002_01_000006</text><line x1="100" y1="296" x2="2151" y2="296"  style="stroke: #ccc"  /><text x="96" y="320" style="text-anchor:end; font-size: 16px;" transform="">container_1415093602516_0002_01_000004</text><line x1="100" y1="320" x2="2151" y2="320"  style="stroke: #ccc"  /><text x="96" y="344" style="text-anchor:end; font-size: 16px;" transform="">container_1415093602516_0002_01_000011</text><line x1="100" y1="344" x2="2151" y2="344"  style="stroke: #ccc"  /><text x="96" y="368" style="text-anchor:end; font-size: 16px;" transform="">container_1415093602516_0002_01_000010</text><line x1="100" y1="368" x2="2151" y2="368"  style="stroke: #ccc"  /><text x="100" y="116" style="text-anchor: middle; font-size: 12px" transform="">0.00 s</text><line x1="100" y1="116" x2="100" y2="368"  style="stroke: #ddd"  /><text x="2151" y="116" style="text-anchor: middle; font-size: 12px" transform="">980.00 s</text><line x1="2151" y1="116" x2="2151" y2="368"  style="stroke: #ddd"  /><line x1="100" y1="128" x2="2151" y2="128"  style="stroke: #000"  /><line x1="100" y1="368" x2="2151" y2="368"  style="stroke: #000"  /><line x1="100" y1="128" x2="100" y2="368"  style="stroke: #000"  /><line x1="2151" y1="128" x2="2151" y2="368"  style="stroke: #000"  /><line x1="103" y1="248" x2="103" y2="272"  style="stroke: green"  /><line x1="2148" y1="248" x2="2148" y2="272"  style="stroke: green"  /><rect x="103" y="248" width="2045" height="24" style="fill: #ccc; opacity: 0.3"><title></title></rect><line x1="103" y1="272" x2="103" y2="296"  style="stroke: green"  /><line x1="2025" y1="272" x2="2025" y2="296"  style="stroke: green"  /><rect x="103" y="272" width="1922" height="24" style="fill: #ccc; opacity: 0.3"><title></title></rect><line x1="103" y1="200" x2="103" y2="224"  style="stroke: green"  /><line x1="2105" y1="200" x2="2105" y2="224"  style="stroke: green"  /><rect x="103" y="200" width="2002" height="24" style="fill: #ccc; opacity: 0.3"><title></title></rect><line x1="103" y1="296" x2="103" y2="320"  style="stroke: green"  /><line x1="2151" y1="296" x2="2151" y2="320"  style="stroke: green"  /><rect x="103" y="296" width="2048" height="24" style="fill: #ccc; opacity: 0.3"><title></title></rect><line x1="103" y1="176" x2="103" y2="200"  style="stroke: green"  /><line x1="2123" y1="176" x2="2123" y2="200"  style="stroke: green"  /><rect x="103" y="176" width="2020" height="24" style="fill: #ccc; opacity: 0.3"><title></title></rect><line x1="102" y1="128" x2="102" y2="152"  style="stroke: green"  /><line x1="2109" y1="128" x2="2109" y2="152"  style="stroke: green"  /><rect x="102" y="128" width="2007" height="24" style="fill: #ccc; opacity: 0.3"><title></title></rect><line x1="103" y1="152" x2="103" y2="176"  style="stroke: green"  /><line x1="2046" y1="152" x2="2046" y2="176"  style="stroke: green"  /><rect x="103" y="152" width="1943" height="24" style="fill: #ccc; opacity: 0.3"><title></title></rect><line x1="103" y1="224" x2="103" y2="248"  style="stroke: green"  /><line x1="2149" y1="224" x2="2149" y2="248"  style="stroke: green"  /><rect x="103" y="224" width="2046" height="24" style="fill: #ccc; opacity: 0.3"><title></title></rect><line x1="104" y1="344" x2="104" y2="368"  style="stroke: green"  /><line x1="2163" y1="344" x2="2163" y2="368"  style="stroke: red"  /><text x="2163" y="344" style="text-anchor: right; font-size: 12px; stroke: red" transform="rotate(90, 2163, 344)">-100</text><rect x="104" y="344" width="2059" height="24" style="fill: #ccc; opacity: 0.3"><title></title></rect><line x1="104" y1="320" x2="104" y2="344"  style="stroke: green"  /><line x1="2140" y1="320" x2="2140" y2="344"  style="stroke: green"  /><rect x="104" y="320" width="2036" height="24" style="fill: #ccc; opacity: 0.3"><title></title></rect><line x1="101" y1="104" x2="101" y2="368"  style="stroke: black;" stroke-dasharray='8,4'  /><line x1="2152" y1="104" x2="2152" y2="368"  style="stroke: black;" stroke-dasharray='8,4'  /><line x1="101" y1="104" x2="2152" y2="104"  style="stroke: black"  /><text x="1126" y="96" style="text-anchor: middle; font-size: 12px;" transform="">dag_1415093602516_0002_1 (980.4 s)</text><a xlink:href='http://marvel-0.c.siq-haas.internal:19888/jobhistory/logs/marvel-8.c.siq-haas.internal:45454/container_1415093602516_0002_01_000006/v_topkdatagen_attempt_1415093602516_0002_1_00_000004_0/hdfs'><rect x="114" y="273" width="1893" height="22" style="fill: #62C2A2; stroke: #ccc;"><title>attempt_1415093602516_0002_1_00_000004_0</title></rect></a><text x="1060" y="283" style="text-anchor: middle; font-size: 9px;" transform="">topkdatagen (00004_0)</text><a xlink:href='http://marvel-0.c.siq-haas.internal:19888/jobhistory/logs/marvel-9.c.siq-haas.internal:45454/container_1415093602516_0002_01_000009/v_topkdatagen_attempt_1415093602516_0002_1_00_000007_0/hdfs'><rect x="107" y="153" width="1924" height="22" style="fill: #62C2A2; stroke: #ccc;"><title>attempt_1415093602516_0002_1_00_000007_0</title></rect></a><text x="1069" y="163" style="text-anchor: middle; font-size: 9px;" transform="">topkdatagen (00007_0)</text><a xlink:href='http://marvel-0.c.siq-haas.internal:19888/jobhistory/logs/marvel-2.c.siq-haas.internal:45454/container_1415093602516_0002_01_000005/v_topkdatagen_attempt_1415093602516_0002_1_00_000003_0/hdfs'><rect x="113" y="201" width="1979" height="22" style="fill: #62C2A2; stroke: #ccc;"><title>attempt_1415093602516_0002_1_00_000003_0</title></rect></a><text x="1102" y="211" style="text-anchor: middle; font-size: 9px;" transform="">topkdatagen (00003_0)</text><a xlink:href='http://marvel-0.c.siq-haas.internal:19888/jobhistory/logs/marvel-6.c.siq-haas.internal:45454/container_1415093602516_0002_01_000002/v_topkdatagen_attempt_1415093602516_0002_1_00_000000_0/hdfs'><rect x="107" y="129" width="1988" height="22" style="fill: #62C2A2; stroke: #ccc;"><title>attempt_1415093602516_0002_1_00_000000_0</title></rect></a><text x="1101" y="139" style="text-anchor: middle; font-size: 9px;" transform="">topkdatagen (00000_0)</text><a xlink:href='http://marvel-0.c.siq-haas.internal:19888/jobhistory/logs/marvel-3.c.siq-haas.internal:45454/container_1415093602516_0002_01_000003/v_topkdatagen_attempt_1415093602516_0002_1_00_000001_0/hdfs'><rect x="115" y="177" width="1996" height="22" style="fill: #62C2A2; stroke: #ccc;"><title>attempt_1415093602516_0002_1_00_000001_0</title></rect></a><text x="1113" y="187" style="text-anchor: middle; font-size: 9px;" transform="">topkdatagen (00001_0)</text><a xlink:href='http://marvel-0.c.siq-haas.internal:19888/jobhistory/logs/marvel-10.c.siq-haas.internal:45454/container_1415093602516_0002_01_000011/v_topkdatagen_attempt_1415093602516_0002_1_00_000009_0/hdfs'><rect x="116" y="321" width="2008" height="22" style="fill: #62C2A2; stroke: #ccc;"><title>attempt_1415093602516_0002_1_00_000009_0</title></rect></a><text x="1120" y="331" style="text-anchor: middle; font-size: 9px;" transform="">topkdatagen (00009_0)</text><a xlink:href='http://marvel-0.c.siq-haas.internal:19888/jobhistory/logs/marvel-5.c.siq-haas.internal:45454/container_1415093602516_0002_01_000008/v_topkdatagen_attempt_1415093602516_0002_1_00_000006_0/hdfs'><rect x="114" y="225" width="2015" height="22" style="fill: #62C2A2; stroke: #ccc;"><title>attempt_1415093602516_0002_1_00_000006_0</title></rect></a><text x="1121" y="235" style="text-anchor: middle; font-size: 9px;" transform="">topkdatagen (00006_0)</text><a xlink:href='http://marvel-0.c.siq-haas.internal:19888/jobhistory/logs/marvel-7.c.siq-haas.internal:45454/container_1415093602516_0002_01_000007/v_topkdatagen_attempt_1415093602516_0002_1_00_000005_0/hdfs'><rect x="113" y="249" width="2023" height="22" style="fill: #62C2A2; stroke: #ccc;"><title>attempt_1415093602516_0002_1_00_000005_0</title></rect></a><text x="1124" y="259" style="text-anchor: middle; font-size: 9px;" transform="">topkdatagen (00005_0)</text><a xlink:href='http://marvel-0.c.siq-haas.internal:19888/jobhistory/logs/marvel-1.c.siq-haas.internal:45454/container_1415093602516_0002_01_000004/v_topkdatagen_attempt_1415093602516_0002_1_00_000002_0/hdfs'><rect x="114" y="297" width="2025" height="22" style="fill: #62C2A2; stroke: #ccc;"><title>attempt_1415093602516_0002_1_00_000002_0</title></rect></a><text x="1126" y="307" style="text-anchor: middle; font-size: 9px;" transform="">topkdatagen (00002_0)</text><a xlink:href='http://marvel-0.c.siq-haas.internal:19888/jobhistory/logs/marvel-4.c.siq-haas.internal:45454/container_1415093602516_0002_01_000010/v_topkdatagen_attempt_1415093602516_0002_1_00_000008_0/hdfs'><rect x="115" y="345" width="2036" height="22" style="fill: #62C2A2; stroke: #ccc;"><title>attempt_1415093602516_0002_1_00_000008_0</title></rect></a><text x="1133" y="355" style="text-anchor: middle; font-size: 9px;" transform="">topkdatagen (00008_0)</text></svg>