<?xml version="1.0" encoding="UTF-8" standalone="no"?>
<!-- Created with Inkscape (http://www.inkscape.org/) -->

<svg
   xmlns:dc="http://purl.org/dc/elements/1.1/"
   xmlns:cc="http://creativecommons.org/ns#"
   xmlns:rdf="http://www.w3.org/1999/02/22-rdf-syntax-ns#"
   xmlns:svg="http://www.w3.org/2000/svg"
   xmlns="http://www.w3.org/2000/svg"
   version="1.2"
   width="600"
   height="80"
   id="svg2">
  <defs
     id="defs4">
    <marker
       refX="0"
       refY="0"
       orient="auto"
       id="Arrow2Lend"
       style="overflow:visible">
      <path
         d="M 8.7185878,4.0337352 -2.2072895,0.01601326 8.7185884,-4.0017078 c -1.7454984,2.3720609 -1.7354408,5.6174519 -6e-7,8.035443 z"
         transform="matrix(-1.1,0,0,-1.1,-1.1,0)"
         id="path3942"
         style="font-size:12px;fill-rule:evenodd;stroke-width:0.625;stroke-linejoin:round" />
    </marker>
  </defs>
  <metadata
     id="metadata7">
    <rdf:RDF>
      <cc:Work
         rdf:about="">
        <dc:format>image/svg+xml</dc:format>
        <dc:type
           rdf:resource="http://purl.org/dc/dcmitype/StillImage" />
        <dc:title></dc:title>
      </cc:Work>
    </rdf:RDF>
  </metadata>
  <g
     transform="translate(0,-972.36218)"
     id="layer1">
    <path
       d="m 91.923882,49.219429 a 32.526913,18.031223 0 1 1 -65.053826,0 32.526913,18.031223 0 1 1 65.053826,0 z"
       transform="matrix(0.88,0,0,0.88,-18.974176,968.46297)"
       id="path3888"
       style="fill:none;stroke:#000000;stroke-width:1.13636363;stroke-linecap:round;stroke-miterlimit:4;stroke-opacity:1;stroke-dasharray:none" />
    <path
       d="m 91.923882,49.219429 a 32.526913,18.031223 0 1 1 -65.053826,0 32.526913,18.031223 0 1 1 65.053826,0 z"
       transform="matrix(1.2492368,0,0,0.88,49.311557,968.46297)"
       id="path3890"
       style="fill:none;stroke:#000000;stroke-width:0.95375383;stroke-linecap:round;stroke-miterlimit:4;stroke-opacity:1;stroke-dasharray:none" />
    <path
       d="m 91.923882,49.219429 a 32.526913,18.031223 0 1 1 -65.053826,0 32.526913,18.031223 0 1 1 65.053826,0 z"
       transform="matrix(0.94157759,0,0,1.3812297,253.75695,943.79273)"
       id="path3892"
       style="fill:none;stroke:#000000;stroke-width:0.87687761;stroke-linecap:round;stroke-miterlimit:4;stroke-opacity:1;stroke-dasharray:none" />
    <path
       d="m 91.923882,49.219429 a 32.526913,18.031223 0 1 1 -65.053826,0 32.526913,18.031223 0 1 1 65.053826,0 z"
       transform="matrix(0.68912259,0,0,0.88,342.76286,968.46297)"
       id="path3894"
       style="fill:none;stroke:#000000;stroke-width:1.28413427;stroke-linecap:round;stroke-miterlimit:4;stroke-opacity:1;stroke-dasharray:none" />
    <path
       d="m 91.923882,49.219429 a 32.526913,18.031223 0 1 1 -65.053826,0 32.526913,18.031223 0 1 1 65.053826,0 z"
       transform="matrix(0.68912259,0,0,0.88,532.48133,968.46297)"
       id="path3896"
       style="fill:none;stroke:#000000;stroke-width:1.28413427;stroke-linecap:round;stroke-miterlimit:4;stroke-opacity:1;stroke-dasharray:none" />
    <path
       d="m 91.923882,49.219429 a 32.526913,18.031223 0 1 1 -65.053826,0 32.526913,18.031223 0 1 1 65.053826,0 z"
       transform="matrix(1.1226538,0,0,1.8428407,154.91478,921.0725)"
       id="path3898"
       style="fill:none;stroke:#000000;stroke-width:0.69523746;stroke-linecap:round;stroke-miterlimit:4;stroke-opacity:1;stroke-dasharray:none" />
    <path
       d="m 91.923882,49.219429 a 32.526913,18.031223 0 1 1 -65.053826,0 32.526913,18.031223 0 1 1 65.053826,0 z"
       transform="matrix(1.5828257,0,0,1.5176879,384.53883,937.07634)"
       id="path3900"
       style="fill:none;stroke:#000000;stroke-width:0.6451968;stroke-linecap:round;stroke-miterlimit:4;stroke-opacity:1;stroke-dasharray:none" />
    <g
       transform="matrix(0.88,0,0,0.88,349.28032,982.77168)"
       id="flowRoot3050"
       style="font-size:40px;font-style:normal;font-weight:normal;line-height:125%;letter-spacing:0px;word-spacing:0px;fill:#000000;fill-opacity:1;stroke:none;font-family:Sans">
      <path
         d="m 31.46875,37.072917 -1.374023,0 0,-4.388672 -3.53418,0 0,4.388672 -1.374024,0 0,-9.953125 1.374024,0 0,4.504882 3.53418,0 0,-4.504882 1.374023,0 0,9.953125"
         id="path4454"
         style="font-size:14px;font-variant:normal;font-stretch:normal;text-align:start;writing-mode:lr-tb;text-anchor:start;font-family:Roboto Condensed;-inkscape-font-specification:'Roboto Condensed,'" />
      <path
         d="m 33.362305,37.072917 0,-9.953125 2.37207,0 c 1.184891,10e-6 2.084956,0.337249 2.700195,1.011718 0.615228,0.674488 0.922845,1.702156 0.922852,3.083008 l 0,1.777344 c -7e-6,1.389977 -0.309903,2.417645 -0.929688,3.083008 -0.619797,0.665365 -1.53809,0.998047 -2.754882,0.998047 l -2.310547,0 m 1.374023,-8.886719 0,7.833984 0.888672,0 c 0.865881,1e-6 1.476558,-0.239256 1.832031,-0.717773 0.355464,-0.483071 0.533198,-1.253252 0.533203,-2.310547 l 0,-1.791016 c -5e-6,-1.061842 -0.175461,-1.829745 -0.526367,-2.303711 -0.350916,-0.473949 -0.941085,-0.710928 -1.770508,-0.710937 l -0.957031,0"
         id="path4456"
         style="font-size:14px;font-variant:normal;font-stretch:normal;text-align:start;writing-mode:lr-tb;text-anchor:start;font-family:Roboto Condensed;-inkscape-font-specification:'Roboto Condensed,'" />
      <path
         d="m 45.913086,32.650065 -3.46582,0 0,4.422852 -1.374024,0 0,-9.953125 5.393555,0 0,1.066406 -4.019531,0 0,3.404297 3.46582,0 0,1.05957"
         id="path4458"
         style="font-size:14px;font-variant:normal;font-stretch:normal;text-align:start;writing-mode:lr-tb;text-anchor:start;font-family:Roboto Condensed;-inkscape-font-specification:'Roboto Condensed,'" />
      <path
         d="m 52.044922,34.570964 c -5e-6,-0.478513 -0.120773,-0.863604 -0.362305,-1.155274 -0.236984,-0.29622 -0.667647,-0.560543 -1.291992,-0.792969 -0.920576,-0.291662 -1.617841,-0.66308 -2.091797,-1.114257 -0.473959,-0.455724 -0.710938,-1.070957 -0.710937,-1.845704 -10e-7,-0.802075 0.264321,-1.449209 0.792968,-1.941406 0.528644,-0.496735 1.225909,-0.745107 2.091797,-0.745117 0.893225,10e-6 1.60644,0.287119 2.139649,0.861328 0.533196,0.574228 0.799798,1.292 0.799804,2.15332 l -1.374023,0 c -5e-6,-0.59244 -0.134445,-1.066398 -0.40332,-1.421875 -0.268885,-0.355459 -0.660812,-0.533194 -1.175782,-0.533203 -0.487633,9e-6 -0.859052,0.1504 -1.114257,0.451172 -0.255211,0.296232 -0.382815,0.683602 -0.382813,1.16211 -2e-6,0.432949 0.136717,0.790696 0.410156,1.073242 0.277992,0.282558 0.745114,0.544602 1.401367,0.786133 0.88411,0.287114 1.544917,0.669926 1.982422,1.148437 0.437494,0.473962 0.656244,1.107425 0.65625,1.900391 -6e-6,0.833986 -0.26205,1.485678 -0.786132,1.955078 -0.524094,0.469401 -1.230474,0.704101 -2.119141,0.704101 -0.865888,0 -1.611005,-0.259765 -2.235352,-0.779297 -0.624349,-0.524087 -0.936524,-1.282875 -0.936523,-2.276367 l 1.374023,0 c -2e-6,0.701825 0.161782,1.212242 0.485352,1.53125 0.323565,0.319012 0.761064,0.478517 1.3125,0.478516 0.496741,1e-6 0.877274,-0.141275 1.141601,-0.423828 0.264318,-0.282551 0.39648,-0.674477 0.396485,-1.175781"
         id="path4460"
         style="font-size:14px;font-variant:normal;font-stretch:normal;text-align:start;writing-mode:lr-tb;text-anchor:start;font-family:Roboto Condensed;-inkscape-font-specification:'Roboto Condensed,'" />
    </g>
    <flowRoot
       transform="translate(0,552.36218)"
       id="flowRoot3060"
       xml:space="preserve"
       style="font-size:40px;font-style:normal;font-weight:normal;line-height:125%;letter-spacing:0px;word-spacing:0px;fill:#000000;fill-opacity:1;stroke:none;font-family:Sans"><flowRegion
         id="flowRegion3062"><rect
           width="132.93608"
           height="58.689861"
           x="310.41989"
           y="316.15225"
           id="rect3064" /></flowRegion><flowPara
         id="flowPara3066">MapReduce with Morphline Mapper MapReduce with Morphline Mapper MapReduce with Morphline Mapper MapReduce with Morphline Mapper MapReduce with Morphline Mapper </flowPara></flowRoot>    <g
       transform="matrix(0.88,0,0,0.88,256.71939,756.16825)"
       id="flowRoot3068"
       style="font-size:40px;font-style:normal;font-weight:normal;line-height:125%;letter-spacing:0px;word-spacing:0px;fill:#000000;fill-opacity:1;stroke:none;font-family:Sans">
      <path
         d="m 211.85937,274.80729 2.17383,8.14844 0.0205,0 2.17383,-8.14844 1.77051,0 0,9.95313 -1.36035,0 0,-3.82129 0.12988,-3.79395 -0.0205,-0.007 -2.24902,7.62207 -0.90918,0 -2.24219,-7.62207 -0.0205,0.007 0.12988,3.79395 0,3.82129 -1.36035,0 0,-9.95313 1.76367,0"
         id="path4397"
         style="font-size:14px;font-variant:normal;font-stretch:normal;text-align:center;writing-mode:lr-tb;text-anchor:middle;font-family:Roboto Condensed;-inkscape-font-specification:'Roboto Condensed,'" />
      <path
         d="m 223.24121,284.76042 c -0.0456,-0.16862 -0.0843,-0.32813 -0.11621,-0.47852 -0.0319,-0.15495 -0.0547,-0.30534 -0.0684,-0.45117 l -0.0137,-0.007 c -0.19141,0.31446 -0.42839,0.57194 -0.71094,0.77246 -0.28255,0.20052 -0.59929,0.30079 -0.95019,0.30079 -0.61068,0 -1.08236,-0.19141 -1.41504,-0.57422 -0.32813,-0.38737 -0.49219,-0.9183 -0.49219,-1.59278 0,-0.72005 0.22331,-1.27831 0.66992,-1.6748 0.45117,-0.39648 1.09831,-0.59472 1.94141,-0.59473 l 0.95019,0 0,-0.75879 c 0,-0.46028 -0.0912,-0.81347 -0.27343,-1.05957 -0.17774,-0.25064 -0.43751,-0.37597 -0.7793,-0.37597 -0.31446,0 -0.56055,0.11166 -0.73828,0.33496 -0.17774,0.21875 -0.26661,0.50586 -0.2666,0.86133 l -1.37403,-0.007 c 0,-0.60611 0.22559,-1.12792 0.67676,-1.56543 0.45117,-0.44205 1.04817,-0.66308 1.79102,-0.66309 0.70637,10e-6 1.27148,0.21192 1.69531,0.63575 0.42838,0.41927 0.64257,1.03679 0.64258,1.85253 l 0,3.43165 c -1e-5,0.28255 0.0159,0.55599 0.0479,0.82031 0.0365,0.25976 0.0911,0.52409 0.16406,0.79297 l -1.38086,0 m -1.54492,-0.92969 c 0.30078,0 0.56966,-0.0889 0.80664,-0.2666 0.23698,-0.18229 0.41471,-0.41471 0.5332,-0.69727 l 0,-1.54492 -0.9707,0 c -0.39649,0 -0.69955,0.13444 -0.90918,0.40332 -0.20964,0.26888 -0.31446,0.60157 -0.31445,0.99805 -1e-5,0.33724 0.0729,0.60612 0.21875,0.80664 0.14583,0.20052 0.35774,0.30078 0.63574,0.30078"
         id="path4399"
         style="font-size:14px;font-variant:normal;font-stretch:normal;text-align:center;writing-mode:lr-tb;text-anchor:middle;font-family:Roboto Condensed;-inkscape-font-specification:'Roboto Condensed,'" />
      <path
         d="m 231.16406,281.67741 c 0,0.99349 -0.20052,1.77962 -0.60156,2.3584 -0.39649,0.57422 -0.96615,0.86133 -1.70898,0.86133 -0.3418,0 -0.63803,-0.0661 -0.88868,-0.19825 -0.25065,-0.13672 -0.46484,-0.33496 -0.64257,-0.59472 l -0.0205,0.007 0,3.49317 -1.36719,0 0,-10.24024 1.23047,0 0.0752,0.78614 0.0137,0.007 c 0.18229,-0.30077 0.40331,-0.53092 0.66308,-0.69043 0.25976,-0.1595 0.56966,-0.23925 0.92969,-0.23926 0.74739,10e-6 1.31933,0.31902 1.71582,0.95703 0.40104,0.63347 0.60156,1.4948 0.60156,2.58399 l 0,0.90918 m -1.36719,-0.90918 c 0,-0.74283 -0.10937,-1.33756 -0.32812,-1.78418 -0.2142,-0.45117 -0.54916,-0.67675 -1.00488,-0.67676 -0.28256,10e-6 -0.51726,0.082 -0.7041,0.2461 -0.18686,0.16406 -0.33952,0.39421 -0.45801,0.69043 l 0,3.75292 c 0.11393,0.278 0.26432,0.48991 0.45117,0.63575 0.1914,0.14583 0.43294,0.21875 0.72461,0.21875 0.45572,0 0.78841,-0.19597 0.99805,-0.58789 0.21418,-0.39193 0.32128,-0.92057 0.32128,-1.58594 l 0,-0.90918"
         id="path4401"
         style="font-size:14px;font-variant:normal;font-stretch:normal;text-align:center;writing-mode:lr-tb;text-anchor:middle;font-family:Roboto Condensed;-inkscape-font-specification:'Roboto Condensed,'" />
      <path
         d="m 234.00781,280.47428 0,4.28614 -1.37402,0 0,-9.94629 3.02832,0 c 0.91145,1e-5 1.5996,0.23699 2.06445,0.71094 0.46484,0.47396 0.69726,1.17806 0.69727,2.1123 -1e-5,0.53777 -0.12078,0.99805 -0.36231,1.38086 -0.24154,0.37826 -0.59017,0.67676 -1.0459,0.89551 0.48307,0.17318 0.82487,0.45573 1.0254,0.84765 0.20507,0.39193 0.30761,0.89324 0.30761,1.50391 l 0,0.86816 c 0,0.3099 0.0273,0.59245 0.082,0.84766 0.0592,0.25065 0.1595,0.45345 0.30079,0.6084 l 0,0.1709 -1.40821,0 c -0.15039,-0.15495 -0.2461,-0.38054 -0.28711,-0.67676 -0.041,-0.30078 -0.0615,-0.62207 -0.0615,-0.96387 l 0,-0.84082 c -1e-5,-0.56966 -0.11166,-1.01171 -0.33496,-1.32617 -0.21876,-0.31901 -0.53549,-0.47851 -0.9502,-0.47852 l -1.68164,0 m 0,-1.05957 1.52442,0 c 0.52864,10e-6 0.91373,-0.1481 1.15527,-0.44433 0.24153,-0.30078 0.3623,-0.73372 0.3623,-1.29883 0,-0.58333 -0.11393,-1.02766 -0.34179,-1.33301 -0.22787,-0.30989 -0.59018,-0.46483 -1.08692,-0.46484 l -1.61328,0 0,3.54101"
         id="path4403"
         style="font-size:14px;font-variant:normal;font-stretch:normal;text-align:center;writing-mode:lr-tb;text-anchor:middle;font-family:Roboto Condensed;-inkscape-font-specification:'Roboto Condensed,'" />
      <path
         d="m 242.53223,284.89714 c -0.83399,0 -1.4948,-0.29851 -1.98243,-0.89551 -0.48763,-0.60156 -0.73144,-1.3877 -0.73144,-2.3584 l 0,-1.08008 c 0,-0.98437 0.24154,-1.78645 0.72461,-2.40625 0.48307,-0.61978 1.11198,-0.92968 1.88672,-0.92969 0.82031,10e-6 1.44238,0.28256 1.86621,0.84766 0.42382,0.56055 0.63573,1.33301 0.63574,2.31738 l 0,0.95703 -3.73926,0 0,0.29395 c 0,0.65625 0.11849,1.18945 0.35547,1.59961 0.23698,0.4056 0.59473,0.6084 1.07324,0.6084 0.4375,0 0.78613,-0.0615 1.0459,-0.18457 0.26432,-0.12305 0.49218,-0.2985 0.6836,-0.52637 l 0.38964,0.88867 c -0.22331,0.26888 -0.52181,0.4808 -0.8955,0.63574 -0.36915,0.15495 -0.80665,0.23243 -1.3125,0.23243 m -0.10254,-6.60352 c -0.3737,1e-5 -0.66765,0.19141 -0.88184,0.57422 -0.21419,0.38282 -0.33268,0.87956 -0.35547,1.49023 l 2.38574,0 0,-0.28027 c 0,-0.5332 -0.0957,-0.96386 -0.2871,-1.29199 -0.18686,-0.32812 -0.47397,-0.49218 -0.86133,-0.49219"
         id="path4405"
         style="font-size:14px;font-variant:normal;font-stretch:normal;text-align:center;writing-mode:lr-tb;text-anchor:middle;font-family:Roboto Condensed;-inkscape-font-specification:'Roboto Condensed,'" />
      <path
         d="m 245.92285,281.15104 c 0,-1.20768 0.20052,-2.16243 0.60156,-2.86426 0.40104,-0.70637 0.97754,-1.05956 1.7295,-1.05957 0.32356,10e-6 0.60611,0.0707 0.84765,0.21192 0.24609,0.14128 0.46028,0.34636 0.64258,0.61523 l 0.0205,-0.007 0,-3.95118 1.37402,0 0,10.66407 -1.19629,0 -0.0957,-0.78614 -0.0205,-0.007 c -0.18685,0.30534 -0.41016,0.53776 -0.66992,0.69726 -0.25977,0.15495 -0.56511,0.23243 -0.91602,0.23243 -0.74739,0 -1.32161,-0.32129 -1.72265,-0.96387 -0.39649,-0.64714 -0.59473,-1.52669 -0.59473,-2.63867 l 0,-0.14356 m 1.36719,0.14356 c 0,0.79297 0.10026,1.41276 0.30078,1.85937 0.20508,0.44662 0.53548,0.66992 0.99121,0.66992 0.27799,0 0.51269,-0.0752 0.7041,-0.22558 0.1914,-0.15495 0.35091,-0.37598 0.47852,-0.66309 l 0,-3.67773 c -0.12761,-0.30078 -0.28712,-0.5332 -0.47852,-0.69727 -0.19141,-0.16861 -0.42155,-0.25292 -0.69043,-0.25293 -0.45573,1e-5 -0.78841,0.25749 -0.99804,0.77246 -0.20508,0.51498 -0.30762,1.20541 -0.30762,2.07129 l 0,0.14356"
         id="path4407"
         style="font-size:14px;font-variant:normal;font-stretch:normal;text-align:center;writing-mode:lr-tb;text-anchor:middle;font-family:Roboto Condensed;-inkscape-font-specification:'Roboto Condensed,'" />
      <path
         d="m 256.40234,283.81706 -0.0137,0 c -0.18685,0.35091 -0.42155,0.61979 -0.7041,0.80664 -0.28256,0.18229 -0.61068,0.27344 -0.98437,0.27344 -0.64714,0 -1.14617,-0.25066 -1.49708,-0.75196 -0.35091,-0.50586 -0.52636,-1.31022 -0.52636,-2.41308 l 0,-4.36817 1.36719,0 0,4.38184 c -1e-5,0.77474 0.0798,1.31478 0.23925,1.62012 0.15951,0.30534 0.41016,0.458 0.75196,0.458 0.319,0 0.58333,-0.0752 0.79296,-0.22558 0.20964,-0.15495 0.37826,-0.37826 0.50586,-0.66992 l 0,-5.56446 1.36719,0 0,7.39649 -1.20996,0 -0.0889,-0.94336"
         id="path4409"
         style="font-size:14px;font-variant:normal;font-stretch:normal;text-align:center;writing-mode:lr-tb;text-anchor:middle;font-family:Roboto Condensed;-inkscape-font-specification:'Roboto Condensed,'" />
      <path
         d="m 261.68652,283.85124 c 0.32812,0 0.6084,-0.13216 0.84082,-0.39649 0.23242,-0.26432 0.33952,-0.62662 0.32129,-1.08691 l 1.28516,0 c 0.0182,0.72917 -0.2142,1.33301 -0.69727,1.81152 -0.48307,0.47852 -1.05957,0.71778 -1.72949,0.71778 -0.89779,0 -1.57454,-0.30534 -2.03027,-0.91602 -0.45573,-0.61523 -0.6836,-1.41504 -0.6836,-2.39941 l 0,-1.01856 c 0,-0.98437 0.22787,-1.78645 0.6836,-2.40625 0.46028,-0.61978 1.13476,-0.92968 2.02344,-0.92969 0.74283,10e-6 1.33756,0.24838 1.78417,0.74512 0.44661,0.49219 0.66309,1.15984 0.64942,2.00293 l -1.28516,0 c 0.0137,-0.51041 -0.0866,-0.91829 -0.30078,-1.22363 -0.20964,-0.30533 -0.49675,-0.458 -0.86133,-0.45801 -0.5013,1e-5 -0.84766,0.20964 -1.03906,0.62891 -0.18685,0.41472 -0.28027,0.96159 -0.28027,1.64062 l 0,1.01856 c 0,0.69271 0.0934,1.24414 0.28027,1.65429 0.18685,0.41016 0.5332,0.61524 1.03906,0.61524"
         id="path4411"
         style="font-size:14px;font-variant:normal;font-stretch:normal;text-align:center;writing-mode:lr-tb;text-anchor:middle;font-family:Roboto Condensed;-inkscape-font-specification:'Roboto Condensed,'" />
      <path
         d="m 267.8252,284.89714 c -0.83399,0 -1.4948,-0.29851 -1.98243,-0.89551 -0.48763,-0.60156 -0.73144,-1.3877 -0.73144,-2.3584 l 0,-1.08008 c 0,-0.98437 0.24153,-1.78645 0.72461,-2.40625 0.48307,-0.61978 1.11197,-0.92968 1.88672,-0.92969 0.8203,10e-6 1.44237,0.28256 1.86621,0.84766 0.42382,0.56055 0.63573,1.33301 0.63574,2.31738 l 0,0.95703 -3.73926,0 0,0.29395 c 0,0.65625 0.11849,1.18945 0.35547,1.59961 0.23698,0.4056 0.59472,0.6084 1.07324,0.6084 0.4375,0 0.78613,-0.0615 1.0459,-0.18457 0.26432,-0.12305 0.49218,-0.2985 0.68359,-0.52637 l 0.38965,0.88867 c -0.22331,0.26888 -0.52181,0.4808 -0.8955,0.63574 -0.36915,0.15495 -0.80665,0.23243 -1.3125,0.23243 m -0.10254,-6.60352 c -0.3737,1e-5 -0.66765,0.19141 -0.88184,0.57422 -0.21419,0.38282 -0.33268,0.87956 -0.35547,1.49023 l 2.38574,0 0,-0.28027 c 0,-0.5332 -0.0957,-0.96386 -0.28711,-1.29199 -0.18685,-0.32812 -0.47396,-0.49218 -0.86132,-0.49219"
         id="path4413"
         style="font-size:14px;font-variant:normal;font-stretch:normal;text-align:center;writing-mode:lr-tb;text-anchor:middle;font-family:Roboto Condensed;-inkscape-font-specification:'Roboto Condensed,'" />
      <path
         d="m 276.13086,282.27897 0.041,0.35547 0.0205,0 0.0478,-0.34863 1.17579,-4.92188 0.97753,0 1.17579,4.91504 0.0615,0.47168 0.0205,0 0.0684,-0.49902 0.85449,-4.8877 1.3125,0 -1.59961,7.39649 -1.13477,0 -1.1416,-4.77832 -0.0957,-0.54004 -0.0273,0 -0.0957,0.54004 -1.12793,4.77832 -1.13476,0 -1.60645,-7.39649 1.30567,0 0.90234,4.91504"
         id="path4415"
         style="font-size:14px;font-variant:normal;font-stretch:normal;text-align:center;writing-mode:lr-tb;text-anchor:middle;font-family:Roboto Condensed;-inkscape-font-specification:'Roboto Condensed,'" />
      <path
         d="m 284.42969,284.76042 -1.36719,0 0,-7.39649 1.36719,0 0,7.39649 m 0,-9.33789 -1.36719,0 0,-1.32618 1.36719,0 0,1.32618"
         id="path4417"
         style="font-size:14px;font-variant:normal;font-stretch:normal;text-align:center;writing-mode:lr-tb;text-anchor:middle;font-family:Roboto Condensed;-inkscape-font-specification:'Roboto Condensed,'" />
      <path
         d="m 287.69727,275.52507 0,1.83886 1.0664,0 0,0.99121 -1.0664,0 0,4.40235 c -10e-6,0.39193 0.0456,0.66536 0.13671,0.82031 0.0912,0.15495 0.21419,0.23242 0.36914,0.23242 0.0911,0 0.17546,-0.007 0.25293,-0.0205 0.0775,-0.0137 0.15495,-0.0319 0.23243,-0.0547 l 0.14355,0.95019 c -0.12305,0.0638 -0.27116,0.11393 -0.44433,0.15039 -0.16863,0.041 -0.34408,0.0615 -0.52637,0.0615 -0.49675,0 -0.87728,-0.16635 -1.1416,-0.49903 -0.26433,-0.33724 -0.39649,-0.88411 -0.39649,-1.64062 l 0,-4.40235 -0.81347,0 0,-0.99121 0.81347,0 0,-1.83886 1.37403,0"
         id="path4419"
         style="font-size:14px;font-variant:normal;font-stretch:normal;text-align:center;writing-mode:lr-tb;text-anchor:middle;font-family:Roboto Condensed;-inkscape-font-specification:'Roboto Condensed,'" />
      <path
         d="m 291.27246,278.23893 0.0205,0.007 c 0.1914,-0.31901 0.42382,-0.56738 0.69726,-0.74512 0.278,-0.18228 0.59017,-0.27343 0.93653,-0.27344 0.64257,10e-6 1.13704,0.24155 1.4834,0.72461 0.34634,0.47852 0.51952,1.23959 0.51953,2.28321 l 0,4.52539 -1.36719,0 0,-4.53907 c 0,-0.69726 -0.0912,-1.18944 -0.27344,-1.47656 -0.17774,-0.29166 -0.45573,-0.43749 -0.83398,-0.4375 -0.25521,10e-6 -0.48308,0.0775 -0.6836,0.23242 -0.19596,0.1504 -0.3623,0.36231 -0.49902,0.63575 l 0,5.58496 -1.37402,0 0,-10.66407 1.37402,0 0,4.14258"
         id="path4421"
         style="font-size:14px;font-variant:normal;font-stretch:normal;text-align:center;writing-mode:lr-tb;text-anchor:middle;font-family:Roboto Condensed;-inkscape-font-specification:'Roboto Condensed,'" />
      <path
         d="m 207.77148,292.30729 2.17383,8.14844 0.0205,0 2.17383,-8.14844 1.77051,0 0,9.95313 -1.36036,0 0,-3.82129 0.12989,-3.79395 -0.0205,-0.007 -2.24902,7.62207 -0.90918,0 -2.24219,-7.62207 -0.0205,0.007 0.12988,3.79395 0,3.82129 -1.36035,0 0,-9.95313 1.76367,0"
         id="path4423"
         style="font-size:14px;font-variant:normal;font-stretch:normal;text-align:center;writing-mode:lr-tb;text-anchor:middle;font-family:Roboto Condensed;-inkscape-font-specification:'Roboto Condensed,'" />
      <path
         d="m 215.33887,298.09733 c 0,-1.0026 0.23925,-1.8138 0.71777,-2.43359 0.47851,-0.62434 1.15071,-0.93652 2.0166,-0.93653 0.87044,10e-6 1.54492,0.31219 2.02344,0.93653 0.47851,0.61979 0.71777,1.43099 0.71777,2.43359 l 0,0.94336 c 0,1.01172 -0.23926,1.8252 -0.71777,2.44043 -0.47396,0.61068 -1.14388,0.91602 -2.00977,0.91602 -0.875,0 -1.55176,-0.30762 -2.03027,-0.92286 -0.47852,-0.61523 -0.71777,-1.42643 -0.71777,-2.43359 l 0,-0.94336 m 1.37402,0.94336 c 0,0.69271 0.10937,1.25098 0.32813,1.6748 0.21874,0.42383 0.56738,0.63575 1.04589,0.63575 0.46484,0 0.80664,-0.21192 1.02539,-0.63575 0.22331,-0.42838 0.33496,-0.98665 0.33497,-1.6748 l 0,-0.94336 c -1e-5,-0.68359 -0.11166,-1.2373 -0.33497,-1.66113 -0.22331,-0.42838 -0.56966,-0.64257 -1.03906,-0.64258 -0.47396,1e-5 -0.82031,0.2142 -1.03906,0.64258 -0.2142,0.42383 -0.32129,0.97754 -0.32129,1.66113 l 0,0.94336"
         id="path4425"
         style="font-size:14px;font-variant:normal;font-stretch:normal;text-align:center;writing-mode:lr-tb;text-anchor:middle;font-family:Roboto Condensed;-inkscape-font-specification:'Roboto Condensed,'" />
      <path
         d="m 225.16895,296.03288 -0.63575,-0.0342 c -0.25977,0 -0.47396,0.082 -0.64258,0.24609 -0.16862,0.15951 -0.30078,0.39193 -0.39648,0.69727 l 0,5.31836 -1.37402,0 0,-7.39649 1.25781,0 0.0889,1.03223 0.0205,0 c 0.14584,-0.36914 0.33041,-0.65624 0.55372,-0.86133 0.22786,-0.20507 0.49674,-0.30761 0.80664,-0.30762 0.0866,10e-6 0.17317,0.009 0.25976,0.0274 0.0911,0.0137 0.16634,0.0319 0.22559,0.0547 l -0.16406,1.22364"
         id="path4427"
         style="font-size:14px;font-variant:normal;font-stretch:normal;text-align:center;writing-mode:lr-tb;text-anchor:middle;font-family:Roboto Condensed;-inkscape-font-specification:'Roboto Condensed,'" />
      <path
         d="m 231.5332,299.17741 c 0,0.99349 -0.20052,1.77962 -0.60156,2.3584 -0.39649,0.57422 -0.96615,0.86133 -1.70898,0.86133 -0.3418,0 -0.63803,-0.0661 -0.88868,-0.19825 -0.25065,-0.13672 -0.46484,-0.33496 -0.64257,-0.59472 l -0.0205,0.007 0,3.49317 -1.36719,0 0,-10.24024 1.23047,0 0.0752,0.78614 0.0137,0.007 c 0.18229,-0.30077 0.40331,-0.53092 0.66308,-0.69043 0.25977,-0.1595 0.56966,-0.23925 0.92969,-0.23926 0.74739,10e-6 1.31933,0.31902 1.71582,0.95703 0.40104,0.63347 0.60156,1.4948 0.60156,2.58399 l 0,0.90918 m -1.36718,-0.90918 c -10e-6,-0.74283 -0.10938,-1.33756 -0.32813,-1.78418 -0.2142,-0.45117 -0.54916,-0.67675 -1.00488,-0.67676 -0.28256,10e-6 -0.51726,0.082 -0.7041,0.2461 -0.18686,0.16406 -0.33952,0.39421 -0.45801,0.69043 l 0,3.75292 c 0.11393,0.278 0.26432,0.48991 0.45117,0.63575 0.1914,0.14583 0.43294,0.21875 0.72461,0.21875 0.45573,0 0.78841,-0.19597 0.99805,-0.58789 0.21418,-0.39193 0.32128,-0.92057 0.32129,-1.58594 l 0,-0.90918"
         id="path4429"
         style="font-size:14px;font-variant:normal;font-stretch:normal;text-align:center;writing-mode:lr-tb;text-anchor:middle;font-family:Roboto Condensed;-inkscape-font-specification:'Roboto Condensed,'" />
      <path
         d="m 234.19238,295.73893 0.0205,0.007 c 0.1914,-0.31901 0.42383,-0.56738 0.69727,-0.74512 0.27799,-0.18228 0.59016,-0.27343 0.93652,-0.27344 0.64257,10e-6 1.13704,0.24155 1.4834,0.72461 0.34635,0.47852 0.51952,1.23959 0.51953,2.28321 l 0,4.52539 -1.36719,0 0,-4.53907 c 0,-0.69726 -0.0911,-1.18944 -0.27344,-1.47656 -0.17773,-0.29166 -0.45573,-0.43749 -0.83398,-0.4375 -0.25521,10e-6 -0.48308,0.0775 -0.68359,0.23242 -0.19597,0.1504 -0.36231,0.36231 -0.49903,0.63575 l 0,5.58496 -1.37402,0 0,-10.66407 1.37402,0 0,4.14258"
         id="path4431"
         style="font-size:14px;font-variant:normal;font-stretch:normal;text-align:center;writing-mode:lr-tb;text-anchor:middle;font-family:Roboto Condensed;-inkscape-font-specification:'Roboto Condensed,'" />
      <path
         d="m 240.83008,302.26042 -1.36719,0 0,-10.66407 1.36719,0 0,10.66407"
         id="path4433"
         style="font-size:14px;font-variant:normal;font-stretch:normal;text-align:center;writing-mode:lr-tb;text-anchor:middle;font-family:Roboto Condensed;-inkscape-font-specification:'Roboto Condensed,'" />
      <path
         d="m 243.91992,302.26042 -1.36719,0 0,-7.39649 1.36719,0 0,7.39649 m 0,-9.33789 -1.36719,0 0,-1.32618 1.36719,0 0,1.32618"
         id="path4435"
         style="font-size:14px;font-variant:normal;font-stretch:normal;text-align:center;writing-mode:lr-tb;text-anchor:middle;font-family:Roboto Condensed;-inkscape-font-specification:'Roboto Condensed,'" />
      <path
         d="m 246.79785,294.86393 0.0752,0.99805 0.0205,0 c 0.18685,-0.36002 0.42383,-0.63801 0.71094,-0.83399 0.29167,-0.20051 0.62435,-0.30077 0.99805,-0.30078 0.6289,10e-6 1.11197,0.23243 1.44922,0.69727 0.34179,0.46029 0.51269,1.19857 0.51269,2.21484 l 0,4.6211 -1.37402,0 0,-4.60743 c 0,-0.68814 -0.0889,-1.16666 -0.2666,-1.43554 -0.17318,-0.27343 -0.45118,-0.41015 -0.83399,-0.41016 -0.25976,10e-6 -0.48763,0.082 -0.68359,0.2461 -0.19597,0.16406 -0.36003,0.39193 -0.49219,0.68359 l 0,5.52344 -1.37402,0 0,-7.39649 1.25781,0"
         id="path4437"
         style="font-size:14px;font-variant:normal;font-stretch:normal;text-align:center;writing-mode:lr-tb;text-anchor:middle;font-family:Roboto Condensed;-inkscape-font-specification:'Roboto Condensed,'" />
      <path
         d="m 254.60449,302.39714 c -0.83398,0 -1.49479,-0.29851 -1.98242,-0.89551 -0.48763,-0.60156 -0.73145,-1.3877 -0.73145,-2.3584 l 0,-1.08008 c 0,-0.98437 0.24154,-1.78645 0.72461,-2.40625 0.48308,-0.61978 1.11198,-0.92968 1.88672,-0.92969 0.82031,10e-6 1.44238,0.28256 1.86621,0.84766 0.42383,0.56055 0.63574,1.33301 0.63575,2.31738 l 0,0.95703 -3.73926,0 0,0.29395 c 0,0.65625 0.11849,1.18945 0.35547,1.59961 0.23697,0.4056 0.59472,0.6084 1.07324,0.6084 0.4375,0 0.78613,-0.0615 1.0459,-0.18457 0.26432,-0.12305 0.49218,-0.2985 0.68359,-0.52637 l 0.38965,0.88867 c -0.22331,0.26888 -0.52181,0.4808 -0.89551,0.63574 -0.36914,0.15495 -0.80664,0.23243 -1.3125,0.23243 m -0.10254,-6.60352 c -0.3737,1e-5 -0.66764,0.19141 -0.88183,0.57422 -0.2142,0.38282 -0.33269,0.87956 -0.35547,1.49023 l 2.38574,0 0,-0.28027 c 0,-0.5332 -0.0957,-0.96386 -0.28711,-1.29199 -0.18685,-0.32812 -0.47396,-0.49218 -0.86133,-0.49219"
         id="path4439"
         style="font-size:14px;font-variant:normal;font-stretch:normal;text-align:center;writing-mode:lr-tb;text-anchor:middle;font-family:Roboto Condensed;-inkscape-font-specification:'Roboto Condensed,'" />
      <path
         d="m 263.08789,292.30729 2.17383,8.14844 0.0205,0 2.17382,-8.14844 1.77051,0 0,9.95313 -1.36035,0 0,-3.82129 0.12988,-3.79395 -0.0205,-0.007 -2.24903,7.62207 -0.90918,0 -2.24218,-7.62207 -0.0205,0.007 0.12988,3.79395 0,3.82129 -1.36035,0 0,-9.95313 1.76367,0"
         id="path4441"
         style="font-size:14px;font-variant:normal;font-stretch:normal;text-align:center;writing-mode:lr-tb;text-anchor:middle;font-family:Roboto Condensed;-inkscape-font-specification:'Roboto Condensed,'" />
      <path
         d="m 274.46973,302.26042 c -0.0456,-0.16862 -0.0843,-0.32813 -0.11621,-0.47852 -0.0319,-0.15495 -0.0547,-0.30534 -0.0684,-0.45117 l -0.0137,-0.007 c -0.19141,0.31446 -0.42838,0.57194 -0.71093,0.77246 -0.28256,0.20052 -0.59929,0.30079 -0.9502,0.30079 -0.61068,0 -1.08236,-0.19141 -1.41504,-0.57422 -0.32812,-0.38737 -0.49219,-0.9183 -0.49219,-1.59278 0,-0.72005 0.22331,-1.27831 0.66993,-1.6748 0.45117,-0.39648 1.0983,-0.59472 1.9414,-0.59473 l 0.9502,0 0,-0.75879 c -10e-6,-0.46028 -0.0912,-0.81347 -0.27344,-1.05957 -0.17774,-0.25064 -0.4375,-0.37597 -0.7793,-0.37597 -0.31445,0 -0.56055,0.11166 -0.73828,0.33496 -0.17773,0.21875 -0.2666,0.50586 -0.2666,0.86133 l -1.37402,-0.007 c 0,-0.60611 0.22558,-1.12792 0.67676,-1.56543 0.45117,-0.44205 1.04817,-0.66308 1.79101,-0.66309 0.70638,10e-6 1.27148,0.21192 1.69531,0.63575 0.42838,0.41927 0.64258,1.03679 0.64258,1.85253 l 0,3.43165 c 0,0.28255 0.016,0.55599 0.0478,0.82031 0.0365,0.25976 0.0911,0.52409 0.16407,0.79297 l -1.38086,0 m -1.54493,-0.92969 c 0.30078,0 0.56966,-0.0889 0.80665,-0.2666 0.23697,-0.18229 0.4147,-0.41471 0.5332,-0.69727 l 0,-1.54492 -0.9707,0 c -0.39649,0 -0.69955,0.13444 -0.90918,0.40332 -0.20964,0.26888 -0.31446,0.60157 -0.31446,0.99805 0,0.33724 0.0729,0.60612 0.21875,0.80664 0.14583,0.20052 0.35775,0.30078 0.63574,0.30078"
         id="path4443"
         style="font-size:14px;font-variant:normal;font-stretch:normal;text-align:center;writing-mode:lr-tb;text-anchor:middle;font-family:Roboto Condensed;-inkscape-font-specification:'Roboto Condensed,'" />
      <path
         d="m 282.39258,299.17741 c -1e-5,0.99349 -0.20053,1.77962 -0.60156,2.3584 -0.39649,0.57422 -0.96615,0.86133 -1.70899,0.86133 -0.3418,0 -0.63802,-0.0661 -0.88867,-0.19825 -0.25065,-0.13672 -0.46485,-0.33496 -0.64258,-0.59472 l -0.0205,0.007 0,3.49317 -1.36718,0 0,-10.24024 1.23046,0 0.0752,0.78614 0.0137,0.007 c 0.18229,-0.30077 0.40332,-0.53092 0.66309,-0.69043 0.25976,-0.1595 0.56966,-0.23925 0.92969,-0.23926 0.74739,10e-6 1.31933,0.31902 1.71582,0.95703 0.40103,0.63347 0.60155,1.4948 0.60156,2.58399 l 0,0.90918 m -1.36719,-0.90918 c 0,-0.74283 -0.10938,-1.33756 -0.32812,-1.78418 -0.2142,-0.45117 -0.54916,-0.67675 -1.00489,-0.67676 -0.28255,10e-6 -0.51725,0.082 -0.7041,0.2461 -0.18685,0.16406 -0.33952,0.39421 -0.45801,0.69043 l 0,3.75292 c 0.11393,0.278 0.26432,0.48991 0.45118,0.63575 0.1914,0.14583 0.43293,0.21875 0.7246,0.21875 0.45573,0 0.78841,-0.19597 0.99805,-0.58789 0.21419,-0.39193 0.32129,-0.92057 0.32129,-1.58594 l 0,-0.90918"
         id="path4445"
         style="font-size:14px;font-variant:normal;font-stretch:normal;text-align:center;writing-mode:lr-tb;text-anchor:middle;font-family:Roboto Condensed;-inkscape-font-specification:'Roboto Condensed,'" />
      <path
         d="m 288.92773,299.17741 c 0,0.99349 -0.20052,1.77962 -0.60156,2.3584 -0.39649,0.57422 -0.96615,0.86133 -1.70898,0.86133 -0.3418,0 -0.63803,-0.0661 -0.88867,-0.19825 -0.25066,-0.13672 -0.46485,-0.33496 -0.64258,-0.59472 l -0.0205,0.007 0,3.49317 -1.36719,0 0,-10.24024 1.23047,0 0.0752,0.78614 0.0137,0.007 c 0.18229,-0.30077 0.40332,-0.53092 0.66308,-0.69043 0.25977,-0.1595 0.56966,-0.23925 0.92969,-0.23926 0.74739,10e-6 1.31933,0.31902 1.71582,0.95703 0.40104,0.63347 0.60156,1.4948 0.60156,2.58399 l 0,0.90918 m -1.36718,-0.90918 c -10e-6,-0.74283 -0.10938,-1.33756 -0.32813,-1.78418 -0.21419,-0.45117 -0.54916,-0.67675 -1.00488,-0.67676 -0.28256,10e-6 -0.51726,0.082 -0.7041,0.2461 -0.18685,0.16406 -0.33952,0.39421 -0.45801,0.69043 l 0,3.75292 c 0.11393,0.278 0.26432,0.48991 0.45117,0.63575 0.19141,0.14583 0.43294,0.21875 0.72461,0.21875 0.45573,0 0.78841,-0.19597 0.99805,-0.58789 0.21419,-0.39193 0.32128,-0.92057 0.32129,-1.58594 l 0,-0.90918"
         id="path4447"
         style="font-size:14px;font-variant:normal;font-stretch:normal;text-align:center;writing-mode:lr-tb;text-anchor:middle;font-family:Roboto Condensed;-inkscape-font-specification:'Roboto Condensed,'" />
      <path
         d="m 292.72168,302.39714 c -0.83399,0 -1.49479,-0.29851 -1.98242,-0.89551 -0.48763,-0.60156 -0.73145,-1.3877 -0.73145,-2.3584 l 0,-1.08008 c 0,-0.98437 0.24154,-1.78645 0.72461,-2.40625 0.48307,-0.61978 1.11198,-0.92968 1.88672,-0.92969 0.82031,10e-6 1.44238,0.28256 1.86621,0.84766 0.42382,0.56055 0.63574,1.33301 0.63574,2.31738 l 0,0.95703 -3.73925,0 0,0.29395 c -1e-5,0.65625 0.11848,1.18945 0.35546,1.59961 0.23698,0.4056 0.59473,0.6084 1.07325,0.6084 0.43749,0 0.78613,-0.0615 1.0459,-0.18457 0.26431,-0.12305 0.49218,-0.2985 0.68359,-0.52637 l 0.38965,0.88867 c -0.22332,0.26888 -0.52182,0.4808 -0.89551,0.63574 -0.36915,0.15495 -0.80664,0.23243 -1.3125,0.23243 m -0.10254,-6.60352 c -0.3737,1e-5 -0.66765,0.19141 -0.88184,0.57422 -0.21419,0.38282 -0.33268,0.87956 -0.35546,1.49023 l 2.38574,0 0,-0.28027 c -1e-5,-0.5332 -0.0957,-0.96386 -0.28711,-1.29199 -0.18685,-0.32812 -0.47396,-0.49218 -0.86133,-0.49219"
         id="path4449"
         style="font-size:14px;font-variant:normal;font-stretch:normal;text-align:center;writing-mode:lr-tb;text-anchor:middle;font-family:Roboto Condensed;-inkscape-font-specification:'Roboto Condensed,'" />
      <path
         d="m 299.40723,296.03288 -0.63575,-0.0342 c -0.25976,0 -0.47396,0.082 -0.64257,0.24609 -0.16863,0.15951 -0.30079,0.39193 -0.39649,0.69727 l 0,5.31836 -1.37402,0 0,-7.39649 1.25781,0 0.0889,1.03223 0.0205,0 c 0.14583,-0.36914 0.3304,-0.65624 0.55371,-0.86133 0.22786,-0.20507 0.49674,-0.30761 0.80664,-0.30762 0.0866,10e-6 0.17317,0.009 0.25976,0.0274 0.0911,0.0137 0.16634,0.0319 0.22559,0.0547 l -0.16406,1.22364"
         id="path4451"
         style="font-size:14px;font-variant:normal;font-stretch:normal;text-align:center;writing-mode:lr-tb;text-anchor:middle;font-family:Roboto Condensed;-inkscape-font-specification:'Roboto Condensed,'" />
    </g>
    <g
       transform="matrix(0.88,0,0,0.88,-5.7695994,982.77168)"
       id="flowRoot3076"
       style="font-size:40px;font-style:normal;font-weight:normal;line-height:125%;letter-spacing:0px;word-spacing:0px;fill:#000000;fill-opacity:1;stroke:none;font-family:Sans">
      <path
         d="m 29.486328,34.570964 c -5e-6,-0.478513 -0.120773,-0.863604 -0.362305,-1.155274 -0.236983,-0.29622 -0.667647,-0.560543 -1.291992,-0.792969 -0.920575,-0.291662 -1.61784,-0.66308 -2.091797,-1.114257 -0.473959,-0.455724 -0.710938,-1.070957 -0.710937,-1.845704 -1e-6,-0.802075 0.264322,-1.449209 0.792969,-1.941406 0.528643,-0.496735 1.225908,-0.745107 2.091796,-0.745117 0.893225,10e-6 1.606441,0.287119 2.139649,0.861328 0.533197,0.574228 0.799798,1.292 0.799805,2.15332 l -1.374024,0 c -5e-6,-0.59244 -0.134445,-1.066398 -0.40332,-1.421875 -0.268885,-0.355459 -0.660812,-0.533194 -1.175781,-0.533203 -0.487634,9e-6 -0.859053,0.1504 -1.114258,0.451172 -0.255211,0.296232 -0.382815,0.683602 -0.382813,1.16211 -2e-6,0.432949 0.136717,0.790696 0.410157,1.073242 0.277992,0.282558 0.745113,0.544602 1.401367,0.786133 0.884109,0.287114 1.544916,0.669926 1.982422,1.148437 0.437493,0.473962 0.656243,1.107425 0.65625,1.900391 -7e-6,0.833986 -0.262051,1.485678 -0.786133,1.955078 -0.524094,0.469401 -1.230474,0.704101 -2.119141,0.704101 -0.865888,0 -1.611005,-0.259765 -2.235351,-0.779297 -0.62435,-0.524087 -0.936524,-1.282875 -0.936524,-2.276367 l 1.374024,0 c -2e-6,0.701825 0.161781,1.212242 0.485351,1.53125 0.323565,0.319012 0.761065,0.478517 1.3125,0.478516 0.496741,1e-6 0.877274,-0.141275 1.141602,-0.423828 0.264318,-0.282551 0.396479,-0.674477 0.396484,-1.175781"
         id="path4566"
         style="font-size:14px;font-variant:normal;font-stretch:normal;text-align:start;writing-mode:lr-tb;text-anchor:start;font-family:Roboto Condensed;-inkscape-font-specification:'Roboto Condensed,'" />
      <path
         d="m 31.913086,32.909831 c -1e-6,-1.002599 0.239257,-1.813796 0.717773,-2.433594 0.478514,-0.624342 1.150714,-0.936516 2.016602,-0.936523 0.870439,7e-6 1.544917,0.312181 2.023437,0.936523 0.47851,0.619798 0.717768,1.430995 0.717774,2.433594 l 0,0.943359 c -6e-6,1.011721 -0.239264,1.825197 -0.717774,2.44043 -0.473963,0.610677 -1.143884,0.916015 -2.009765,0.916015 -0.875003,0 -1.55176,-0.307617 -2.030274,-0.922851 -0.478516,-0.615233 -0.717774,-1.42643 -0.717773,-2.433594 l 0,-0.943359 m 1.374023,0.943359 c -2e-6,0.692711 0.109373,1.250979 0.328125,1.674805 0.218748,0.423829 0.56738,0.635743 1.045899,0.635742 0.46484,1e-6 0.806636,-0.211913 1.02539,-0.635742 0.223303,-0.428384 0.334957,-0.986651 0.334961,-1.674805 l 0,-0.943359 c -4e-6,-0.683589 -0.111658,-1.2373 -0.334961,-1.661133 -0.223311,-0.428379 -0.569665,-0.642572 -1.039062,-0.642578 -0.473961,6e-6 -0.820315,0.214199 -1.039063,0.642578 -0.214194,0.423833 -0.321291,0.977544 -0.321289,1.661133 l 0,0.943359"
         id="path4568"
         style="font-size:14px;font-variant:normal;font-stretch:normal;text-align:start;writing-mode:lr-tb;text-anchor:start;font-family:Roboto Condensed;-inkscape-font-specification:'Roboto Condensed,'" />
      <path
         d="m 42.392578,36.129557 -0.01367,0 c -0.186853,0.350912 -0.421553,0.619792 -0.704101,0.806641 -0.282556,0.182292 -0.610681,0.273437 -0.984375,0.273437 -0.647138,0 -1.146161,-0.250651 -1.497071,-0.751953 -0.350912,-0.505858 -0.526368,-1.310219 -0.526367,-2.413086 l 0,-4.368164 1.367188,0 0,4.381836 c -2e-6,0.774742 0.07975,1.314781 0.239257,1.620117 0.159503,0.30534 0.410154,0.458009 0.751954,0.458008 0.319007,1e-6 0.583329,-0.07519 0.792968,-0.225586 0.209632,-0.154946 0.378251,-0.378253 0.50586,-0.669922 l 0,-5.564453 1.367187,0 0,7.396485 -1.209961,0 -0.08887,-0.94336"
         id="path4570"
         style="font-size:14px;font-variant:normal;font-stretch:normal;text-align:start;writing-mode:lr-tb;text-anchor:start;font-family:Roboto Condensed;-inkscape-font-specification:'Roboto Condensed,'" />
      <path
         d="m 48.27832,30.845378 -0.635742,-0.03418 c -0.259768,6e-6 -0.473961,0.08204 -0.642578,0.246094 -0.168622,0.159511 -0.300783,0.391932 -0.396484,0.697265 l 0,5.31836 -1.374024,0 0,-7.396485 1.257813,0 0.08887,1.032227 0.02051,0 c 0.145831,-0.369134 0.330401,-0.656243 0.553711,-0.861328 0.227861,-0.205071 0.496741,-0.30761 0.80664,-0.307617 0.08658,7e-6 0.173174,0.0091 0.259766,0.02734 0.09114,0.01368 0.166337,0.03191 0.225586,0.05469 l -0.164063,1.223633"
         id="path4572"
         style="font-size:14px;font-variant:normal;font-stretch:normal;text-align:start;writing-mode:lr-tb;text-anchor:start;font-family:Roboto Condensed;-inkscape-font-specification:'Roboto Condensed,'" />
      <path
         d="m 51.723633,36.163737 c 0.328121,1e-6 0.608394,-0.13216 0.84082,-0.396484 0.232418,-0.264322 0.339514,-0.626626 0.321289,-1.086914 l 1.285156,0 c 0.01822,0.729168 -0.214198,1.333008 -0.697265,1.811523 -0.483078,0.478516 -1.059574,0.717773 -1.729492,0.717773 -0.897789,0 -1.574546,-0.305338 -2.030274,-0.916015 -0.45573,-0.615233 -0.683594,-1.415037 -0.683594,-2.399414 l 0,-1.018555 c 0,-0.98437 0.227864,-1.786452 0.683594,-2.40625 0.460285,-0.619784 1.134763,-0.92968 2.023438,-0.929687 0.742834,7e-6 1.33756,0.248379 1.784179,0.745117 0.446609,0.492194 0.663081,1.159836 0.649414,2.002929 l -1.285156,0 c 0.01367,-0.510411 -0.08659,-0.918288 -0.300781,-1.223632 -0.209639,-0.305333 -0.496748,-0.458002 -0.861328,-0.458008 -0.501305,6e-6 -0.847659,0.209641 -1.039063,0.628906 -0.186851,0.414719 -0.280275,0.961593 -0.280273,1.640625 l 0,1.018555 c -2e-6,0.692711 0.09342,1.244142 0.280273,1.654297 0.186847,0.410157 0.533201,0.615235 1.039063,0.615234"
         id="path4574"
         style="font-size:14px;font-variant:normal;font-stretch:normal;text-align:start;writing-mode:lr-tb;text-anchor:start;font-family:Roboto Condensed;-inkscape-font-specification:'Roboto Condensed,'" />
      <path
         d="m 57.862305,37.209635 c -0.833987,0 -1.494794,-0.298502 -1.982422,-0.895507 -0.487631,-0.601562 -0.731446,-1.387694 -0.731446,-2.358399 l 0,-1.080078 c 0,-0.98437 0.241536,-1.786452 0.72461,-2.40625 0.483071,-0.619784 1.111977,-0.92968 1.886719,-0.929687 0.820308,7e-6 1.442378,0.282559 1.866211,0.847656 0.423822,0.560553 0.635736,1.333013 0.635742,2.317383 l 0,0.957031 -3.739258,0 0,0.293945 c -2e-6,0.656253 0.118487,1.189455 0.355469,1.59961 0.236976,0.4056 0.594723,0.608399 1.073242,0.608398 0.437496,1e-6 0.786129,-0.06152 1.045898,-0.18457 0.264319,-0.123046 0.492183,-0.298502 0.683594,-0.526368 l 0.389648,0.888672 c -0.223312,0.268881 -0.521814,0.480795 -0.895507,0.635743 -0.369145,0.154947 -0.806645,0.232421 -1.3125,0.232421 M 57.759766,30.60612 c -0.373701,6e-6 -0.667646,0.191412 -0.881836,0.574219 -0.214195,0.382818 -0.332685,0.879562 -0.355469,1.490234 l 2.385742,0 0,-0.280274 c -4e-6,-0.533197 -0.09571,-0.963861 -0.287109,-1.291992 -0.186853,-0.328118 -0.473962,-0.492181 -0.861328,-0.492187"
         id="path4576"
         style="font-size:14px;font-variant:normal;font-stretch:normal;text-align:start;writing-mode:lr-tb;text-anchor:start;font-family:Roboto Condensed;-inkscape-font-specification:'Roboto Condensed,'" />
      <path
         d="m 64.759766,35.220378 c -4e-6,-0.291665 -0.08659,-0.533201 -0.259766,-0.72461 -0.168623,-0.195961 -0.501305,-0.41471 -0.998047,-0.65625 -0.738283,-0.300777 -1.2806,-0.612952 -1.626953,-0.936523 -0.341798,-0.328121 -0.512696,-0.76562 -0.512695,-1.3125 -10e-7,-0.57877 0.211913,-1.064121 0.635742,-1.456055 0.423826,-0.396477 0.991209,-0.594719 1.702148,-0.594726 0.738278,7e-6 1.321611,0.2142 1.75,0.642578 0.428381,0.428392 0.642573,0.979823 0.642578,1.654297 l -1.367187,0 c -4e-6,-0.360021 -0.08887,-0.66308 -0.266602,-0.90918 -0.177738,-0.250645 -0.430667,-0.37597 -0.758789,-0.375977 -0.32357,7e-6 -0.571942,0.09799 -0.745117,0.293946 -0.173179,0.191412 -0.259767,0.421555 -0.259766,0.690429 -1e-6,0.287115 0.07292,0.510422 0.21875,0.669922 0.150389,0.15951 0.485349,0.373703 1.004883,0.642578 0.751949,0.282556 1.303381,0.597009 1.654297,0.94336 0.350906,0.341799 0.526362,0.79525 0.526367,1.360351 -5e-6,0.62435 -0.218755,1.123373 -0.65625,1.497071 -0.432947,0.373698 -1.018558,0.560546 -1.756836,0.560546 -0.797528,0 -1.417319,-0.227864 -1.859375,-0.683593 -0.442058,-0.460286 -0.663086,-1.016275 -0.663086,-1.667969 l 1.326172,0 c 0.01367,0.487632 0.13216,0.836264 0.355469,1.045898 0.227862,0.205079 0.514971,0.307618 0.861328,0.307618 0.337237,0 0.597002,-0.09114 0.779297,-0.273438 0.182288,-0.18229 0.273434,-0.421548 0.273438,-0.717773"
         id="path4578"
         style="font-size:14px;font-variant:normal;font-stretch:normal;text-align:start;writing-mode:lr-tb;text-anchor:start;font-family:Roboto Condensed;-inkscape-font-specification:'Roboto Condensed,'" />
    </g>
    <g
       transform="matrix(0.88,0,0,0.88,71.957211,983.02133)"
       id="flowRoot3084"
       style="font-size:40px;font-style:normal;font-weight:normal;line-height:125%;letter-spacing:0px;word-spacing:0px;fill:#000000;fill-opacity:1;stroke:none;font-family:Sans">
      <path
         d="m 30.026367,32.650065 -3.46582,0 0,4.422852 -1.374024,0 0,-9.953125 5.393555,0 0,1.066406 -4.019531,0 0,3.404297 3.46582,0 0,1.05957"
         id="path4543"
         style="font-size:14px;font-variant:normal;font-stretch:normal;text-align:start;writing-mode:lr-tb;text-anchor:start;font-family:Roboto Condensed;-inkscape-font-specification:'Roboto Condensed,'" />
      <path
         d="m 33.150391,37.072917 -1.367188,0 0,-10.664063 1.367188,0 0,10.664063"
         id="path4545"
         style="font-size:14px;font-variant:normal;font-stretch:normal;text-align:start;writing-mode:lr-tb;text-anchor:start;font-family:Roboto Condensed;-inkscape-font-specification:'Roboto Condensed,'" />
      <path
         d="m 38.482422,36.129557 -0.01367,0 c -0.186853,0.350912 -0.421554,0.619792 -0.704102,0.806641 -0.282555,0.182292 -0.61068,0.273437 -0.984375,0.273437 -0.647137,0 -1.14616,-0.250651 -1.49707,-0.751953 -0.350912,-0.505858 -0.526368,-1.310219 -0.526367,-2.413086 l 0,-4.368164 1.367187,0 0,4.381836 c -2e-6,0.774742 0.07975,1.314781 0.239258,1.620117 0.159503,0.30534 0.410154,0.458009 0.751953,0.458008 0.319007,1e-6 0.58333,-0.07519 0.792969,-0.225586 0.209631,-0.154946 0.378251,-0.378253 0.505859,-0.669922 l 0,-5.564453 1.367188,0 0,7.396485 -1.209961,0 -0.08887,-0.94336"
         id="path4547"
         style="font-size:14px;font-variant:normal;font-stretch:normal;text-align:start;writing-mode:lr-tb;text-anchor:start;font-family:Roboto Condensed;-inkscape-font-specification:'Roboto Condensed,'" />
      <path
         d="m 42.570312,29.676432 0.0752,0.90918 0.02051,0.0068 c 0.186846,-0.337233 0.421547,-0.596998 0.704101,-0.779297 0.287106,-0.182284 0.628903,-0.27343 1.025391,-0.273437 0.382808,7e-6 0.708654,0.104825 0.977539,0.314453 0.273432,0.205085 0.483067,0.526374 0.628906,0.963867 0.186843,-0.405592 0.42838,-0.720045 0.724609,-0.94336 0.296218,-0.223299 0.651686,-0.334953 1.066407,-0.33496 0.606112,7e-6 1.077791,0.248379 1.415039,0.745117 0.341788,0.496751 0.512686,1.27149 0.512695,2.324218 l 0,4.463868 -1.374023,0 0,-4.470703 c -8e-6,-0.747391 -0.08432,-1.264643 -0.25293,-1.551758 -0.168627,-0.287103 -0.423835,-0.430658 -0.765625,-0.430664 -0.287116,0.0046 -0.526373,0.113938 -0.717773,0.328125 -0.186855,0.214198 -0.328131,0.499029 -0.423829,0.854492 0.0046,0.08659 0.0091,0.173182 0.01367,0.259765 0.0046,0.08659 0.0068,0.175461 0.0068,0.266602 l 0,4.744141 -1.374023,0 0,-4.504883 c -4e-6,-0.710932 -0.08431,-1.212234 -0.25293,-1.503906 -0.168624,-0.296218 -0.42611,-0.44433 -0.772461,-0.444336 -0.264326,6e-6 -0.487633,0.0752 -0.669922,0.225586 -0.177736,0.150396 -0.325848,0.36231 -0.444336,0.635742 l 0,5.591797 -1.374023,0 0,-7.396485 1.250976,0"
         id="path4549"
         style="font-size:14px;font-variant:normal;font-stretch:normal;text-align:start;writing-mode:lr-tb;text-anchor:start;font-family:Roboto Condensed;-inkscape-font-specification:'Roboto Condensed,'" />
      <path
         d="m 53.706055,37.209635 c -0.833987,0 -1.494794,-0.298502 -1.982422,-0.895507 -0.487631,-0.601562 -0.731446,-1.387694 -0.731446,-2.358399 l 0,-1.080078 c 0,-0.98437 0.241536,-1.786452 0.72461,-2.40625 0.483071,-0.619784 1.111977,-0.92968 1.886719,-0.929687 0.820308,7e-6 1.442378,0.282559 1.866211,0.847656 0.423822,0.560553 0.635736,1.333013 0.635742,2.317383 l 0,0.957031 -3.739258,0 0,0.293945 c -2e-6,0.656253 0.118487,1.189455 0.355469,1.59961 0.236976,0.4056 0.594723,0.608399 1.073242,0.608398 0.437496,1e-6 0.786129,-0.06152 1.045898,-0.18457 0.264319,-0.123046 0.492183,-0.298502 0.683594,-0.526368 l 0.389648,0.888672 c -0.223312,0.268881 -0.521814,0.480795 -0.895507,0.635743 -0.369145,0.154947 -0.806645,0.232421 -1.3125,0.232421 M 53.603516,30.60612 c -0.373701,6e-6 -0.667646,0.191412 -0.881836,0.574219 -0.214195,0.382818 -0.332685,0.879562 -0.355469,1.490234 l 2.385742,0 0,-0.280274 c -4e-6,-0.533197 -0.09571,-0.963861 -0.287109,-1.291992 -0.186853,-0.328118 -0.473962,-0.492181 -0.861328,-0.492187"
         id="path4551"
         style="font-size:14px;font-variant:normal;font-stretch:normal;text-align:start;writing-mode:lr-tb;text-anchor:start;font-family:Roboto Condensed;-inkscape-font-specification:'Roboto Condensed,'" />
      <path
         d="m 64.759766,34.570964 c -6e-6,-0.478513 -0.120774,-0.863604 -0.362305,-1.155274 -0.236984,-0.29622 -0.667647,-0.560543 -1.291992,-0.792969 -0.920576,-0.291662 -1.617841,-0.66308 -2.091797,-1.114257 -0.473959,-0.455724 -0.710938,-1.070957 -0.710938,-1.845704 0,-0.802075 0.264322,-1.449209 0.792969,-1.941406 0.528644,-0.496735 1.225909,-0.745107 2.091797,-0.745117 0.893225,10e-6 1.60644,0.287119 2.139648,0.861328 0.533197,0.574228 0.799799,1.292 0.799805,2.15332 l -1.374023,0 c -6e-6,-0.59244 -0.134446,-1.066398 -0.403321,-1.421875 -0.268884,-0.355459 -0.660811,-0.533194 -1.175781,-0.533203 -0.487633,9e-6 -0.859052,0.1504 -1.114258,0.451172 -0.25521,0.296232 -0.382814,0.683602 -0.382812,1.16211 -2e-6,0.432949 0.136716,0.790696 0.410156,1.073242 0.277992,0.282558 0.745114,0.544602 1.401367,0.786133 0.88411,0.287114 1.544917,0.669926 1.982422,1.148437 0.437494,0.473962 0.656244,1.107425 0.65625,1.900391 -6e-6,0.833986 -0.26205,1.485678 -0.786133,1.955078 -0.524094,0.469401 -1.230473,0.704101 -2.11914,0.704101 -0.865889,0 -1.611005,-0.259765 -2.235352,-0.779297 -0.62435,-0.524087 -0.936524,-1.282875 -0.936523,-2.276367 l 1.374023,0 c -2e-6,0.701825 0.161782,1.212242 0.485352,1.53125 0.323565,0.319012 0.761064,0.478517 1.3125,0.478516 0.49674,1e-6 0.877274,-0.141275 1.141601,-0.423828 0.264318,-0.282551 0.396479,-0.674477 0.396485,-1.175781"
         id="path4553"
         style="font-size:14px;font-variant:normal;font-stretch:normal;text-align:start;writing-mode:lr-tb;text-anchor:start;font-family:Roboto Condensed;-inkscape-font-specification:'Roboto Condensed,'" />
      <path
         d="m 67.186523,32.909831 c 0,-1.002599 0.239257,-1.813796 0.717774,-2.433594 0.478514,-0.624342 1.150714,-0.936516 2.016601,-0.936523 0.870439,7e-6 1.544918,0.312181 2.023438,0.936523 0.47851,0.619798 0.717767,1.430995 0.717773,2.433594 l 0,0.943359 c -6e-6,1.011721 -0.239263,1.825197 -0.717773,2.44043 -0.473963,0.610677 -1.143884,0.916015 -2.009766,0.916015 -0.875002,0 -1.551759,-0.307617 -2.030273,-0.922851 -0.478517,-0.615233 -0.717774,-1.42643 -0.717774,-2.433594 l 0,-0.943359 m 1.374024,0.943359 c -2e-6,0.692711 0.109373,1.250979 0.328125,1.674805 0.218747,0.423829 0.56738,0.635743 1.045898,0.635742 0.46484,1e-6 0.806637,-0.211913 1.025391,-0.635742 0.223303,-0.428384 0.334956,-0.986651 0.334961,-1.674805 l 0,-0.943359 c -5e-6,-0.683589 -0.111658,-1.2373 -0.334961,-1.661133 -0.223311,-0.428379 -0.569665,-0.642572 -1.039063,-0.642578 -0.473961,6e-6 -0.820315,0.214199 -1.039062,0.642578 -0.214195,0.423833 -0.321291,0.977544 -0.321289,1.661133 l 0,0.943359"
         id="path4555"
         style="font-size:14px;font-variant:normal;font-stretch:normal;text-align:start;writing-mode:lr-tb;text-anchor:start;font-family:Roboto Condensed;-inkscape-font-specification:'Roboto Condensed,'" />
      <path
         d="m 77.666016,36.129557 -0.01367,0 c -0.186853,0.350912 -0.421554,0.619792 -0.704102,0.806641 -0.282555,0.182292 -0.61068,0.273437 -0.984375,0.273437 -0.647137,0 -1.14616,-0.250651 -1.49707,-0.751953 -0.350913,-0.505858 -0.526368,-1.310219 -0.526367,-2.413086 l 0,-4.368164 1.367187,0 0,4.381836 c -2e-6,0.774742 0.07975,1.314781 0.239258,1.620117 0.159503,0.30534 0.410153,0.458009 0.751953,0.458008 0.319007,1e-6 0.58333,-0.07519 0.792969,-0.225586 0.209631,-0.154946 0.378251,-0.378253 0.505859,-0.669922 l 0,-5.564453 1.367188,0 0,7.396485 -1.209961,0 -0.08887,-0.94336"
         id="path4557"
         style="font-size:14px;font-variant:normal;font-stretch:normal;text-align:start;writing-mode:lr-tb;text-anchor:start;font-family:Roboto Condensed;-inkscape-font-specification:'Roboto Condensed,'" />
      <path
         d="m 83.551758,30.845378 -0.635742,-0.03418 c -0.259769,6e-6 -0.473961,0.08204 -0.642579,0.246094 -0.168622,0.159511 -0.300783,0.391932 -0.396484,0.697265 l 0,5.31836 -1.374023,0 0,-7.396485 1.257812,0 0.08887,1.032227 0.02051,0 c 0.145831,-0.369134 0.330401,-0.656243 0.553711,-0.861328 0.227862,-0.205071 0.496742,-0.30761 0.806641,-0.307617 0.08658,7e-6 0.173173,0.0091 0.259765,0.02734 0.09114,0.01368 0.166338,0.03191 0.225586,0.05469 l -0.164062,1.223633"
         id="path4559"
         style="font-size:14px;font-variant:normal;font-stretch:normal;text-align:start;writing-mode:lr-tb;text-anchor:start;font-family:Roboto Condensed;-inkscape-font-specification:'Roboto Condensed,'" />
      <path
         d="m 86.99707,36.163737 c 0.328122,1e-6 0.608395,-0.13216 0.840821,-0.396484 0.232417,-0.264322 0.339513,-0.626626 0.321289,-1.086914 l 1.285156,0 c 0.01822,0.729168 -0.214198,1.333008 -0.697266,1.811523 -0.483077,0.478516 -1.059574,0.717773 -1.729492,0.717773 -0.897789,0 -1.574546,-0.305338 -2.030273,-0.916015 -0.45573,-0.615233 -0.683595,-1.415037 -0.683594,-2.399414 l 0,-1.018555 c -1e-6,-0.98437 0.227864,-1.786452 0.683594,-2.40625 0.460284,-0.619784 1.134763,-0.92968 2.023437,-0.929687 0.742835,7e-6 1.337561,0.248379 1.78418,0.745117 0.446609,0.492194 0.66308,1.159836 0.649414,2.002929 l -1.285156,0 c 0.01367,-0.510411 -0.08659,-0.918288 -0.300782,-1.223632 -0.209639,-0.305333 -0.496748,-0.458002 -0.861328,-0.458008 -0.501304,6e-6 -0.847658,0.209641 -1.039062,0.628906 -0.186851,0.414719 -0.280276,0.961593 -0.280274,1.640625 l 0,1.018555 c -2e-6,0.692711 0.09342,1.244142 0.280274,1.654297 0.186846,0.410157 0.5332,0.615235 1.039062,0.615234"
         id="path4561"
         style="font-size:14px;font-variant:normal;font-stretch:normal;text-align:start;writing-mode:lr-tb;text-anchor:start;font-family:Roboto Condensed;-inkscape-font-specification:'Roboto Condensed,'" />
      <path
         d="m 93.135742,37.209635 c -0.833987,0 -1.494793,-0.298502 -1.982422,-0.895507 -0.487631,-0.601562 -0.731446,-1.387694 -0.731445,-2.358399 l 0,-1.080078 c -10e-7,-0.98437 0.241536,-1.786452 0.724609,-2.40625 0.483072,-0.619784 1.111977,-0.92968 1.886719,-0.929687 0.820309,7e-6 1.442378,0.282559 1.866211,0.847656 0.423823,0.560553 0.635737,1.333013 0.635742,2.317383 l 0,0.957031 -3.739258,0 0,0.293945 c -10e-7,0.656253 0.118488,1.189455 0.355469,1.59961 0.236977,0.4056 0.594724,0.608399 1.073242,0.608398 0.437497,1e-6 0.786129,-0.06152 1.045899,-0.18457 0.264318,-0.123046 0.492182,-0.298502 0.683594,-0.526368 l 0.389648,0.888672 c -0.223313,0.268881 -0.521815,0.480795 -0.895508,0.635743 -0.369145,0.154947 -0.806644,0.232421 -1.3125,0.232421 M 93.033203,30.60612 c -0.373701,6e-6 -0.667646,0.191412 -0.881836,0.574219 -0.214195,0.382818 -0.332684,0.879562 -0.355469,1.490234 l 2.385743,0 0,-0.280274 c -5e-6,-0.533197 -0.09571,-0.963861 -0.28711,-1.291992 -0.186853,-0.328118 -0.473962,-0.492181 -0.861328,-0.492187"
         id="path4563"
         style="font-size:14px;font-variant:normal;font-stretch:normal;text-align:start;writing-mode:lr-tb;text-anchor:start;font-family:Roboto Condensed;-inkscape-font-specification:'Roboto Condensed,'" />
    </g>
    <g
       transform="matrix(0.88,0,0,0.88,148.10622,965.94632)"
       id="flowRoot3092"
       style="font-size:40px;font-style:normal;font-weight:normal;text-align:center;line-height:125%;letter-spacing:0px;word-spacing:0px;text-anchor:middle;fill:#000000;fill-opacity:1;stroke:none;font-family:Sans">
      <path
         d="m 73.600586,32.650065 -3.46582,0 0,4.422852 -1.374024,0 0,-9.953125 5.393555,0 0,1.066406 -4.019531,0 0,3.404297 3.46582,0 0,1.05957"
         id="path4490"
         style="font-size:14px;font-variant:normal;font-stretch:normal;writing-mode:lr-tb;font-family:Roboto Condensed;-inkscape-font-specification:'Roboto Condensed,'" />
      <path
         d="m 76.724609,37.072917 -1.367187,0 0,-10.664063 1.367187,0 0,10.664063"
         id="path4492"
         style="font-size:14px;font-variant:normal;font-stretch:normal;writing-mode:lr-tb;font-family:Roboto Condensed;-inkscape-font-specification:'Roboto Condensed,'" />
      <path
         d="m 82.056641,36.129557 -0.01367,0 c -0.186853,0.350912 -0.421554,0.619792 -0.704102,0.806641 -0.282555,0.182292 -0.61068,0.273437 -0.984375,0.273437 -0.647137,0 -1.14616,-0.250651 -1.49707,-0.751953 -0.350913,-0.505858 -0.526368,-1.310219 -0.526367,-2.413086 l 0,-4.368164 1.367187,0 0,4.381836 c -2e-6,0.774742 0.07975,1.314781 0.239258,1.620117 0.159503,0.30534 0.410153,0.458009 0.751953,0.458008 0.319007,1e-6 0.58333,-0.07519 0.792969,-0.225586 0.209631,-0.154946 0.378251,-0.378253 0.505859,-0.669922 l 0,-5.564453 1.367188,0 0,7.396485 -1.209961,0 -0.08887,-0.94336"
         id="path4494"
         style="font-size:14px;font-variant:normal;font-stretch:normal;writing-mode:lr-tb;font-family:Roboto Condensed;-inkscape-font-specification:'Roboto Condensed,'" />
      <path
         d="m 86.144531,29.676432 0.0752,0.90918 0.02051,0.0068 c 0.186847,-0.337233 0.421547,-0.596998 0.704102,-0.779297 0.287106,-0.182284 0.628903,-0.27343 1.025391,-0.273437 0.382808,7e-6 0.708654,0.104825 0.977539,0.314453 0.273432,0.205085 0.483067,0.526374 0.628906,0.963867 0.186843,-0.405592 0.428379,-0.720045 0.724609,-0.94336 0.296218,-0.223299 0.651686,-0.334953 1.066406,-0.33496 0.606112,7e-6 1.077792,0.248379 1.41504,0.745117 0.341787,0.496751 0.512686,1.27149 0.512695,2.324218 l 0,4.463868 -1.374024,0 0,-4.470703 c -7e-6,-0.747391 -0.08432,-1.264643 -0.252929,-1.551758 -0.168627,-0.287103 -0.423835,-0.430658 -0.765625,-0.430664 -0.287116,0.0046 -0.526374,0.113938 -0.717774,0.328125 -0.186855,0.214198 -0.32813,0.499029 -0.423828,0.854492 0.0046,0.08659 0.0091,0.173182 0.01367,0.259765 0.0046,0.08659 0.0068,0.175461 0.0068,0.266602 l 0,4.744141 -1.374023,0 0,-4.504883 c -5e-6,-0.710932 -0.08432,-1.212234 -0.25293,-1.503906 -0.168624,-0.296218 -0.426111,-0.44433 -0.772461,-0.444336 -0.264326,6e-6 -0.487633,0.0752 -0.669922,0.225586 -0.177737,0.150396 -0.325849,0.36231 -0.444336,0.635742 l 0,5.591797 -1.374023,0 0,-7.396485 1.250976,0"
         id="path4496"
         style="font-size:14px;font-variant:normal;font-stretch:normal;writing-mode:lr-tb;font-family:Roboto Condensed;-inkscape-font-specification:'Roboto Condensed,'" />
      <path
         d="m 97.280273,37.209635 c -0.833986,0 -1.494793,-0.298502 -1.982421,-0.895507 -0.487631,-0.601562 -0.731446,-1.387694 -0.731446,-2.358399 l 0,-1.080078 c 0,-0.98437 0.241536,-1.786452 0.72461,-2.40625 0.483071,-0.619784 1.111976,-0.92968 1.886718,-0.929687 0.820309,7e-6 1.442379,0.282559 1.866211,0.847656 0.423823,0.560553 0.635737,1.333013 0.635742,2.317383 l 0,0.957031 -3.739257,0 0,0.293945 c -2e-6,0.656253 0.118487,1.189455 0.355468,1.59961 0.236977,0.4056 0.594724,0.608399 1.073243,0.608398 0.437496,1e-6 0.786128,-0.06152 1.045898,-0.18457 0.264318,-0.123046 0.492183,-0.298502 0.683594,-0.526368 l 0.389648,0.888672 c -0.223312,0.268881 -0.521815,0.480795 -0.895508,0.635743 -0.369144,0.154947 -0.806644,0.232421 -1.3125,0.232421 M 97.177734,30.60612 c -0.3737,6e-6 -0.667645,0.191412 -0.881836,0.574219 -0.214194,0.382818 -0.332684,0.879562 -0.355468,1.490234 l 2.385742,0 0,-0.280274 c -4e-6,-0.533197 -0.09571,-0.963861 -0.28711,-1.291992 -0.186852,-0.328118 -0.473961,-0.492181 -0.861328,-0.492187"
         id="path4498"
         style="font-size:14px;font-variant:normal;font-stretch:normal;writing-mode:lr-tb;font-family:Roboto Condensed;-inkscape-font-specification:'Roboto Condensed,'" />
      <path
         d="m 58.486328,44.619792 2.173828,8.148437 0.02051,0 2.173828,-8.148437 1.770508,0 0,9.953125 -1.360352,0 0,-3.821289 0.129883,-3.793946 -0.02051,-0.0068 -2.249023,7.622071 -0.90918,0 -2.242187,-7.622071 -0.02051,0.0068 0.129883,3.793946 0,3.821289 -1.360352,0 0,-9.953125 1.763672,0"
         id="path4500"
         style="font-size:14px;font-variant:normal;font-stretch:normal;writing-mode:lr-tb;font-family:Roboto Condensed;-inkscape-font-specification:'Roboto Condensed,'" />
      <path
         d="m 66.053711,50.409831 c -1e-6,-1.002599 0.239257,-1.813796 0.717773,-2.433594 0.478514,-0.624342 1.150714,-0.936516 2.016602,-0.936523 0.870439,7e-6 1.544917,0.312181 2.023437,0.936523 0.47851,0.619798 0.717768,1.430995 0.717774,2.433594 l 0,0.943359 c -6e-6,1.011721 -0.239264,1.825197 -0.717774,2.44043 -0.473963,0.610677 -1.143884,0.916015 -2.009765,0.916015 -0.875003,0 -1.55176,-0.307617 -2.030274,-0.922851 -0.478516,-0.615233 -0.717774,-1.42643 -0.717773,-2.433594 l 0,-0.943359 m 1.374023,0.943359 c -2e-6,0.692711 0.109373,1.250979 0.328125,1.674805 0.218748,0.423829 0.56738,0.635743 1.045899,0.635742 0.46484,1e-6 0.806636,-0.211913 1.02539,-0.635742 0.223303,-0.428384 0.334957,-0.986651 0.334961,-1.674805 l 0,-0.943359 c -4e-6,-0.683589 -0.111658,-1.2373 -0.334961,-1.661133 -0.223311,-0.428379 -0.569665,-0.642572 -1.039062,-0.642578 -0.473961,6e-6 -0.820315,0.214199 -1.039063,0.642578 -0.214194,0.423833 -0.321291,0.977544 -0.321289,1.661133 l 0,0.943359"
         id="path4502"
         style="font-size:14px;font-variant:normal;font-stretch:normal;writing-mode:lr-tb;font-family:Roboto Condensed;-inkscape-font-specification:'Roboto Condensed,'" />
      <path
         d="m 75.883789,48.345378 -0.635742,-0.03418 c -0.259769,6e-6 -0.473961,0.08204 -0.642578,0.246094 -0.168622,0.159511 -0.300784,0.391932 -0.396485,0.697265 l 0,5.31836 -1.374023,0 0,-7.396485 1.257812,0 0.08887,1.032227 0.02051,0 c 0.145831,-0.369134 0.330402,-0.656243 0.553711,-0.861328 0.227862,-0.205071 0.496742,-0.30761 0.806641,-0.307617 0.08658,7e-6 0.173173,0.0091 0.259766,0.02734 0.09114,0.01368 0.166337,0.03191 0.225586,0.05469 l -0.164063,1.223633"
         id="path4504"
         style="font-size:14px;font-variant:normal;font-stretch:normal;writing-mode:lr-tb;font-family:Roboto Condensed;-inkscape-font-specification:'Roboto Condensed,'" />
      <path
         d="m 82.248047,51.489909 c -6e-6,0.993492 -0.200527,1.779624 -0.601563,2.358398 -0.396489,0.574219 -0.96615,0.861328 -1.708984,0.861328 -0.3418,0 -0.638024,-0.06608 -0.888672,-0.198242 -0.250653,-0.136718 -0.464846,-0.33496 -0.642578,-0.594726 l -0.02051,0.0068 0,3.493164 -1.367187,0 0,-10.240235 1.230468,0 0.0752,0.786133 0.01367,0.0068 c 0.182289,-0.300774 0.403317,-0.530917 0.663086,-0.69043 0.259762,-0.159497 0.569658,-0.23925 0.929687,-0.239257 0.747391,7e-6 1.319331,0.319017 1.71582,0.957031 0.401036,0.633469 0.601557,1.494797 0.601563,2.583984 l 0,0.90918 m -1.367188,-0.90918 c -4e-6,-0.742834 -0.109379,-1.33756 -0.328125,-1.78418 -0.214196,-0.451165 -0.549157,-0.676751 -1.004882,-0.676757 -0.282556,6e-6 -0.517256,0.08204 -0.704102,0.246093 -0.186851,0.164069 -0.33952,0.394212 -0.458008,0.69043 l 0,3.75293 c 0.11393,0.277996 0.264321,0.48991 0.451172,0.635742 0.191404,0.145834 0.43294,0.218751 0.724609,0.21875 0.455726,10e-7 0.788408,-0.195962 0.998047,-0.587891 0.214188,-0.391925 0.321285,-0.92057 0.321289,-1.585937 l 0,-0.90918"
         id="path4506"
         style="font-size:14px;font-variant:normal;font-stretch:normal;writing-mode:lr-tb;font-family:Roboto Condensed;-inkscape-font-specification:'Roboto Condensed,'" />
      <path
         d="m 84.907227,48.051432 0.02051,0.0068 c 0.191404,-0.319003 0.423826,-0.567376 0.697266,-0.745117 0.277992,-0.182284 0.590166,-0.27343 0.936523,-0.273437 0.642574,7e-6 1.13704,0.241543 1.483399,0.724609 0.346348,0.478522 0.519525,1.239589 0.519531,2.283203 l 0,4.525391 -1.367187,0 0,-4.539063 c -5e-6,-0.69726 -0.09115,-1.189447 -0.273438,-1.476562 -0.177738,-0.291661 -0.455733,-0.437494 -0.833984,-0.4375 -0.255212,6e-6 -0.483076,0.07748 -0.683594,0.232422 -0.195966,0.150396 -0.362307,0.36231 -0.499023,0.635742 l 0,5.584961 -1.374024,0 0,-10.664063 1.374024,0 0,4.142578"
         id="path4508"
         style="font-size:14px;font-variant:normal;font-stretch:normal;writing-mode:lr-tb;font-family:Roboto Condensed;-inkscape-font-specification:'Roboto Condensed,'" />
      <path
         d="m 91.544922,54.572917 -1.367188,0 0,-10.664063 1.367188,0 0,10.664063"
         id="path4510"
         style="font-size:14px;font-variant:normal;font-stretch:normal;writing-mode:lr-tb;font-family:Roboto Condensed;-inkscape-font-specification:'Roboto Condensed,'" />
      <path
         d="m 94.634766,54.572917 -1.367188,0 0,-7.396485 1.367188,0 0,7.396485 m 0,-9.337891 -1.367188,0 0,-1.326172 1.367188,0 0,1.326172"
         id="path4512"
         style="font-size:14px;font-variant:normal;font-stretch:normal;writing-mode:lr-tb;font-family:Roboto Condensed;-inkscape-font-specification:'Roboto Condensed,'" />
      <path
         d="m 97.512695,47.176432 0.0752,0.998047 0.02051,0 c 0.186847,-0.360019 0.423826,-0.638014 0.710938,-0.833984 0.291663,-0.200514 0.624345,-0.300774 0.998047,-0.300781 0.628902,7e-6 1.11198,0.232429 1.44922,0.697265 0.34179,0.460293 0.51269,1.198574 0.5127,2.214844 l 0,4.621094 -1.37403,0 0,-4.607422 c -4e-6,-0.688146 -0.08887,-1.166661 -0.266601,-1.435547 -0.173181,-0.273431 -0.451176,-0.41015 -0.833985,-0.410156 -0.259768,6e-6 -0.487633,0.08204 -0.683593,0.246093 -0.195966,0.164069 -0.360029,0.391933 -0.492188,0.683594 l 0,5.523438 -1.374023,0 0,-7.396485 1.257812,0"
         id="path4514"
         style="font-size:14px;font-variant:normal;font-stretch:normal;writing-mode:lr-tb;font-family:Roboto Condensed;-inkscape-font-specification:'Roboto Condensed,'" />
      <path
         d="m 105.31934,54.709635 c -0.83399,0 -1.4948,-0.298502 -1.98243,-0.895507 -0.48763,-0.601562 -0.73144,-1.387694 -0.73144,-2.358399 l 0,-1.080078 c 0,-0.98437 0.24153,-1.786452 0.72461,-2.40625 0.48307,-0.619784 1.11197,-0.92968 1.88672,-0.929687 0.82031,7e-6 1.44238,0.282559 1.86621,0.847656 0.42382,0.560553 0.63573,1.333013 0.63574,2.317383 l 0,0.957031 -3.73926,0 0,0.293945 c 0,0.656253 0.11849,1.189455 0.35547,1.59961 0.23698,0.4056 0.59472,0.608399 1.07324,0.608398 0.4375,1e-6 0.78613,-0.06152 1.0459,-0.18457 0.26432,-0.123046 0.49218,-0.298502 0.6836,-0.526368 l 0.38964,0.888672 c -0.22331,0.268881 -0.52181,0.480795 -0.8955,0.635743 -0.36915,0.154947 -0.80665,0.232421 -1.3125,0.232421 M 105.2168,48.10612 c -0.3737,6e-6 -0.66765,0.191412 -0.88184,0.574219 -0.21419,0.382818 -0.33268,0.879562 -0.35547,1.490234 l 2.38574,0 0,-0.280274 c 0,-0.533197 -0.0957,-0.963861 -0.2871,-1.291992 -0.18686,-0.328118 -0.47397,-0.492181 -0.86133,-0.492187"
         id="path4516"
         style="font-size:14px;font-variant:normal;font-stretch:normal;writing-mode:lr-tb;font-family:Roboto Condensed;-inkscape-font-specification:'Roboto Condensed,'" />
      <path
         d="m 111.6084,50.799479 -2.91895,0 0,-1.052734 2.91895,0 0,1.052734"
         id="path4518"
         style="font-size:14px;font-variant:normal;font-stretch:normal;writing-mode:lr-tb;font-family:Roboto Condensed;-inkscape-font-specification:'Roboto Condensed,'" />
      <path
         d="m 57.789062,72.072917 -1.374023,0 0,-9.953125 1.374023,0 0,9.953125"
         id="path4520"
         style="font-size:14px;font-variant:normal;font-stretch:normal;writing-mode:lr-tb;font-family:Roboto Condensed;-inkscape-font-specification:'Roboto Condensed,'" />
      <path
         d="m 60.803711,64.676432 0.0752,0.998047 0.02051,0 c 0.186847,-0.360019 0.423826,-0.638014 0.710938,-0.833984 0.291663,-0.200514 0.624345,-0.300774 0.998046,-0.300781 0.628902,7e-6 1.111975,0.232429 1.449219,0.697265 0.341791,0.460293 0.51269,1.198574 0.512695,2.214844 l 0,4.621094 -1.374023,0 0,-4.607422 c -4e-6,-0.688146 -0.08887,-1.166661 -0.266602,-1.435547 -0.173181,-0.273431 -0.451175,-0.41015 -0.833984,-0.410156 -0.259769,6e-6 -0.487633,0.08204 -0.683594,0.246093 -0.195966,0.164069 -0.360028,0.391933 -0.492187,0.683594 l 0,5.523438 -1.374024,0 0,-7.396485 1.257813,0"
         id="path4522"
         style="font-size:14px;font-variant:normal;font-stretch:normal;writing-mode:lr-tb;font-family:Roboto Condensed;-inkscape-font-specification:'Roboto Condensed,'" />
      <path
         d="m 67.755859,62.837565 0,1.838867 1.066407,0 0,0.991211 -1.066407,0 0,4.402344 c -2e-6,0.391929 0.04557,0.665366 0.136719,0.820312 0.09114,0.154949 0.21419,0.232423 0.369141,0.232422 0.09114,10e-7 0.175452,-0.0068 0.252929,-0.02051 0.07747,-0.01367 0.154945,-0.0319 0.232422,-0.05469 l 0.143555,0.950195 c -0.12305,0.0638 -0.271162,0.113933 -0.444336,0.150391 -0.168623,0.04102 -0.344078,0.06152 -0.526367,0.06152 -0.496747,0 -0.87728,-0.166341 -1.141602,-0.499023 -0.264324,-0.337239 -0.396485,-0.884113 -0.396484,-1.640625 l 0,-4.402344 -0.813477,0 0,-0.991211 0.813477,0 0,-1.838867 1.374023,0"
         id="path4524"
         style="font-size:14px;font-variant:normal;font-stretch:normal;writing-mode:lr-tb;font-family:Roboto Condensed;-inkscape-font-specification:'Roboto Condensed,'" />
      <path
         d="m 72.46582,72.209635 c -0.833986,0 -1.494793,-0.298502 -1.982422,-0.895507 -0.487631,-0.601562 -0.731445,-1.387694 -0.731445,-2.358399 l 0,-1.080078 c 0,-0.98437 0.241536,-1.786452 0.724609,-2.40625 0.483072,-0.619784 1.111977,-0.92968 1.886719,-0.929687 0.820309,7e-6 1.442378,0.282559 1.866211,0.847656 0.423823,0.560553 0.635737,1.333013 0.635742,2.317383 l 0,0.957031 -3.739257,0 0,0.293945 c -2e-6,0.656253 0.118487,1.189455 0.355468,1.59961 0.236977,0.4056 0.594724,0.608399 1.073242,0.608398 0.437497,10e-7 0.786129,-0.06152 1.045899,-0.18457 0.264318,-0.123046 0.492183,-0.298502 0.683594,-0.526368 l 0.389648,0.888672 c -0.223312,0.268881 -0.521815,0.480795 -0.895508,0.635743 -0.369145,0.154947 -0.806644,0.232421 -1.3125,0.232421 M 72.363281,65.60612 c -0.3737,6e-6 -0.667645,0.191412 -0.881836,0.574219 -0.214194,0.382818 -0.332684,0.879562 -0.355468,1.490234 l 2.385742,0 0,-0.280274 c -5e-6,-0.533197 -0.09571,-0.963861 -0.28711,-1.291992 -0.186852,-0.328118 -0.473962,-0.492181 -0.861328,-0.492187"
         id="path4526"
         style="font-size:14px;font-variant:normal;font-stretch:normal;writing-mode:lr-tb;font-family:Roboto Condensed;-inkscape-font-specification:'Roboto Condensed,'" />
      <path
         d="m 79.151367,65.845378 -0.635742,-0.03418 c -0.259769,6e-6 -0.473961,0.08204 -0.642578,0.246094 -0.168622,0.159511 -0.300784,0.391932 -0.396485,0.697265 l 0,5.31836 -1.374023,0 0,-7.396485 1.257813,0 0.08887,1.032227 0.02051,0 c 0.145831,-0.369134 0.330401,-0.656243 0.55371,-0.861328 0.227862,-0.205071 0.496742,-0.30761 0.806641,-0.307617 0.08658,7e-6 0.173174,0.0091 0.259766,0.02734 0.09114,0.01368 0.166337,0.03191 0.225586,0.05469 l -0.164063,1.223633"
         id="path4528"
         style="font-size:14px;font-variant:normal;font-stretch:normal;writing-mode:lr-tb;font-family:Roboto Condensed;-inkscape-font-specification:'Roboto Condensed,'" />
      <path
         d="m 82.59668,71.163737 c 0.328121,10e-7 0.608394,-0.13216 0.84082,-0.396484 0.232418,-0.264322 0.339514,-0.626626 0.321289,-1.086914 l 1.285156,0 c 0.01822,0.729168 -0.214198,1.333008 -0.697265,1.811523 -0.483078,0.478516 -1.059575,0.717773 -1.729493,0.717773 -0.897788,0 -1.574545,-0.305338 -2.030273,-0.916015 -0.45573,-0.615233 -0.683594,-1.415037 -0.683594,-2.399414 l 0,-1.018555 c 0,-0.98437 0.227864,-1.786452 0.683594,-2.40625 0.460285,-0.619784 1.134763,-0.92968 2.023438,-0.929687 0.742834,7e-6 1.33756,0.248379 1.784179,0.745117 0.446609,0.492194 0.663081,1.159836 0.649414,2.002929 l -1.285156,0 c 0.01367,-0.510411 -0.08659,-0.918288 -0.300781,-1.223632 -0.209639,-0.305333 -0.496749,-0.458002 -0.861328,-0.458008 -0.501305,6e-6 -0.847659,0.209641 -1.039063,0.628906 -0.186851,0.414719 -0.280275,0.961593 -0.280273,1.640625 l 0,1.018555 c -2e-6,0.692711 0.09342,1.244142 0.280273,1.654297 0.186847,0.410157 0.533201,0.615235 1.039063,0.615234"
         id="path4530"
         style="font-size:14px;font-variant:normal;font-stretch:normal;writing-mode:lr-tb;font-family:Roboto Condensed;-inkscape-font-specification:'Roboto Condensed,'" />
      <path
         d="m 88.735352,72.209635 c -0.833987,0 -1.494794,-0.298502 -1.982422,-0.895507 -0.487631,-0.601562 -0.731446,-1.387694 -0.731446,-2.358399 l 0,-1.080078 c 0,-0.98437 0.241536,-1.786452 0.72461,-2.40625 0.483071,-0.619784 1.111977,-0.92968 1.886718,-0.929687 0.820309,7e-6 1.442379,0.282559 1.866211,0.847656 0.423823,0.560553 0.635737,1.333013 0.635743,2.317383 l 0,0.957031 -3.739258,0 0,0.293945 c -2e-6,0.656253 0.118487,1.189455 0.355469,1.59961 0.236976,0.4056 0.594723,0.608399 1.073242,0.608398 0.437496,10e-7 0.786128,-0.06152 1.045898,-0.18457 0.264318,-0.123046 0.492183,-0.298502 0.683594,-0.526368 l 0.389648,0.888672 c -0.223312,0.268881 -0.521814,0.480795 -0.895507,0.635743 -0.369145,0.154947 -0.806645,0.232421 -1.3125,0.232421 m -0.10254,-6.603515 c -0.3737,6e-6 -0.667645,0.191412 -0.881835,0.574219 -0.214195,0.382818 -0.332685,0.879562 -0.355469,1.490234 l 2.385742,0 0,-0.280274 c -4e-6,-0.533197 -0.09571,-0.963861 -0.287109,-1.291992 -0.186853,-0.328118 -0.473962,-0.492181 -0.861329,-0.492187"
         id="path4532"
         style="font-size:14px;font-variant:normal;font-stretch:normal;writing-mode:lr-tb;font-family:Roboto Condensed;-inkscape-font-specification:'Roboto Condensed,'" />
      <path
         d="m 97.601562,68.989909 c -6e-6,0.993492 -0.200526,1.779624 -0.601562,2.358398 -0.396489,0.574219 -0.96615,0.861328 -1.708984,0.861328 -0.341801,0 -0.638024,-0.06608 -0.888672,-0.198242 -0.250654,-0.136718 -0.464846,-0.33496 -0.642578,-0.594726 l -0.02051,0.0068 0,3.493164 -1.367188,0 0,-10.240235 1.230469,0 0.0752,0.786133 0.01367,0.0068 c 0.18229,-0.300774 0.403318,-0.530917 0.663086,-0.69043 0.259763,-0.159497 0.569658,-0.23925 0.929688,-0.239257 0.747391,7e-6 1.319331,0.319017 1.71582,0.957031 0.401036,0.633469 0.601556,1.494797 0.601562,2.583984 l 0,0.90918 m -1.367187,-0.90918 c -5e-6,-0.742834 -0.10938,-1.33756 -0.328125,-1.78418 -0.214197,-0.451165 -0.549157,-0.676751 -1.004883,-0.676757 -0.282555,6e-6 -0.517255,0.08204 -0.704101,0.246093 -0.186852,0.164069 -0.339521,0.394212 -0.458008,0.69043 l 0,3.75293 c 0.11393,0.277996 0.26432,0.48991 0.451172,0.635742 0.191403,0.145834 0.432939,0.218751 0.724609,0.21875 0.455725,1e-6 0.788407,-0.195962 0.998047,-0.587891 0.214188,-0.391925 0.321284,-0.92057 0.321289,-1.585937 l 0,-0.90918"
         id="path4534"
         style="font-size:14px;font-variant:normal;font-stretch:normal;writing-mode:lr-tb;font-family:Roboto Condensed;-inkscape-font-specification:'Roboto Condensed,'" />
      <path
         d="m 100.54102,62.837565 0,1.838867 1.0664,0 0,0.991211 -1.0664,0 0,4.402344 c -1e-5,0.391929 0.0456,0.665366 0.13671,0.820312 0.0911,0.154949 0.21419,0.232423 0.36915,0.232422 0.0911,10e-7 0.17545,-0.0068 0.25292,-0.02051 0.0775,-0.01367 0.15495,-0.0319 0.23243,-0.05469 l 0.14355,0.950195 c -0.12305,0.0638 -0.27116,0.113933 -0.44433,0.150391 -0.16863,0.04102 -0.34408,0.06152 -0.52637,0.06152 -0.49675,0 -0.877282,-0.166341 -1.141603,-0.499023 -0.264325,-0.337239 -0.396486,-0.884113 -0.396485,-1.640625 l 0,-4.402344 -0.813476,0 0,-0.991211 0.813476,0 0,-1.838867 1.374028,0"
         id="path4536"
         style="font-size:14px;font-variant:normal;font-stretch:normal;writing-mode:lr-tb;font-family:Roboto Condensed;-inkscape-font-specification:'Roboto Condensed,'" />
      <path
         d="m 102.37988,67.909831 c 0,-1.002599 0.23926,-1.813796 0.71778,-2.433594 0.47851,-0.624342 1.15071,-0.936516 2.0166,-0.936523 0.87044,7e-6 1.54491,0.312181 2.02344,0.936523 0.47851,0.619798 0.71776,1.430995 0.71777,2.433594 l 0,0.943359 c -1e-5,1.011721 -0.23926,1.825197 -0.71777,2.44043 -0.47397,0.610677 -1.14389,0.916015 -2.00977,0.916015 -0.875,0 -1.55176,-0.307617 -2.03027,-0.922851 -0.47852,-0.615233 -0.71778,-1.42643 -0.71778,-2.433594 l 0,-0.943359 m 1.37403,0.943359 c -1e-5,0.692711 0.10937,1.250979 0.32812,1.674805 0.21875,0.423829 0.56738,0.635743 1.0459,0.635742 0.46484,10e-7 0.80664,-0.211913 1.02539,-0.635742 0.2233,-0.428384 0.33496,-0.986651 0.33496,-1.674805 l 0,-0.943359 c 0,-0.683589 -0.11166,-1.2373 -0.33496,-1.661133 -0.22331,-0.428379 -0.56966,-0.642572 -1.03906,-0.642578 -0.47396,6e-6 -0.82032,0.214199 -1.03906,0.642578 -0.2142,0.423833 -0.3213,0.977544 -0.32129,1.661133 l 0,0.943359"
         id="path4538"
         style="font-size:14px;font-variant:normal;font-stretch:normal;writing-mode:lr-tb;font-family:Roboto Condensed;-inkscape-font-specification:'Roboto Condensed,'" />
      <path
         d="m 112.20996,65.845378 -0.63574,-0.03418 c -0.25977,6e-6 -0.47396,0.08204 -0.64258,0.246094 -0.16862,0.159511 -0.30078,0.391932 -0.39648,0.697265 l 0,5.31836 -1.37403,0 0,-7.396485 1.25782,0 0.0889,1.032227 0.0205,0 c 0.14583,-0.369134 0.3304,-0.656243 0.55371,-0.861328 0.22786,-0.205071 0.49674,-0.30761 0.80664,-0.307617 0.0866,7e-6 0.17318,0.0091 0.25977,0.02734 0.0911,0.01368 0.16633,0.03191 0.22558,0.05469 l -0.16406,1.223633"
         id="path4540"
         style="font-size:14px;font-variant:normal;font-stretch:normal;writing-mode:lr-tb;font-family:Roboto Condensed;-inkscape-font-specification:'Roboto Condensed,'" />
    </g>
    <g
       transform="matrix(0.88,0,0,0.88,262.06515,974.08411)"
       id="flowRoot3102"
       style="font-size:40px;font-style:normal;font-weight:normal;text-align:center;line-height:125%;letter-spacing:0px;word-spacing:0px;text-anchor:middle;fill:#000000;fill-opacity:1;stroke:none;font-family:Sans">
      <path
         d="m 42.756836,32.650065 -3.46582,0 0,4.422852 -1.374024,0 0,-9.953125 5.393555,0 0,1.066406 -4.019531,0 0,3.404297 3.46582,0 0,1.05957"
         id="path4463"
         style="font-size:14px;font-variant:normal;font-stretch:normal;writing-mode:lr-tb;font-family:Roboto Condensed;-inkscape-font-specification:'Roboto Condensed,'" />
      <path
         d="m 45.880859,37.072917 -1.367187,0 0,-10.664063 1.367187,0 0,10.664063"
         id="path4465"
         style="font-size:14px;font-variant:normal;font-stretch:normal;writing-mode:lr-tb;font-family:Roboto Condensed;-inkscape-font-specification:'Roboto Condensed,'" />
      <path
         d="m 51.212891,36.129557 -0.01367,0 c -0.186853,0.350912 -0.421554,0.619792 -0.704102,0.806641 -0.282555,0.182292 -0.61068,0.273437 -0.984375,0.273437 -0.647137,0 -1.14616,-0.250651 -1.49707,-0.751953 -0.350913,-0.505858 -0.526368,-1.310219 -0.526367,-2.413086 l 0,-4.368164 1.367187,0 0,4.381836 c -2e-6,0.774742 0.07975,1.314781 0.239258,1.620117 0.159503,0.30534 0.410153,0.458009 0.751953,0.458008 0.319007,1e-6 0.58333,-0.07519 0.792969,-0.225586 0.209631,-0.154946 0.378251,-0.378253 0.505859,-0.669922 l 0,-5.564453 1.367188,0 0,7.396485 -1.209961,0 -0.08887,-0.94336"
         id="path4467"
         style="font-size:14px;font-variant:normal;font-stretch:normal;writing-mode:lr-tb;font-family:Roboto Condensed;-inkscape-font-specification:'Roboto Condensed,'" />
      <path
         d="m 55.300781,29.676432 0.0752,0.90918 0.02051,0.0068 c 0.186847,-0.337233 0.421547,-0.596998 0.704102,-0.779297 0.287106,-0.182284 0.628903,-0.27343 1.025391,-0.273437 0.382808,7e-6 0.708654,0.104825 0.977539,0.314453 0.273432,0.205085 0.483067,0.526374 0.628906,0.963867 0.186843,-0.405592 0.428379,-0.720045 0.724609,-0.94336 0.296218,-0.223299 0.651686,-0.334953 1.066406,-0.33496 0.606112,7e-6 1.077792,0.248379 1.41504,0.745117 0.341787,0.496751 0.512686,1.27149 0.512695,2.324218 l 0,4.463868 -1.374024,0 0,-4.470703 c -7e-6,-0.747391 -0.08432,-1.264643 -0.252929,-1.551758 -0.168627,-0.287103 -0.423835,-0.430658 -0.765625,-0.430664 -0.287116,0.0046 -0.526374,0.113938 -0.717774,0.328125 -0.186855,0.214198 -0.32813,0.499029 -0.423828,0.854492 0.0046,0.08659 0.0091,0.173182 0.01367,0.259765 0.0046,0.08659 0.0068,0.175461 0.0068,0.266602 l 0,4.744141 -1.374023,0 0,-4.504883 c -5e-6,-0.710932 -0.08431,-1.212234 -0.25293,-1.503906 -0.168624,-0.296218 -0.426111,-0.44433 -0.772461,-0.444336 -0.264326,6e-6 -0.487633,0.0752 -0.669922,0.225586 -0.177737,0.150396 -0.325849,0.36231 -0.444336,0.635742 l 0,5.591797 -1.374023,0 0,-7.396485 1.250976,0"
         id="path4469"
         style="font-size:14px;font-variant:normal;font-stretch:normal;writing-mode:lr-tb;font-family:Roboto Condensed;-inkscape-font-specification:'Roboto Condensed,'" />
      <path
         d="m 66.436523,37.209635 c -0.833986,0 -1.494793,-0.298502 -1.982421,-0.895507 -0.487631,-0.601562 -0.731446,-1.387694 -0.731446,-2.358399 l 0,-1.080078 c 0,-0.98437 0.241536,-1.786452 0.72461,-2.40625 0.483071,-0.619784 1.111976,-0.92968 1.886718,-0.929687 0.820309,7e-6 1.442379,0.282559 1.866211,0.847656 0.423823,0.560553 0.635737,1.333013 0.635742,2.317383 l 0,0.957031 -3.739257,0 0,0.293945 c -2e-6,0.656253 0.118487,1.189455 0.355468,1.59961 0.236977,0.4056 0.594724,0.608399 1.073243,0.608398 0.437496,1e-6 0.786128,-0.06152 1.045898,-0.18457 0.264318,-0.123046 0.492183,-0.298502 0.683594,-0.526368 l 0.389648,0.888672 c -0.223312,0.268881 -0.521815,0.480795 -0.895508,0.635743 -0.369144,0.154947 -0.806644,0.232421 -1.3125,0.232421 M 66.333984,30.60612 c -0.3737,6e-6 -0.667645,0.191412 -0.881836,0.574219 -0.214194,0.382818 -0.332684,0.879562 -0.355468,1.490234 l 2.385742,0 0,-0.280274 c -4e-6,-0.533197 -0.09571,-0.963861 -0.28711,-1.291992 -0.186852,-0.328118 -0.473961,-0.492181 -0.861328,-0.492187"
         id="path4471"
         style="font-size:14px;font-variant:normal;font-stretch:normal;writing-mode:lr-tb;font-family:Roboto Condensed;-inkscape-font-specification:'Roboto Condensed,'" />
      <path
         d="m 36.570312,54.572917 -1.374023,0 0,-4.388672 -3.53418,0 0,4.388672 -1.374023,0 0,-9.953125 1.374023,0 0,4.504882 3.53418,0 0,-4.504882 1.374023,0 0,9.953125"
         id="path4473"
         style="font-size:14px;font-variant:normal;font-stretch:normal;writing-mode:lr-tb;font-family:Roboto Condensed;-inkscape-font-specification:'Roboto Condensed,'" />
      <path
         d="m 38.053711,50.963542 c -10e-7,-1.207678 0.20052,-2.162429 0.601562,-2.864258 0.401041,-0.706373 0.977537,-1.059563 1.729493,-1.05957 0.323564,7e-6 0.606116,0.07065 0.847656,0.211914 0.24609,0.141283 0.460282,0.346361 0.642578,0.615234 l 0.02051,-0.0068 0,-3.951172 1.374023,0 0,10.664063 -1.196289,0 -0.0957,-0.786133 -0.02051,-0.0068 c -0.186853,0.305339 -0.41016,0.537761 -0.669922,0.697266 -0.259769,0.154947 -0.565107,0.232421 -0.916015,0.232421 -0.747398,0 -1.321616,-0.321288 -1.722657,-0.963867 -0.396485,-0.647134 -0.594727,-1.52669 -0.594726,-2.638672 l 0,-0.143554 m 1.367187,0.143554 c -10e-7,0.792972 0.100259,1.412763 0.300782,1.859375 0.205075,0.446616 0.535479,0.669923 0.991211,0.669922 0.277991,10e-7 0.512691,-0.07519 0.704101,-0.225586 0.191402,-0.154946 0.350907,-0.375975 0.478516,-0.663086 l 0,-3.677734 c -0.127609,-0.300775 -0.287114,-0.533197 -0.478516,-0.697266 -0.19141,-0.168613 -0.421553,-0.252923 -0.69043,-0.252929 -0.455731,6e-6 -0.788413,0.257493 -0.998046,0.772461 -0.20508,0.514979 -0.307619,1.205408 -0.307618,2.071289 l 0,0.143554"
         id="path4475"
         style="font-size:14px;font-variant:normal;font-stretch:normal;writing-mode:lr-tb;font-family:Roboto Condensed;-inkscape-font-specification:'Roboto Condensed,'" />
      <path
         d="m 45.299805,54.572917 0,-6.405274 -0.895508,0 0,-0.991211 0.895508,0 0,-0.950195 c -2e-6,-0.802074 0.177733,-1.412751 0.533203,-1.832031 0.355466,-0.419261 0.865883,-0.628896 1.53125,-0.628907 0.132158,1.1e-5 0.262041,0.01368 0.389648,0.04102 0.132158,0.0228 0.28027,0.05698 0.444336,0.102539 l -0.136719,1.018555 c -0.07292,-0.02278 -0.152673,-0.04101 -0.239257,-0.05469 -0.08659,-0.01366 -0.184574,-0.0205 -0.293946,-0.02051 -0.29167,9e-6 -0.508141,0.11622 -0.649414,0.348632 -0.136721,0.232431 -0.20508,0.574228 -0.205078,1.025391 l 0,0.950195 1.203125,0 0,0.991211 -1.203125,0 0,6.405274 -1.374023,0"
         id="path4477"
         style="font-size:14px;font-variant:normal;font-stretch:normal;writing-mode:lr-tb;font-family:Roboto Condensed;-inkscape-font-specification:'Roboto Condensed,'" />
      <path
         d="m 52.224609,52.720378 c -4e-6,-0.291665 -0.08659,-0.533201 -0.259765,-0.72461 -0.168624,-0.195961 -0.501306,-0.41471 -0.998047,-0.65625 -0.738283,-0.300777 -1.280601,-0.612952 -1.626953,-0.936523 -0.341798,-0.328121 -0.512696,-0.76562 -0.512696,-1.3125 0,-0.57877 0.211914,-1.064121 0.635743,-1.456055 0.423826,-0.396477 0.991208,-0.594719 1.702148,-0.594726 0.738278,7e-6 1.32161,0.2142 1.75,0.642578 0.42838,0.428392 0.642573,0.979823 0.642578,1.654297 l -1.367187,0 c -4e-6,-0.360021 -0.08887,-0.66308 -0.266602,-0.90918 -0.177738,-0.250645 -0.430667,-0.37597 -0.758789,-0.375977 -0.32357,7e-6 -0.571942,0.09799 -0.745117,0.293946 -0.173179,0.191412 -0.259768,0.421555 -0.259766,0.690429 -2e-6,0.287115 0.07292,0.510422 0.21875,0.669922 0.150389,0.15951 0.485349,0.373703 1.004883,0.642578 0.751949,0.282556 1.303381,0.597009 1.654297,0.94336 0.350906,0.341799 0.526362,0.79525 0.526367,1.360351 -5e-6,0.62435 -0.218755,1.123373 -0.65625,1.497071 -0.432947,0.373698 -1.018558,0.560546 -1.756836,0.560546 -0.797528,0 -1.417319,-0.227864 -1.859375,-0.683593 -0.442058,-0.460286 -0.663086,-1.016275 -0.663086,-1.667969 l 1.326172,0 c 0.01367,0.487632 0.13216,0.836264 0.355469,1.045898 0.227862,0.205079 0.514971,0.307618 0.861328,0.307618 0.337236,0 0.597002,-0.09114 0.779297,-0.273438 0.182288,-0.18229 0.273433,-0.421548 0.273437,-0.717773"
         id="path4479"
         style="font-size:14px;font-variant:normal;font-stretch:normal;writing-mode:lr-tb;font-family:Roboto Condensed;-inkscape-font-specification:'Roboto Condensed,'" />
      <path
         d="m 59.306641,52.070964 c -6e-6,-0.478513 -0.120774,-0.863604 -0.362305,-1.155274 -0.236984,-0.29622 -0.667647,-0.560543 -1.291992,-0.792969 -0.920576,-0.291662 -1.617841,-0.66308 -2.091797,-1.114257 -0.473959,-0.455724 -0.710938,-1.070957 -0.710938,-1.845704 0,-0.802075 0.264322,-1.449209 0.792969,-1.941406 0.528644,-0.496735 1.225909,-0.745107 2.091797,-0.745117 0.893225,1e-5 1.60644,0.287119 2.139648,0.861328 0.533197,0.574228 0.799799,1.292 0.799805,2.15332 l -1.374023,0 c -6e-6,-0.59244 -0.134446,-1.066398 -0.403321,-1.421875 -0.268884,-0.355459 -0.660811,-0.533194 -1.175781,-0.533203 -0.487633,9e-6 -0.859052,0.1504 -1.114258,0.451172 -0.25521,0.296232 -0.382814,0.683602 -0.382812,1.16211 -2e-6,0.432949 0.136716,0.790696 0.410156,1.073242 0.277992,0.282558 0.745114,0.544602 1.401367,0.786133 0.88411,0.287114 1.544917,0.669926 1.982422,1.148437 0.437494,0.473962 0.656244,1.107425 0.65625,1.900391 -6e-6,0.833986 -0.26205,1.485678 -0.786133,1.955078 -0.524094,0.469401 -1.230473,0.704101 -2.11914,0.704101 -0.865889,0 -1.611005,-0.259765 -2.235352,-0.779297 -0.62435,-0.524087 -0.936524,-1.282875 -0.936523,-2.276367 l 1.374023,0 c -2e-6,0.701825 0.161782,1.212242 0.485352,1.53125 0.323565,0.319012 0.761064,0.478517 1.3125,0.478516 0.49674,1e-6 0.877274,-0.141275 1.141601,-0.423828 0.264318,-0.282551 0.396479,-0.674477 0.396485,-1.175781"
         id="path4481"
         style="font-size:14px;font-variant:normal;font-stretch:normal;writing-mode:lr-tb;font-family:Roboto Condensed;-inkscape-font-specification:'Roboto Condensed,'" />
      <path
         d="m 63.435547,54.572917 -1.367188,0 0,-7.396485 1.367188,0 0,7.396485 m 0,-9.337891 -1.367188,0 0,-1.326172 1.367188,0 0,1.326172"
         id="path4483"
         style="font-size:14px;font-variant:normal;font-stretch:normal;writing-mode:lr-tb;font-family:Roboto Condensed;-inkscape-font-specification:'Roboto Condensed,'" />
      <path
         d="m 66.313477,47.176432 0.07519,0.998047 0.02051,0 c 0.186846,-0.360019 0.423825,-0.638014 0.710937,-0.833984 0.291664,-0.200514 0.624346,-0.300774 0.998047,-0.300781 0.628902,7e-6 1.111974,0.232429 1.449219,0.697265 0.341791,0.460293 0.512689,1.198574 0.512695,2.214844 l 0,4.621094 -1.374023,0 0,-4.607422 c -5e-6,-0.688146 -0.08887,-1.166661 -0.266602,-1.435547 -0.173181,-0.273431 -0.451175,-0.41015 -0.833984,-0.410156 -0.259769,6e-6 -0.487633,0.08204 -0.683594,0.246093 -0.195966,0.164069 -0.360028,0.391933 -0.492188,0.683594 l 0,5.523438 -1.374023,0 0,-7.396485 1.257813,0"
         id="path4485"
         style="font-size:14px;font-variant:normal;font-stretch:normal;writing-mode:lr-tb;font-family:Roboto Condensed;-inkscape-font-specification:'Roboto Condensed,'" />
      <path
         d="m 73.566406,51.182292 -0.560547,0 0,3.390625 -1.367187,0 0,-10.664063 1.367187,0 0,6.213867 0.553711,0 1.469727,-2.946289 1.599609,0 -1.989258,3.335938 2.242188,4.060547 -1.592774,0 -1.722656,-3.390625"
         id="path4487"
         style="font-size:14px;font-variant:normal;font-stretch:normal;writing-mode:lr-tb;font-family:Roboto Condensed;-inkscape-font-specification:'Roboto Condensed,'" />
    </g>
    <g
       transform="matrix(0.88,0,0,0.88,539.90132,982.77168)"
       id="flowRoot3110"
       style="font-size:40px;font-style:normal;font-weight:normal;line-height:125%;letter-spacing:0px;word-spacing:0px;fill:#000000;fill-opacity:1;stroke:none;font-family:Sans">
      <path
         d="m 31.46875,37.072917 -1.374023,0 0,-4.388672 -3.53418,0 0,4.388672 -1.374024,0 0,-9.953125 1.374024,0 0,4.504882 3.53418,0 0,-4.504882 1.374023,0 0,9.953125"
         id="path4388"
         style="font-size:14px;font-variant:normal;font-stretch:normal;text-align:start;writing-mode:lr-tb;text-anchor:start;font-family:Roboto Condensed;-inkscape-font-specification:'Roboto Condensed,'" />
      <path
         d="m 33.362305,37.072917 0,-9.953125 2.37207,0 c 1.184891,10e-6 2.084956,0.337249 2.700195,1.011718 0.615228,0.674488 0.922845,1.702156 0.922852,3.083008 l 0,1.777344 c -7e-6,1.389977 -0.309903,2.417645 -0.929688,3.083008 -0.619797,0.665365 -1.53809,0.998047 -2.754882,0.998047 l -2.310547,0 m 1.374023,-8.886719 0,7.833984 0.888672,0 c 0.865881,1e-6 1.476558,-0.239256 1.832031,-0.717773 0.355464,-0.483071 0.533198,-1.253252 0.533203,-2.310547 l 0,-1.791016 c -5e-6,-1.061842 -0.175461,-1.829745 -0.526367,-2.303711 -0.350916,-0.473949 -0.941085,-0.710928 -1.770508,-0.710937 l -0.957031,0"
         id="path4390"
         style="font-size:14px;font-variant:normal;font-stretch:normal;text-align:start;writing-mode:lr-tb;text-anchor:start;font-family:Roboto Condensed;-inkscape-font-specification:'Roboto Condensed,'" />
      <path
         d="m 45.913086,32.650065 -3.46582,0 0,4.422852 -1.374024,0 0,-9.953125 5.393555,0 0,1.066406 -4.019531,0 0,3.404297 3.46582,0 0,1.05957"
         id="path4392"
         style="font-size:14px;font-variant:normal;font-stretch:normal;text-align:start;writing-mode:lr-tb;text-anchor:start;font-family:Roboto Condensed;-inkscape-font-specification:'Roboto Condensed,'" />
      <path
         d="m 52.044922,34.570964 c -5e-6,-0.478513 -0.120773,-0.863604 -0.362305,-1.155274 -0.236984,-0.29622 -0.667647,-0.560543 -1.291992,-0.792969 -0.920576,-0.291662 -1.617841,-0.66308 -2.091797,-1.114257 -0.473959,-0.455724 -0.710938,-1.070957 -0.710937,-1.845704 -10e-7,-0.802075 0.264321,-1.449209 0.792968,-1.941406 0.528644,-0.496735 1.225909,-0.745107 2.091797,-0.745117 0.893225,10e-6 1.60644,0.287119 2.139649,0.861328 0.533196,0.574228 0.799798,1.292 0.799804,2.15332 l -1.374023,0 c -5e-6,-0.59244 -0.134445,-1.066398 -0.40332,-1.421875 -0.268885,-0.355459 -0.660812,-0.533194 -1.175782,-0.533203 -0.487633,9e-6 -0.859052,0.1504 -1.114257,0.451172 -0.255211,0.296232 -0.382815,0.683602 -0.382813,1.16211 -2e-6,0.432949 0.136717,0.790696 0.410156,1.073242 0.277992,0.282558 0.745114,0.544602 1.401367,0.786133 0.88411,0.287114 1.544917,0.669926 1.982422,1.148437 0.437494,0.473962 0.656244,1.107425 0.65625,1.900391 -6e-6,0.833986 -0.26205,1.485678 -0.786132,1.955078 -0.524094,0.469401 -1.230474,0.704101 -2.119141,0.704101 -0.865888,0 -1.611005,-0.259765 -2.235352,-0.779297 -0.624349,-0.524087 -0.936524,-1.282875 -0.936523,-2.276367 l 1.374023,0 c -2e-6,0.701825 0.161782,1.212242 0.485352,1.53125 0.323565,0.319012 0.761064,0.478517 1.3125,0.478516 0.496741,1e-6 0.877274,-0.141275 1.141601,-0.423828 0.264318,-0.282551 0.39648,-0.674477 0.396485,-1.175781"
         id="path4394"
         style="font-size:14px;font-variant:normal;font-stretch:normal;text-align:start;writing-mode:lr-tb;text-anchor:start;font-family:Roboto Condensed;-inkscape-font-specification:'Roboto Condensed,'" />
    </g>
    <path
       d="m 61.91884,1011.7761 20.95978,0"
       id="path3904"
       style="fill:none;stroke:#000000;stroke-width:1;stroke-linecap:butt;stroke-linejoin:miter;stroke-miterlimit:4;stroke-opacity:1;stroke-dasharray:none;marker-end:url(#Arrow2Lend)" />
    <path
       d="m 164.14625,1011.7761 20.9343,0"
       id="path3906"
       style="fill:none;stroke:#000000;stroke-width:1;stroke-linecap:butt;stroke-linejoin:miter;stroke-miterlimit:4;stroke-opacity:1;stroke-dasharray:none;marker-end:url(#Arrow2Lend)" />
    <path
       d="m 258.11347,1011.7761 20.94372,0"
       id="path3910"
       style="fill:none;stroke:#000000;stroke-width:1;stroke-linecap:butt;stroke-linejoin:miter;stroke-miterlimit:4;stroke-opacity:1;stroke-dasharray:none;marker-end:url(#Arrow2Lend)" />
    <path
       d="m 340.31042,1011.7761 20.9692,0"
       id="path3912"
       style="fill:none;stroke:#000000;stroke-width:1;stroke-linecap:butt;stroke-linejoin:miter;stroke-miterlimit:4;stroke-opacity:1;stroke-dasharray:none;marker-end:url(#Arrow2Lend)" />
    <path
       d="m 406.10968,1011.7761 20.95977,0"
       id="path3914"
       style="fill:none;stroke:#000000;stroke-width:1;stroke-linecap:butt;stroke-linejoin:miter;stroke-miterlimit:4;stroke-opacity:1;stroke-dasharray:none;marker-end:url(#Arrow2Lend)" />
    <path
       d="m 530.03831,1011.7761 20.95978,0"
       id="path3916"
       style="fill:none;stroke:#000000;stroke-width:1;stroke-linecap:butt;stroke-linejoin:miter;stroke-miterlimit:4;stroke-opacity:1;stroke-dasharray:none;marker-end:url(#Arrow2Lend)" />
  </g>
</svg>
