<?xml version="1.0" encoding="UTF-8" standalone="no"?>
<!-- Created with Inkscape (http://www.inkscape.org/) -->

<svg
   xmlns:dc="http://purl.org/dc/elements/1.1/"
   xmlns:cc="http://creativecommons.org/ns#"
   xmlns:rdf="http://www.w3.org/1999/02/22-rdf-syntax-ns#"
   xmlns:svg="http://www.w3.org/2000/svg"
   xmlns="http://www.w3.org/2000/svg"
   version="1.2"
   width="600"
   height="80"
   id="svg2">
  <defs
     id="defs4">
    <marker
       refX="0"
       refY="0"
       orient="auto"
       id="Arrow2Lend"
       style="overflow:visible">
      <path
         d="M 8.7185878,4.0337352 -2.2072895,0.01601326 8.7185884,-4.0017078 c -1.7454984,2.3720609 -1.7354408,5.6174519 -6e-7,8.035443 z"
         transform="matrix(-1.1,0,0,-1.1,-1.1,0)"
         id="path3942"
         style="font-size:12px;fill-rule:evenodd;stroke-width:0.625;stroke-linejoin:round" />
    </marker>
  </defs>
  <metadata
     id="metadata7">
    <rdf:RDF>
      <cc:Work
         rdf:about="">
        <dc:format>image/svg+xml</dc:format>
        <dc:type
           rdf:resource="http://purl.org/dc/dcmitype/StillImage" />
        <dc:title></dc:title>
      </cc:Work>
    </rdf:RDF>
  </metadata>
  <g
     transform="translate(0,-972.36218)"
     id="layer1"
     style="display:none">
    <path
       d="m 91.923882,49.219429 a 32.526913,18.031223 0 1 1 -65.053826,0 32.526913,18.031223 0 1 1 65.053826,0 z"
       transform="matrix(0.88,0,0,0.88,-18.974176,968.46297)"
       id="path3888"
       style="fill:none;stroke:#000000;stroke-width:1.13636363;stroke-linecap:round;stroke-miterlimit:4;stroke-opacity:1;stroke-dasharray:none" />
    <path
       d="m 91.923882,49.219429 a 32.526913,18.031223 0 1 1 -65.053826,0 32.526913,18.031223 0 1 1 65.053826,0 z"
       transform="matrix(1.2492368,0,0,0.88,49.311557,968.46297)"
       id="path3890"
       style="fill:none;stroke:#000000;stroke-width:0.95375383;stroke-linecap:round;stroke-miterlimit:4;stroke-opacity:1;stroke-dasharray:none" />
    <path
       d="m 91.923882,49.219429 a 32.526913,18.031223 0 1 1 -65.053826,0 32.526913,18.031223 0 1 1 65.053826,0 z"
       transform="matrix(0.94157759,0,0,1.3812297,253.75695,943.79273)"
       id="path3892"
       style="fill:none;stroke:#000000;stroke-width:0.87687761;stroke-linecap:round;stroke-miterlimit:4;stroke-opacity:1;stroke-dasharray:none" />
    <path
       d="m 91.923882,49.219429 a 32.526913,18.031223 0 1 1 -65.053826,0 32.526913,18.031223 0 1 1 65.053826,0 z"
       transform="matrix(0.68912259,0,0,0.88,342.76286,968.46297)"
       id="path3894"
       style="fill:none;stroke:#000000;stroke-width:1.28413427;stroke-linecap:round;stroke-miterlimit:4;stroke-opacity:1;stroke-dasharray:none" />
    <path
       d="m 91.923882,49.219429 a 32.526913,18.031223 0 1 1 -65.053826,0 32.526913,18.031223 0 1 1 65.053826,0 z"
       transform="matrix(0.68912259,0,0,0.88,532.48133,968.46297)"
       id="path3896"
       style="fill:none;stroke:#000000;stroke-width:1.28413427;stroke-linecap:round;stroke-miterlimit:4;stroke-opacity:1;stroke-dasharray:none" />
    <path
       d="m 91.923882,49.219429 a 32.526913,18.031223 0 1 1 -65.053826,0 32.526913,18.031223 0 1 1 65.053826,0 z"
       transform="matrix(1.1226538,0,0,1.8428407,154.91478,921.0725)"
       id="path3898"
       style="fill:none;stroke:#000000;stroke-width:0.69523746;stroke-linecap:round;stroke-miterlimit:4;stroke-opacity:1;stroke-dasharray:none" />
    <path
       d="m 91.923882,49.219429 a 32.526913,18.031223 0 1 1 -65.053826,0 32.526913,18.031223 0 1 1 65.053826,0 z"
       transform="matrix(1.5828257,0,0,1.5176879,384.53883,937.07634)"
       id="path3900"
       style="fill:none;stroke:#000000;stroke-width:0.6451968;stroke-linecap:round;stroke-miterlimit:4;stroke-opacity:1;stroke-dasharray:none" />
    <flowRoot
       transform="matrix(0.88,0,0,0.88,349.28032,982.77168)"
       id="flowRoot3050"
       xml:space="preserve"
       style="font-size:40px;font-style:normal;font-weight:normal;line-height:125%;letter-spacing:0px;word-spacing:0px;fill:#000000;fill-opacity:1;stroke:none;font-family:Sans"><flowRegion
         id="flowRegion3052"><rect
           width="38.68882"
           height="21.11219"
           x="24.243662"
           y="23.207998"
           id="rect3054" /></flowRegion><flowPara
         id="flowPara3056"
         style="font-size:14px;font-style:normal;font-variant:normal;font-weight:normal;font-stretch:normal;text-align:start;line-height:125%;writing-mode:lr-tb;text-anchor:start;font-family:Roboto Condensed;-inkscape-font-specification:'Roboto Condensed,'">HDFS</flowPara></flowRoot>    <flowRoot
       transform="translate(0,552.36218)"
       id="flowRoot3060"
       xml:space="preserve"
       style="font-size:40px;font-style:normal;font-weight:normal;line-height:125%;letter-spacing:0px;word-spacing:0px;fill:#000000;fill-opacity:1;stroke:none;font-family:Sans"><flowRegion
         id="flowRegion3062"><rect
           width="132.93608"
           height="58.689861"
           x="310.41989"
           y="316.15225"
           id="rect3064" /></flowRegion><flowPara
         id="flowPara3066">MapReduce with Morphline Mapper MapReduce with Morphline Mapper MapReduce with Morphline Mapper MapReduce with Morphline Mapper MapReduce with Morphline Mapper </flowPara></flowRoot>    <flowRoot
       transform="matrix(0.88,0,0,0.88,256.71939,756.16825)"
       id="flowRoot3068"
       xml:space="preserve"
       style="font-size:40px;font-style:normal;font-weight:normal;line-height:125%;letter-spacing:0px;word-spacing:0px;fill:#000000;fill-opacity:1;stroke:none;font-family:Sans"><flowRegion
         id="flowRegion3070"><rect
           width="98.994934"
           height="38.183769"
           x="202.93965"
           y="270.8974"
           id="rect3072" /></flowRegion><flowPara
         id="flowPara3074"
         style="font-size:14px;font-style:normal;font-variant:normal;font-weight:normal;font-stretch:normal;text-align:center;line-height:125%;writing-mode:lr-tb;text-anchor:middle;font-family:Roboto Condensed;-inkscape-font-specification:'Roboto Condensed,'">MapReduce with Morphline Mapper</flowPara></flowRoot>    <flowRoot
       transform="matrix(0.88,0,0,0.88,-5.7695994,982.77168)"
       id="flowRoot3076"
       xml:space="preserve"
       style="font-size:40px;font-style:normal;font-weight:normal;line-height:125%;letter-spacing:0px;word-spacing:0px;fill:#000000;fill-opacity:1;stroke:none;font-family:Sans"><flowRegion
         id="flowRegion3078"><rect
           width="47.174122"
           height="23.940615"
           x="24.243662"
           y="23.207998"
           id="rect3080" /></flowRegion><flowPara
         id="flowPara3082"
         style="font-size:14px;font-style:normal;font-variant:normal;font-weight:normal;font-stretch:normal;text-align:start;line-height:125%;writing-mode:lr-tb;text-anchor:start;font-family:Roboto Condensed;-inkscape-font-specification:'Roboto Condensed,'">Sources</flowPara></flowRoot>    <flowRoot
       transform="matrix(0.88,0,0,0.88,71.957211,983.02133)"
       id="flowRoot3084"
       xml:space="preserve"
       style="font-size:40px;font-style:normal;font-weight:normal;line-height:125%;letter-spacing:0px;word-spacing:0px;fill:#000000;fill-opacity:1;stroke:none;font-family:Sans"><flowRegion
         id="flowRegion3086"><rect
           width="74.044182"
           height="20.405081"
           x="24.243662"
           y="23.207998"
           id="rect3088" /></flowRegion><flowPara
         id="flowPara3090"
         style="font-size:14px;font-style:normal;font-variant:normal;font-weight:normal;font-stretch:normal;text-align:start;line-height:125%;writing-mode:lr-tb;text-anchor:start;font-family:Roboto Condensed;-inkscape-font-specification:'Roboto Condensed,'">Flume Source</flowPara></flowRoot>    <flowRoot
       transform="matrix(0.88,0,0,0.88,148.10622,965.94632)"
       id="flowRoot3092"
       xml:space="preserve"
       style="font-size:40px;font-style:normal;font-weight:normal;text-align:center;line-height:125%;letter-spacing:0px;word-spacing:0px;text-anchor:middle;fill:#000000;fill-opacity:1;stroke:none;font-family:Sans"><flowRegion
         id="flowRegion3094"><rect
           width="119.47578"
           height="59.826286"
           x="24.243662"
           y="23.207998"
           id="rect3096"
           style="text-align:center;text-anchor:middle" /></flowRegion><flowPara
         id="flowPara3098"
         style="font-size:14px;font-style:normal;font-variant:normal;font-weight:normal;font-stretch:normal;text-align:center;line-height:125%;writing-mode:lr-tb;text-anchor:middle;font-family:Roboto Condensed;-inkscape-font-specification:'Roboto Condensed,'">Flume </flowPara><flowPara
         id="flowPara3100"
         style="font-size:14px;font-style:normal;font-variant:normal;font-weight:normal;font-stretch:normal;text-align:center;line-height:125%;writing-mode:lr-tb;text-anchor:middle;font-family:Roboto Condensed;-inkscape-font-specification:'Roboto Condensed,'">Morphline-</flowPara><flowPara
         id="flowPara4362"
         style="font-size:14px;font-style:normal;font-variant:normal;font-weight:normal;font-stretch:normal;text-align:center;line-height:125%;writing-mode:lr-tb;text-anchor:middle;font-family:Roboto Condensed;-inkscape-font-specification:'Roboto Condensed,'">Interceptor</flowPara></flowRoot>    <flowRoot
       transform="matrix(0.88,0,0,0.88,262.06515,974.08411)"
       id="flowRoot3102"
       xml:space="preserve"
       style="font-size:40px;font-style:normal;font-weight:normal;text-align:center;line-height:125%;letter-spacing:0px;word-spacing:0px;text-anchor:middle;fill:#000000;fill-opacity:1;stroke:none;font-family:Sans"><flowRegion
         id="flowRegion3104"><rect
           width="57.780704"
           height="37.905979"
           x="24.243662"
           y="23.207998"
           id="rect3106"
           style="text-align:center;text-anchor:middle" /></flowRegion><flowPara
         id="flowPara3108"
         style="font-size:14px;font-style:normal;font-variant:normal;font-weight:normal;font-stretch:normal;text-align:center;line-height:125%;writing-mode:lr-tb;text-anchor:middle;font-family:Roboto Condensed;-inkscape-font-specification:'Roboto Condensed,'">Flume </flowPara><flowPara
         id="flowPara4364"
         style="font-size:14px;font-style:normal;font-variant:normal;font-weight:normal;font-stretch:normal;text-align:center;line-height:125%;writing-mode:lr-tb;text-anchor:middle;font-family:Roboto Condensed;-inkscape-font-specification:'Roboto Condensed,'">HdfsSink</flowPara></flowRoot>    <flowRoot
       transform="matrix(0.88,0,0,0.88,539.90132,982.77168)"
       id="flowRoot3110"
       xml:space="preserve"
       style="font-size:40px;font-style:normal;font-weight:normal;line-height:125%;letter-spacing:0px;word-spacing:0px;fill:#000000;fill-opacity:1;stroke:none;font-family:Sans"><flowRegion
         id="flowRegion3112"><rect
           width="38.68882"
           height="21.11219"
           x="24.243662"
           y="23.207998"
           id="rect3114" /></flowRegion><flowPara
         id="flowPara3116"
         style="font-size:14px;font-style:normal;font-variant:normal;font-weight:normal;font-stretch:normal;text-align:start;line-height:125%;writing-mode:lr-tb;text-anchor:start;font-family:Roboto Condensed;-inkscape-font-specification:'Roboto Condensed,'">HDFS</flowPara></flowRoot>    <path
       d="m 61.91884,1011.7761 20.95978,0"
       id="path3904"
       style="fill:none;stroke:#000000;stroke-width:1;stroke-linecap:butt;stroke-linejoin:miter;stroke-miterlimit:4;stroke-opacity:1;stroke-dasharray:none;marker-end:url(#Arrow2Lend)" />
    <path
       d="m 164.14625,1011.7761 20.9343,0"
       id="path3906"
       style="fill:none;stroke:#000000;stroke-width:1;stroke-linecap:butt;stroke-linejoin:miter;stroke-miterlimit:4;stroke-opacity:1;stroke-dasharray:none;marker-end:url(#Arrow2Lend)" />
    <path
       d="m 258.11347,1011.7761 20.94372,0"
       id="path3910"
       style="fill:none;stroke:#000000;stroke-width:1;stroke-linecap:butt;stroke-linejoin:miter;stroke-miterlimit:4;stroke-opacity:1;stroke-dasharray:none;marker-end:url(#Arrow2Lend)" />
    <path
       d="m 340.31042,1011.7761 20.9692,0"
       id="path3912"
       style="fill:none;stroke:#000000;stroke-width:1;stroke-linecap:butt;stroke-linejoin:miter;stroke-miterlimit:4;stroke-opacity:1;stroke-dasharray:none;marker-end:url(#Arrow2Lend)" />
    <path
       d="m 406.10968,1011.7761 20.95977,0"
       id="path3914"
       style="fill:none;stroke:#000000;stroke-width:1;stroke-linecap:butt;stroke-linejoin:miter;stroke-miterlimit:4;stroke-opacity:1;stroke-dasharray:none;marker-end:url(#Arrow2Lend)" />
    <path
       d="m 530.03831,1011.7761 20.95978,0"
       id="path3916"
       style="fill:none;stroke:#000000;stroke-width:1;stroke-linecap:butt;stroke-linejoin:miter;stroke-miterlimit:4;stroke-opacity:1;stroke-dasharray:none;marker-end:url(#Arrow2Lend)" />
  </g>
  <g
     id="layer2">
    <path
       d="m 91.923882,49.219429 a 32.526913,18.031223 0 1 1 -65.053826,0 32.526913,18.031223 0 1 1 65.053826,0 z"
       transform="matrix(0.88,0,0,0.88,-18.974176,-3.89921)"
       id="path4676"
       style="fill:none;stroke:#000000;stroke-width:1.13636363;stroke-linecap:round;stroke-miterlimit:4;stroke-opacity:1;stroke-dasharray:none" />
    <path
       d="m 91.923882,49.219429 a 32.526913,18.031223 0 1 1 -65.053826,0 32.526913,18.031223 0 1 1 65.053826,0 z"
       transform="matrix(1.2492368,0,0,0.88,49.311557,-3.89921)"
       id="path4678"
       style="fill:none;stroke:#000000;stroke-width:0.95375383;stroke-linecap:round;stroke-miterlimit:4;stroke-opacity:1;stroke-dasharray:none" />
    <path
       d="m 91.923882,49.219429 a 32.526913,18.031223 0 1 1 -65.053826,0 32.526913,18.031223 0 1 1 65.053826,0 z"
       transform="matrix(0.94157759,0,0,1.3812297,253.75695,-28.56945)"
       id="path4680"
       style="fill:none;stroke:#000000;stroke-width:0.87687761;stroke-linecap:round;stroke-miterlimit:4;stroke-opacity:1;stroke-dasharray:none" />
    <path
       d="m 91.923882,49.219429 a 32.526913,18.031223 0 1 1 -65.053826,0 32.526913,18.031223 0 1 1 65.053826,0 z"
       transform="matrix(0.68912259,0,0,0.88,342.76286,-3.89921)"
       id="path4682"
       style="fill:none;stroke:#000000;stroke-width:1.28413427;stroke-linecap:round;stroke-miterlimit:4;stroke-opacity:1;stroke-dasharray:none" />
    <path
       d="m 91.923882,49.219429 a 32.526913,18.031223 0 1 1 -65.053826,0 32.526913,18.031223 0 1 1 65.053826,0 z"
       transform="matrix(1.1226538,0,0,1.8428407,154.91478,-51.28968)"
       id="path4686"
       style="fill:none;stroke:#000000;stroke-width:0.69523746;stroke-linecap:round;stroke-miterlimit:4;stroke-opacity:1;stroke-dasharray:none" />
    <g
       transform="matrix(0.88,0,0,0.88,349.28032,10.4095)"
       id="flowRoot4690"
       style="font-size:40px;font-style:normal;font-weight:normal;line-height:125%;letter-spacing:0px;word-spacing:0px;fill:#000000;fill-opacity:1;stroke:none;font-family:Sans">
      <path
         d="m 31.46875,37.072917 -1.374023,0 0,-4.388672 -3.53418,0 0,4.388672 -1.374024,0 0,-9.953125 1.374024,0 0,4.504882 3.53418,0 0,-4.504882 1.374023,0 0,9.953125"
         id="path5104"
         style="font-size:14px;font-variant:normal;font-stretch:normal;text-align:start;writing-mode:lr-tb;text-anchor:start;font-family:Roboto Condensed;-inkscape-font-specification:'Roboto Condensed,'" />
      <path
         d="m 33.362305,37.072917 0,-9.953125 2.37207,0 c 1.184891,10e-6 2.084956,0.337249 2.700195,1.011718 0.615228,0.674488 0.922845,1.702156 0.922852,3.083008 l 0,1.777344 c -7e-6,1.389977 -0.309903,2.417645 -0.929688,3.083008 -0.619797,0.665365 -1.53809,0.998047 -2.754882,0.998047 l -2.310547,0 m 1.374023,-8.886719 0,7.833984 0.888672,0 c 0.865881,1e-6 1.476558,-0.239256 1.832031,-0.717773 0.355464,-0.483071 0.533198,-1.253252 0.533203,-2.310547 l 0,-1.791016 c -5e-6,-1.061842 -0.175461,-1.829745 -0.526367,-2.303711 -0.350916,-0.473949 -0.941085,-0.710928 -1.770508,-0.710937 l -0.957031,0"
         id="path5106"
         style="font-size:14px;font-variant:normal;font-stretch:normal;text-align:start;writing-mode:lr-tb;text-anchor:start;font-family:Roboto Condensed;-inkscape-font-specification:'Roboto Condensed,'" />
      <path
         d="m 45.913086,32.650065 -3.46582,0 0,4.422852 -1.374024,0 0,-9.953125 5.393555,0 0,1.066406 -4.019531,0 0,3.404297 3.46582,0 0,1.05957"
         id="path5108"
         style="font-size:14px;font-variant:normal;font-stretch:normal;text-align:start;writing-mode:lr-tb;text-anchor:start;font-family:Roboto Condensed;-inkscape-font-specification:'Roboto Condensed,'" />
      <path
         d="m 52.044922,34.570964 c -5e-6,-0.478513 -0.120773,-0.863604 -0.362305,-1.155274 -0.236984,-0.29622 -0.667647,-0.560543 -1.291992,-0.792969 -0.920576,-0.291662 -1.617841,-0.66308 -2.091797,-1.114257 -0.473959,-0.455724 -0.710938,-1.070957 -0.710937,-1.845704 -10e-7,-0.802075 0.264321,-1.449209 0.792968,-1.941406 0.528644,-0.496735 1.225909,-0.745107 2.091797,-0.745117 0.893225,10e-6 1.60644,0.287119 2.139649,0.861328 0.533196,0.574228 0.799798,1.292 0.799804,2.15332 l -1.374023,0 c -5e-6,-0.59244 -0.134445,-1.066398 -0.40332,-1.421875 -0.268885,-0.355459 -0.660812,-0.533194 -1.175782,-0.533203 -0.487633,9e-6 -0.859052,0.1504 -1.114257,0.451172 -0.255211,0.296232 -0.382815,0.683602 -0.382813,1.16211 -2e-6,0.432949 0.136717,0.790696 0.410156,1.073242 0.277992,0.282558 0.745114,0.544602 1.401367,0.786133 0.88411,0.287114 1.544917,0.669926 1.982422,1.148437 0.437494,0.473962 0.656244,1.107425 0.65625,1.900391 -6e-6,0.833986 -0.26205,1.485678 -0.786132,1.955078 -0.524094,0.469401 -1.230474,0.704101 -2.119141,0.704101 -0.865888,0 -1.611005,-0.259765 -2.235352,-0.779297 -0.624349,-0.524087 -0.936524,-1.282875 -0.936523,-2.276367 l 1.374023,0 c -2e-6,0.701825 0.161782,1.212242 0.485352,1.53125 0.323565,0.319012 0.761064,0.478517 1.3125,0.478516 0.496741,1e-6 0.877274,-0.141275 1.141601,-0.423828 0.264318,-0.282551 0.39648,-0.674477 0.396485,-1.175781"
         id="path5110"
         style="font-size:14px;font-variant:normal;font-stretch:normal;text-align:start;writing-mode:lr-tb;text-anchor:start;font-family:Roboto Condensed;-inkscape-font-specification:'Roboto Condensed,'" />
    </g>
    <g
       transform="matrix(0.88,0,0,0.88,-5.7695994,10.4095)"
       id="flowRoot4706"
       style="font-size:40px;font-style:normal;font-weight:normal;line-height:125%;letter-spacing:0px;word-spacing:0px;fill:#000000;fill-opacity:1;stroke:none;font-family:Sans">
      <path
         d="m 29.486328,34.570964 c -5e-6,-0.478513 -0.120773,-0.863604 -0.362305,-1.155274 -0.236983,-0.29622 -0.667647,-0.560543 -1.291992,-0.792969 -0.920575,-0.291662 -1.61784,-0.66308 -2.091797,-1.114257 -0.473959,-0.455724 -0.710938,-1.070957 -0.710937,-1.845704 -1e-6,-0.802075 0.264322,-1.449209 0.792969,-1.941406 0.528643,-0.496735 1.225908,-0.745107 2.091796,-0.745117 0.893225,10e-6 1.606441,0.287119 2.139649,0.861328 0.533197,0.574228 0.799798,1.292 0.799805,2.15332 l -1.374024,0 c -5e-6,-0.59244 -0.134445,-1.066398 -0.40332,-1.421875 -0.268885,-0.355459 -0.660812,-0.533194 -1.175781,-0.533203 -0.487634,9e-6 -0.859053,0.1504 -1.114258,0.451172 -0.255211,0.296232 -0.382815,0.683602 -0.382813,1.16211 -2e-6,0.432949 0.136717,0.790696 0.410157,1.073242 0.277992,0.282558 0.745113,0.544602 1.401367,0.786133 0.884109,0.287114 1.544916,0.669926 1.982422,1.148437 0.437493,0.473962 0.656243,1.107425 0.65625,1.900391 -7e-6,0.833986 -0.262051,1.485678 -0.786133,1.955078 -0.524094,0.469401 -1.230474,0.704101 -2.119141,0.704101 -0.865888,0 -1.611005,-0.259765 -2.235351,-0.779297 -0.62435,-0.524087 -0.936524,-1.282875 -0.936524,-2.276367 l 1.374024,0 c -2e-6,0.701825 0.161781,1.212242 0.485351,1.53125 0.323565,0.319012 0.761065,0.478517 1.3125,0.478516 0.496741,1e-6 0.877274,-0.141275 1.141602,-0.423828 0.264318,-0.282551 0.396479,-0.674477 0.396484,-1.175781"
         id="path5216"
         style="font-size:14px;font-variant:normal;font-stretch:normal;text-align:start;writing-mode:lr-tb;text-anchor:start;font-family:Roboto Condensed;-inkscape-font-specification:'Roboto Condensed,'" />
      <path
         d="m 31.913086,32.909831 c -1e-6,-1.002599 0.239257,-1.813796 0.717773,-2.433594 0.478514,-0.624342 1.150714,-0.936516 2.016602,-0.936523 0.870439,7e-6 1.544917,0.312181 2.023437,0.936523 0.47851,0.619798 0.717768,1.430995 0.717774,2.433594 l 0,0.943359 c -6e-6,1.011721 -0.239264,1.825197 -0.717774,2.44043 -0.473963,0.610677 -1.143884,0.916015 -2.009765,0.916015 -0.875003,0 -1.55176,-0.307617 -2.030274,-0.922851 -0.478516,-0.615233 -0.717774,-1.42643 -0.717773,-2.433594 l 0,-0.943359 m 1.374023,0.943359 c -2e-6,0.692711 0.109373,1.250979 0.328125,1.674805 0.218748,0.423829 0.56738,0.635743 1.045899,0.635742 0.46484,1e-6 0.806636,-0.211913 1.02539,-0.635742 0.223303,-0.428384 0.334957,-0.986651 0.334961,-1.674805 l 0,-0.943359 c -4e-6,-0.683589 -0.111658,-1.2373 -0.334961,-1.661133 -0.223311,-0.428379 -0.569665,-0.642572 -1.039062,-0.642578 -0.473961,6e-6 -0.820315,0.214199 -1.039063,0.642578 -0.214194,0.423833 -0.321291,0.977544 -0.321289,1.661133 l 0,0.943359"
         id="path5218"
         style="font-size:14px;font-variant:normal;font-stretch:normal;text-align:start;writing-mode:lr-tb;text-anchor:start;font-family:Roboto Condensed;-inkscape-font-specification:'Roboto Condensed,'" />
      <path
         d="m 42.392578,36.129557 -0.01367,0 c -0.186853,0.350912 -0.421553,0.619792 -0.704101,0.806641 -0.282556,0.182292 -0.610681,0.273437 -0.984375,0.273437 -0.647138,0 -1.146161,-0.250651 -1.497071,-0.751953 -0.350912,-0.505858 -0.526368,-1.310219 -0.526367,-2.413086 l 0,-4.368164 1.367188,0 0,4.381836 c -2e-6,0.774742 0.07975,1.314781 0.239257,1.620117 0.159503,0.30534 0.410154,0.458009 0.751954,0.458008 0.319007,1e-6 0.583329,-0.07519 0.792968,-0.225586 0.209632,-0.154946 0.378251,-0.378253 0.50586,-0.669922 l 0,-5.564453 1.367187,0 0,7.396485 -1.209961,0 -0.08887,-0.94336"
         id="path5220"
         style="font-size:14px;font-variant:normal;font-stretch:normal;text-align:start;writing-mode:lr-tb;text-anchor:start;font-family:Roboto Condensed;-inkscape-font-specification:'Roboto Condensed,'" />
      <path
         d="m 48.27832,30.845378 -0.635742,-0.03418 c -0.259768,6e-6 -0.473961,0.08204 -0.642578,0.246094 -0.168622,0.159511 -0.300783,0.391932 -0.396484,0.697265 l 0,5.31836 -1.374024,0 0,-7.396485 1.257813,0 0.08887,1.032227 0.02051,0 c 0.145831,-0.369134 0.330401,-0.656243 0.553711,-0.861328 0.227861,-0.205071 0.496741,-0.30761 0.80664,-0.307617 0.08658,7e-6 0.173174,0.0091 0.259766,0.02734 0.09114,0.01368 0.166337,0.03191 0.225586,0.05469 l -0.164063,1.223633"
         id="path5222"
         style="font-size:14px;font-variant:normal;font-stretch:normal;text-align:start;writing-mode:lr-tb;text-anchor:start;font-family:Roboto Condensed;-inkscape-font-specification:'Roboto Condensed,'" />
      <path
         d="m 51.723633,36.163737 c 0.328121,1e-6 0.608394,-0.13216 0.84082,-0.396484 0.232418,-0.264322 0.339514,-0.626626 0.321289,-1.086914 l 1.285156,0 c 0.01822,0.729168 -0.214198,1.333008 -0.697265,1.811523 -0.483078,0.478516 -1.059574,0.717773 -1.729492,0.717773 -0.897789,0 -1.574546,-0.305338 -2.030274,-0.916015 -0.45573,-0.615233 -0.683594,-1.415037 -0.683594,-2.399414 l 0,-1.018555 c 0,-0.98437 0.227864,-1.786452 0.683594,-2.40625 0.460285,-0.619784 1.134763,-0.92968 2.023438,-0.929687 0.742834,7e-6 1.33756,0.248379 1.784179,0.745117 0.446609,0.492194 0.663081,1.159836 0.649414,2.002929 l -1.285156,0 c 0.01367,-0.510411 -0.08659,-0.918288 -0.300781,-1.223632 -0.209639,-0.305333 -0.496748,-0.458002 -0.861328,-0.458008 -0.501305,6e-6 -0.847659,0.209641 -1.039063,0.628906 -0.186851,0.414719 -0.280275,0.961593 -0.280273,1.640625 l 0,1.018555 c -2e-6,0.692711 0.09342,1.244142 0.280273,1.654297 0.186847,0.410157 0.533201,0.615235 1.039063,0.615234"
         id="path5224"
         style="font-size:14px;font-variant:normal;font-stretch:normal;text-align:start;writing-mode:lr-tb;text-anchor:start;font-family:Roboto Condensed;-inkscape-font-specification:'Roboto Condensed,'" />
      <path
         d="m 57.862305,37.209635 c -0.833987,0 -1.494794,-0.298502 -1.982422,-0.895507 -0.487631,-0.601562 -0.731446,-1.387694 -0.731446,-2.358399 l 0,-1.080078 c 0,-0.98437 0.241536,-1.786452 0.72461,-2.40625 0.483071,-0.619784 1.111977,-0.92968 1.886719,-0.929687 0.820308,7e-6 1.442378,0.282559 1.866211,0.847656 0.423822,0.560553 0.635736,1.333013 0.635742,2.317383 l 0,0.957031 -3.739258,0 0,0.293945 c -2e-6,0.656253 0.118487,1.189455 0.355469,1.59961 0.236976,0.4056 0.594723,0.608399 1.073242,0.608398 0.437496,1e-6 0.786129,-0.06152 1.045898,-0.18457 0.264319,-0.123046 0.492183,-0.298502 0.683594,-0.526368 l 0.389648,0.888672 c -0.223312,0.268881 -0.521814,0.480795 -0.895507,0.635743 -0.369145,0.154947 -0.806645,0.232421 -1.3125,0.232421 M 57.759766,30.60612 c -0.373701,6e-6 -0.667646,0.191412 -0.881836,0.574219 -0.214195,0.382818 -0.332685,0.879562 -0.355469,1.490234 l 2.385742,0 0,-0.280274 c -4e-6,-0.533197 -0.09571,-0.963861 -0.287109,-1.291992 -0.186853,-0.328118 -0.473962,-0.492181 -0.861328,-0.492187"
         id="path5226"
         style="font-size:14px;font-variant:normal;font-stretch:normal;text-align:start;writing-mode:lr-tb;text-anchor:start;font-family:Roboto Condensed;-inkscape-font-specification:'Roboto Condensed,'" />
      <path
         d="m 64.759766,35.220378 c -4e-6,-0.291665 -0.08659,-0.533201 -0.259766,-0.72461 -0.168623,-0.195961 -0.501305,-0.41471 -0.998047,-0.65625 -0.738283,-0.300777 -1.2806,-0.612952 -1.626953,-0.936523 -0.341798,-0.328121 -0.512696,-0.76562 -0.512695,-1.3125 -10e-7,-0.57877 0.211913,-1.064121 0.635742,-1.456055 0.423826,-0.396477 0.991209,-0.594719 1.702148,-0.594726 0.738278,7e-6 1.321611,0.2142 1.75,0.642578 0.428381,0.428392 0.642573,0.979823 0.642578,1.654297 l -1.367187,0 c -4e-6,-0.360021 -0.08887,-0.66308 -0.266602,-0.90918 -0.177738,-0.250645 -0.430667,-0.37597 -0.758789,-0.375977 -0.32357,7e-6 -0.571942,0.09799 -0.745117,0.293946 -0.173179,0.191412 -0.259767,0.421555 -0.259766,0.690429 -1e-6,0.287115 0.07292,0.510422 0.21875,0.669922 0.150389,0.15951 0.485349,0.373703 1.004883,0.642578 0.751949,0.282556 1.303381,0.597009 1.654297,0.94336 0.350906,0.341799 0.526362,0.79525 0.526367,1.360351 -5e-6,0.62435 -0.218755,1.123373 -0.65625,1.497071 -0.432947,0.373698 -1.018558,0.560546 -1.756836,0.560546 -0.797528,0 -1.417319,-0.227864 -1.859375,-0.683593 -0.442058,-0.460286 -0.663086,-1.016275 -0.663086,-1.667969 l 1.326172,0 c 0.01367,0.487632 0.13216,0.836264 0.355469,1.045898 0.227862,0.205079 0.514971,0.307618 0.861328,0.307618 0.337237,0 0.597002,-0.09114 0.779297,-0.273438 0.182288,-0.18229 0.273434,-0.421548 0.273438,-0.717773"
         id="path5228"
         style="font-size:14px;font-variant:normal;font-stretch:normal;text-align:start;writing-mode:lr-tb;text-anchor:start;font-family:Roboto Condensed;-inkscape-font-specification:'Roboto Condensed,'" />
    </g>
    <g
       transform="matrix(0.88,0,0,0.88,71.957211,10.65915)"
       id="flowRoot4714"
       style="font-size:40px;font-style:normal;font-weight:normal;line-height:125%;letter-spacing:0px;word-spacing:0px;fill:#000000;fill-opacity:1;stroke:none;font-family:Sans">
      <path
         d="m 30.026367,32.650065 -3.46582,0 0,4.422852 -1.374024,0 0,-9.953125 5.393555,0 0,1.066406 -4.019531,0 0,3.404297 3.46582,0 0,1.05957"
         id="path5193"
         style="font-size:14px;font-variant:normal;font-stretch:normal;text-align:start;writing-mode:lr-tb;text-anchor:start;font-family:Roboto Condensed;-inkscape-font-specification:'Roboto Condensed,'" />
      <path
         d="m 33.150391,37.072917 -1.367188,0 0,-10.664063 1.367188,0 0,10.664063"
         id="path5195"
         style="font-size:14px;font-variant:normal;font-stretch:normal;text-align:start;writing-mode:lr-tb;text-anchor:start;font-family:Roboto Condensed;-inkscape-font-specification:'Roboto Condensed,'" />
      <path
         d="m 38.482422,36.129557 -0.01367,0 c -0.186853,0.350912 -0.421554,0.619792 -0.704102,0.806641 -0.282555,0.182292 -0.61068,0.273437 -0.984375,0.273437 -0.647137,0 -1.14616,-0.250651 -1.49707,-0.751953 -0.350912,-0.505858 -0.526368,-1.310219 -0.526367,-2.413086 l 0,-4.368164 1.367187,0 0,4.381836 c -2e-6,0.774742 0.07975,1.314781 0.239258,1.620117 0.159503,0.30534 0.410154,0.458009 0.751953,0.458008 0.319007,1e-6 0.58333,-0.07519 0.792969,-0.225586 0.209631,-0.154946 0.378251,-0.378253 0.505859,-0.669922 l 0,-5.564453 1.367188,0 0,7.396485 -1.209961,0 -0.08887,-0.94336"
         id="path5197"
         style="font-size:14px;font-variant:normal;font-stretch:normal;text-align:start;writing-mode:lr-tb;text-anchor:start;font-family:Roboto Condensed;-inkscape-font-specification:'Roboto Condensed,'" />
      <path
         d="m 42.570312,29.676432 0.0752,0.90918 0.02051,0.0068 c 0.186846,-0.337233 0.421547,-0.596998 0.704101,-0.779297 0.287106,-0.182284 0.628903,-0.27343 1.025391,-0.273437 0.382808,7e-6 0.708654,0.104825 0.977539,0.314453 0.273432,0.205085 0.483067,0.526374 0.628906,0.963867 0.186843,-0.405592 0.42838,-0.720045 0.724609,-0.94336 0.296218,-0.223299 0.651686,-0.334953 1.066407,-0.33496 0.606112,7e-6 1.077791,0.248379 1.415039,0.745117 0.341788,0.496751 0.512686,1.27149 0.512695,2.324218 l 0,4.463868 -1.374023,0 0,-4.470703 c -8e-6,-0.747391 -0.08432,-1.264643 -0.25293,-1.551758 -0.168627,-0.287103 -0.423835,-0.430658 -0.765625,-0.430664 -0.287116,0.0046 -0.526373,0.113938 -0.717773,0.328125 -0.186855,0.214198 -0.328131,0.499029 -0.423829,0.854492 0.0046,0.08659 0.0091,0.173182 0.01367,0.259765 0.0046,0.08659 0.0068,0.175461 0.0068,0.266602 l 0,4.744141 -1.374023,0 0,-4.504883 c -4e-6,-0.710932 -0.08431,-1.212234 -0.25293,-1.503906 -0.168624,-0.296218 -0.42611,-0.44433 -0.772461,-0.444336 -0.264326,6e-6 -0.487633,0.0752 -0.669922,0.225586 -0.177736,0.150396 -0.325848,0.36231 -0.444336,0.635742 l 0,5.591797 -1.374023,0 0,-7.396485 1.250976,0"
         id="path5199"
         style="font-size:14px;font-variant:normal;font-stretch:normal;text-align:start;writing-mode:lr-tb;text-anchor:start;font-family:Roboto Condensed;-inkscape-font-specification:'Roboto Condensed,'" />
      <path
         d="m 53.706055,37.209635 c -0.833987,0 -1.494794,-0.298502 -1.982422,-0.895507 -0.487631,-0.601562 -0.731446,-1.387694 -0.731446,-2.358399 l 0,-1.080078 c 0,-0.98437 0.241536,-1.786452 0.72461,-2.40625 0.483071,-0.619784 1.111977,-0.92968 1.886719,-0.929687 0.820308,7e-6 1.442378,0.282559 1.866211,0.847656 0.423822,0.560553 0.635736,1.333013 0.635742,2.317383 l 0,0.957031 -3.739258,0 0,0.293945 c -2e-6,0.656253 0.118487,1.189455 0.355469,1.59961 0.236976,0.4056 0.594723,0.608399 1.073242,0.608398 0.437496,1e-6 0.786129,-0.06152 1.045898,-0.18457 0.264319,-0.123046 0.492183,-0.298502 0.683594,-0.526368 l 0.389648,0.888672 c -0.223312,0.268881 -0.521814,0.480795 -0.895507,0.635743 -0.369145,0.154947 -0.806645,0.232421 -1.3125,0.232421 M 53.603516,30.60612 c -0.373701,6e-6 -0.667646,0.191412 -0.881836,0.574219 -0.214195,0.382818 -0.332685,0.879562 -0.355469,1.490234 l 2.385742,0 0,-0.280274 c -4e-6,-0.533197 -0.09571,-0.963861 -0.287109,-1.291992 -0.186853,-0.328118 -0.473962,-0.492181 -0.861328,-0.492187"
         id="path5201"
         style="font-size:14px;font-variant:normal;font-stretch:normal;text-align:start;writing-mode:lr-tb;text-anchor:start;font-family:Roboto Condensed;-inkscape-font-specification:'Roboto Condensed,'" />
      <path
         d="m 64.759766,34.570964 c -6e-6,-0.478513 -0.120774,-0.863604 -0.362305,-1.155274 -0.236984,-0.29622 -0.667647,-0.560543 -1.291992,-0.792969 -0.920576,-0.291662 -1.617841,-0.66308 -2.091797,-1.114257 -0.473959,-0.455724 -0.710938,-1.070957 -0.710938,-1.845704 0,-0.802075 0.264322,-1.449209 0.792969,-1.941406 0.528644,-0.496735 1.225909,-0.745107 2.091797,-0.745117 0.893225,10e-6 1.60644,0.287119 2.139648,0.861328 0.533197,0.574228 0.799799,1.292 0.799805,2.15332 l -1.374023,0 c -6e-6,-0.59244 -0.134446,-1.066398 -0.403321,-1.421875 -0.268884,-0.355459 -0.660811,-0.533194 -1.175781,-0.533203 -0.487633,9e-6 -0.859052,0.1504 -1.114258,0.451172 -0.25521,0.296232 -0.382814,0.683602 -0.382812,1.16211 -2e-6,0.432949 0.136716,0.790696 0.410156,1.073242 0.277992,0.282558 0.745114,0.544602 1.401367,0.786133 0.88411,0.287114 1.544917,0.669926 1.982422,1.148437 0.437494,0.473962 0.656244,1.107425 0.65625,1.900391 -6e-6,0.833986 -0.26205,1.485678 -0.786133,1.955078 -0.524094,0.469401 -1.230473,0.704101 -2.11914,0.704101 -0.865889,0 -1.611005,-0.259765 -2.235352,-0.779297 -0.62435,-0.524087 -0.936524,-1.282875 -0.936523,-2.276367 l 1.374023,0 c -2e-6,0.701825 0.161782,1.212242 0.485352,1.53125 0.323565,0.319012 0.761064,0.478517 1.3125,0.478516 0.49674,1e-6 0.877274,-0.141275 1.141601,-0.423828 0.264318,-0.282551 0.396479,-0.674477 0.396485,-1.175781"
         id="path5203"
         style="font-size:14px;font-variant:normal;font-stretch:normal;text-align:start;writing-mode:lr-tb;text-anchor:start;font-family:Roboto Condensed;-inkscape-font-specification:'Roboto Condensed,'" />
      <path
         d="m 67.186523,32.909831 c 0,-1.002599 0.239257,-1.813796 0.717774,-2.433594 0.478514,-0.624342 1.150714,-0.936516 2.016601,-0.936523 0.870439,7e-6 1.544918,0.312181 2.023438,0.936523 0.47851,0.619798 0.717767,1.430995 0.717773,2.433594 l 0,0.943359 c -6e-6,1.011721 -0.239263,1.825197 -0.717773,2.44043 -0.473963,0.610677 -1.143884,0.916015 -2.009766,0.916015 -0.875002,0 -1.551759,-0.307617 -2.030273,-0.922851 -0.478517,-0.615233 -0.717774,-1.42643 -0.717774,-2.433594 l 0,-0.943359 m 1.374024,0.943359 c -2e-6,0.692711 0.109373,1.250979 0.328125,1.674805 0.218747,0.423829 0.56738,0.635743 1.045898,0.635742 0.46484,1e-6 0.806637,-0.211913 1.025391,-0.635742 0.223303,-0.428384 0.334956,-0.986651 0.334961,-1.674805 l 0,-0.943359 c -5e-6,-0.683589 -0.111658,-1.2373 -0.334961,-1.661133 -0.223311,-0.428379 -0.569665,-0.642572 -1.039063,-0.642578 -0.473961,6e-6 -0.820315,0.214199 -1.039062,0.642578 -0.214195,0.423833 -0.321291,0.977544 -0.321289,1.661133 l 0,0.943359"
         id="path5205"
         style="font-size:14px;font-variant:normal;font-stretch:normal;text-align:start;writing-mode:lr-tb;text-anchor:start;font-family:Roboto Condensed;-inkscape-font-specification:'Roboto Condensed,'" />
      <path
         d="m 77.666016,36.129557 -0.01367,0 c -0.186853,0.350912 -0.421554,0.619792 -0.704102,0.806641 -0.282555,0.182292 -0.61068,0.273437 -0.984375,0.273437 -0.647137,0 -1.14616,-0.250651 -1.49707,-0.751953 -0.350913,-0.505858 -0.526368,-1.310219 -0.526367,-2.413086 l 0,-4.368164 1.367187,0 0,4.381836 c -2e-6,0.774742 0.07975,1.314781 0.239258,1.620117 0.159503,0.30534 0.410153,0.458009 0.751953,0.458008 0.319007,1e-6 0.58333,-0.07519 0.792969,-0.225586 0.209631,-0.154946 0.378251,-0.378253 0.505859,-0.669922 l 0,-5.564453 1.367188,0 0,7.396485 -1.209961,0 -0.08887,-0.94336"
         id="path5207"
         style="font-size:14px;font-variant:normal;font-stretch:normal;text-align:start;writing-mode:lr-tb;text-anchor:start;font-family:Roboto Condensed;-inkscape-font-specification:'Roboto Condensed,'" />
      <path
         d="m 83.551758,30.845378 -0.635742,-0.03418 c -0.259769,6e-6 -0.473961,0.08204 -0.642579,0.246094 -0.168622,0.159511 -0.300783,0.391932 -0.396484,0.697265 l 0,5.31836 -1.374023,0 0,-7.396485 1.257812,0 0.08887,1.032227 0.02051,0 c 0.145831,-0.369134 0.330401,-0.656243 0.553711,-0.861328 0.227862,-0.205071 0.496742,-0.30761 0.806641,-0.307617 0.08658,7e-6 0.173173,0.0091 0.259765,0.02734 0.09114,0.01368 0.166338,0.03191 0.225586,0.05469 l -0.164062,1.223633"
         id="path5209"
         style="font-size:14px;font-variant:normal;font-stretch:normal;text-align:start;writing-mode:lr-tb;text-anchor:start;font-family:Roboto Condensed;-inkscape-font-specification:'Roboto Condensed,'" />
      <path
         d="m 86.99707,36.163737 c 0.328122,1e-6 0.608395,-0.13216 0.840821,-0.396484 0.232417,-0.264322 0.339513,-0.626626 0.321289,-1.086914 l 1.285156,0 c 0.01822,0.729168 -0.214198,1.333008 -0.697266,1.811523 -0.483077,0.478516 -1.059574,0.717773 -1.729492,0.717773 -0.897789,0 -1.574546,-0.305338 -2.030273,-0.916015 -0.45573,-0.615233 -0.683595,-1.415037 -0.683594,-2.399414 l 0,-1.018555 c -1e-6,-0.98437 0.227864,-1.786452 0.683594,-2.40625 0.460284,-0.619784 1.134763,-0.92968 2.023437,-0.929687 0.742835,7e-6 1.337561,0.248379 1.78418,0.745117 0.446609,0.492194 0.66308,1.159836 0.649414,2.002929 l -1.285156,0 c 0.01367,-0.510411 -0.08659,-0.918288 -0.300782,-1.223632 -0.209639,-0.305333 -0.496748,-0.458002 -0.861328,-0.458008 -0.501304,6e-6 -0.847658,0.209641 -1.039062,0.628906 -0.186851,0.414719 -0.280276,0.961593 -0.280274,1.640625 l 0,1.018555 c -2e-6,0.692711 0.09342,1.244142 0.280274,1.654297 0.186846,0.410157 0.5332,0.615235 1.039062,0.615234"
         id="path5211"
         style="font-size:14px;font-variant:normal;font-stretch:normal;text-align:start;writing-mode:lr-tb;text-anchor:start;font-family:Roboto Condensed;-inkscape-font-specification:'Roboto Condensed,'" />
      <path
         d="m 93.135742,37.209635 c -0.833987,0 -1.494793,-0.298502 -1.982422,-0.895507 -0.487631,-0.601562 -0.731446,-1.387694 -0.731445,-2.358399 l 0,-1.080078 c -10e-7,-0.98437 0.241536,-1.786452 0.724609,-2.40625 0.483072,-0.619784 1.111977,-0.92968 1.886719,-0.929687 0.820309,7e-6 1.442378,0.282559 1.866211,0.847656 0.423823,0.560553 0.635737,1.333013 0.635742,2.317383 l 0,0.957031 -3.739258,0 0,0.293945 c -10e-7,0.656253 0.118488,1.189455 0.355469,1.59961 0.236977,0.4056 0.594724,0.608399 1.073242,0.608398 0.437497,1e-6 0.786129,-0.06152 1.045899,-0.18457 0.264318,-0.123046 0.492182,-0.298502 0.683594,-0.526368 l 0.389648,0.888672 c -0.223313,0.268881 -0.521815,0.480795 -0.895508,0.635743 -0.369145,0.154947 -0.806644,0.232421 -1.3125,0.232421 M 93.033203,30.60612 c -0.373701,6e-6 -0.667646,0.191412 -0.881836,0.574219 -0.214195,0.382818 -0.332684,0.879562 -0.355469,1.490234 l 2.385743,0 0,-0.280274 c -5e-6,-0.533197 -0.09571,-0.963861 -0.28711,-1.291992 -0.186853,-0.328118 -0.473962,-0.492181 -0.861328,-0.492187"
         id="path5213"
         style="font-size:14px;font-variant:normal;font-stretch:normal;text-align:start;writing-mode:lr-tb;text-anchor:start;font-family:Roboto Condensed;-inkscape-font-specification:'Roboto Condensed,'" />
    </g>
    <g
       transform="matrix(0.88,0,0,0.88,148.10622,-6.41586)"
       id="flowRoot4722"
       style="font-size:40px;font-style:normal;font-weight:normal;text-align:center;line-height:125%;letter-spacing:0px;word-spacing:0px;text-anchor:middle;fill:#000000;fill-opacity:1;stroke:none;font-family:Sans">
      <path
         d="m 73.600586,32.650065 -3.46582,0 0,4.422852 -1.374024,0 0,-9.953125 5.393555,0 0,1.066406 -4.019531,0 0,3.404297 3.46582,0 0,1.05957"
         id="path5140"
         style="font-size:14px;font-variant:normal;font-stretch:normal;writing-mode:lr-tb;font-family:Roboto Condensed;-inkscape-font-specification:'Roboto Condensed,'" />
      <path
         d="m 76.724609,37.072917 -1.367187,0 0,-10.664063 1.367187,0 0,10.664063"
         id="path5142"
         style="font-size:14px;font-variant:normal;font-stretch:normal;writing-mode:lr-tb;font-family:Roboto Condensed;-inkscape-font-specification:'Roboto Condensed,'" />
      <path
         d="m 82.056641,36.129557 -0.01367,0 c -0.186853,0.350912 -0.421554,0.619792 -0.704102,0.806641 -0.282555,0.182292 -0.61068,0.273437 -0.984375,0.273437 -0.647137,0 -1.14616,-0.250651 -1.49707,-0.751953 -0.350913,-0.505858 -0.526368,-1.310219 -0.526367,-2.413086 l 0,-4.368164 1.367187,0 0,4.381836 c -2e-6,0.774742 0.07975,1.314781 0.239258,1.620117 0.159503,0.30534 0.410153,0.458009 0.751953,0.458008 0.319007,1e-6 0.58333,-0.07519 0.792969,-0.225586 0.209631,-0.154946 0.378251,-0.378253 0.505859,-0.669922 l 0,-5.564453 1.367188,0 0,7.396485 -1.209961,0 -0.08887,-0.94336"
         id="path5144"
         style="font-size:14px;font-variant:normal;font-stretch:normal;writing-mode:lr-tb;font-family:Roboto Condensed;-inkscape-font-specification:'Roboto Condensed,'" />
      <path
         d="m 86.144531,29.676432 0.0752,0.90918 0.02051,0.0068 c 0.186847,-0.337233 0.421547,-0.596998 0.704102,-0.779297 0.287106,-0.182284 0.628903,-0.27343 1.025391,-0.273437 0.382808,7e-6 0.708654,0.104825 0.977539,0.314453 0.273432,0.205085 0.483067,0.526374 0.628906,0.963867 0.186843,-0.405592 0.428379,-0.720045 0.724609,-0.94336 0.296218,-0.223299 0.651686,-0.334953 1.066406,-0.33496 0.606112,7e-6 1.077792,0.248379 1.41504,0.745117 0.341787,0.496751 0.512686,1.27149 0.512695,2.324218 l 0,4.463868 -1.374024,0 0,-4.470703 c -7e-6,-0.747391 -0.08432,-1.264643 -0.252929,-1.551758 -0.168627,-0.287103 -0.423835,-0.430658 -0.765625,-0.430664 -0.287116,0.0046 -0.526374,0.113938 -0.717774,0.328125 -0.186855,0.214198 -0.32813,0.499029 -0.423828,0.854492 0.0046,0.08659 0.0091,0.173182 0.01367,0.259765 0.0046,0.08659 0.0068,0.175461 0.0068,0.266602 l 0,4.744141 -1.374023,0 0,-4.504883 c -5e-6,-0.710932 -0.08432,-1.212234 -0.25293,-1.503906 -0.168624,-0.296218 -0.426111,-0.44433 -0.772461,-0.444336 -0.264326,6e-6 -0.487633,0.0752 -0.669922,0.225586 -0.177737,0.150396 -0.325849,0.36231 -0.444336,0.635742 l 0,5.591797 -1.374023,0 0,-7.396485 1.250976,0"
         id="path5146"
         style="font-size:14px;font-variant:normal;font-stretch:normal;writing-mode:lr-tb;font-family:Roboto Condensed;-inkscape-font-specification:'Roboto Condensed,'" />
      <path
         d="m 97.280273,37.209635 c -0.833986,0 -1.494793,-0.298502 -1.982421,-0.895507 -0.487631,-0.601562 -0.731446,-1.387694 -0.731446,-2.358399 l 0,-1.080078 c 0,-0.98437 0.241536,-1.786452 0.72461,-2.40625 0.483071,-0.619784 1.111976,-0.92968 1.886718,-0.929687 0.820309,7e-6 1.442379,0.282559 1.866211,0.847656 0.423823,0.560553 0.635737,1.333013 0.635742,2.317383 l 0,0.957031 -3.739257,0 0,0.293945 c -2e-6,0.656253 0.118487,1.189455 0.355468,1.59961 0.236977,0.4056 0.594724,0.608399 1.073243,0.608398 0.437496,1e-6 0.786128,-0.06152 1.045898,-0.18457 0.264318,-0.123046 0.492183,-0.298502 0.683594,-0.526368 l 0.389648,0.888672 c -0.223312,0.268881 -0.521815,0.480795 -0.895508,0.635743 -0.369144,0.154947 -0.806644,0.232421 -1.3125,0.232421 M 97.177734,30.60612 c -0.3737,6e-6 -0.667645,0.191412 -0.881836,0.574219 -0.214194,0.382818 -0.332684,0.879562 -0.355468,1.490234 l 2.385742,0 0,-0.280274 c -4e-6,-0.533197 -0.09571,-0.963861 -0.28711,-1.291992 -0.186852,-0.328118 -0.473961,-0.492181 -0.861328,-0.492187"
         id="path5148"
         style="font-size:14px;font-variant:normal;font-stretch:normal;writing-mode:lr-tb;font-family:Roboto Condensed;-inkscape-font-specification:'Roboto Condensed,'" />
      <path
         d="m 58.486328,44.619792 2.173828,8.148437 0.02051,0 2.173828,-8.148437 1.770508,0 0,9.953125 -1.360352,0 0,-3.821289 0.129883,-3.793946 -0.02051,-0.0068 -2.249023,7.622071 -0.90918,0 -2.242187,-7.622071 -0.02051,0.0068 0.129883,3.793946 0,3.821289 -1.360352,0 0,-9.953125 1.763672,0"
         id="path5150"
         style="font-size:14px;font-variant:normal;font-stretch:normal;writing-mode:lr-tb;font-family:Roboto Condensed;-inkscape-font-specification:'Roboto Condensed,'" />
      <path
         d="m 66.053711,50.409831 c -1e-6,-1.002599 0.239257,-1.813796 0.717773,-2.433594 0.478514,-0.624342 1.150714,-0.936516 2.016602,-0.936523 0.870439,7e-6 1.544917,0.312181 2.023437,0.936523 0.47851,0.619798 0.717768,1.430995 0.717774,2.433594 l 0,0.943359 c -6e-6,1.011721 -0.239264,1.825197 -0.717774,2.44043 -0.473963,0.610677 -1.143884,0.916015 -2.009765,0.916015 -0.875003,0 -1.55176,-0.307617 -2.030274,-0.922851 -0.478516,-0.615233 -0.717774,-1.42643 -0.717773,-2.433594 l 0,-0.943359 m 1.374023,0.943359 c -2e-6,0.692711 0.109373,1.250979 0.328125,1.674805 0.218748,0.423829 0.56738,0.635743 1.045899,0.635742 0.46484,1e-6 0.806636,-0.211913 1.02539,-0.635742 0.223303,-0.428384 0.334957,-0.986651 0.334961,-1.674805 l 0,-0.943359 c -4e-6,-0.683589 -0.111658,-1.2373 -0.334961,-1.661133 -0.223311,-0.428379 -0.569665,-0.642572 -1.039062,-0.642578 -0.473961,6e-6 -0.820315,0.214199 -1.039063,0.642578 -0.214194,0.423833 -0.321291,0.977544 -0.321289,1.661133 l 0,0.943359"
         id="path5152"
         style="font-size:14px;font-variant:normal;font-stretch:normal;writing-mode:lr-tb;font-family:Roboto Condensed;-inkscape-font-specification:'Roboto Condensed,'" />
      <path
         d="m 75.883789,48.345378 -0.635742,-0.03418 c -0.259769,6e-6 -0.473961,0.08204 -0.642578,0.246094 -0.168622,0.159511 -0.300784,0.391932 -0.396485,0.697265 l 0,5.31836 -1.374023,0 0,-7.396485 1.257812,0 0.08887,1.032227 0.02051,0 c 0.145831,-0.369134 0.330402,-0.656243 0.553711,-0.861328 0.227862,-0.205071 0.496742,-0.30761 0.806641,-0.307617 0.08658,7e-6 0.173173,0.0091 0.259766,0.02734 0.09114,0.01368 0.166337,0.03191 0.225586,0.05469 l -0.164063,1.223633"
         id="path5154"
         style="font-size:14px;font-variant:normal;font-stretch:normal;writing-mode:lr-tb;font-family:Roboto Condensed;-inkscape-font-specification:'Roboto Condensed,'" />
      <path
         d="m 82.248047,51.489909 c -6e-6,0.993492 -0.200527,1.779624 -0.601563,2.358398 -0.396489,0.574219 -0.96615,0.861328 -1.708984,0.861328 -0.3418,0 -0.638024,-0.06608 -0.888672,-0.198242 -0.250653,-0.136718 -0.464846,-0.33496 -0.642578,-0.594726 l -0.02051,0.0068 0,3.493164 -1.367187,0 0,-10.240235 1.230468,0 0.0752,0.786133 0.01367,0.0068 c 0.182289,-0.300774 0.403317,-0.530917 0.663086,-0.69043 0.259762,-0.159497 0.569658,-0.23925 0.929687,-0.239257 0.747391,7e-6 1.319331,0.319017 1.71582,0.957031 0.401036,0.633469 0.601557,1.494797 0.601563,2.583984 l 0,0.90918 m -1.367188,-0.90918 c -4e-6,-0.742834 -0.109379,-1.33756 -0.328125,-1.78418 -0.214196,-0.451165 -0.549157,-0.676751 -1.004882,-0.676757 -0.282556,6e-6 -0.517256,0.08204 -0.704102,0.246093 -0.186851,0.164069 -0.33952,0.394212 -0.458008,0.69043 l 0,3.75293 c 0.11393,0.277996 0.264321,0.48991 0.451172,0.635742 0.191404,0.145834 0.43294,0.218751 0.724609,0.21875 0.455726,10e-7 0.788408,-0.195962 0.998047,-0.587891 0.214188,-0.391925 0.321285,-0.92057 0.321289,-1.585937 l 0,-0.90918"
         id="path5156"
         style="font-size:14px;font-variant:normal;font-stretch:normal;writing-mode:lr-tb;font-family:Roboto Condensed;-inkscape-font-specification:'Roboto Condensed,'" />
      <path
         d="m 84.907227,48.051432 0.02051,0.0068 c 0.191404,-0.319003 0.423826,-0.567376 0.697266,-0.745117 0.277992,-0.182284 0.590166,-0.27343 0.936523,-0.273437 0.642574,7e-6 1.13704,0.241543 1.483399,0.724609 0.346348,0.478522 0.519525,1.239589 0.519531,2.283203 l 0,4.525391 -1.367187,0 0,-4.539063 c -5e-6,-0.69726 -0.09115,-1.189447 -0.273438,-1.476562 -0.177738,-0.291661 -0.455733,-0.437494 -0.833984,-0.4375 -0.255212,6e-6 -0.483076,0.07748 -0.683594,0.232422 -0.195966,0.150396 -0.362307,0.36231 -0.499023,0.635742 l 0,5.584961 -1.374024,0 0,-10.664063 1.374024,0 0,4.142578"
         id="path5158"
         style="font-size:14px;font-variant:normal;font-stretch:normal;writing-mode:lr-tb;font-family:Roboto Condensed;-inkscape-font-specification:'Roboto Condensed,'" />
      <path
         d="m 91.544922,54.572917 -1.367188,0 0,-10.664063 1.367188,0 0,10.664063"
         id="path5160"
         style="font-size:14px;font-variant:normal;font-stretch:normal;writing-mode:lr-tb;font-family:Roboto Condensed;-inkscape-font-specification:'Roboto Condensed,'" />
      <path
         d="m 94.634766,54.572917 -1.367188,0 0,-7.396485 1.367188,0 0,7.396485 m 0,-9.337891 -1.367188,0 0,-1.326172 1.367188,0 0,1.326172"
         id="path5162"
         style="font-size:14px;font-variant:normal;font-stretch:normal;writing-mode:lr-tb;font-family:Roboto Condensed;-inkscape-font-specification:'Roboto Condensed,'" />
      <path
         d="m 97.512695,47.176432 0.0752,0.998047 0.02051,0 c 0.186847,-0.360019 0.423826,-0.638014 0.710938,-0.833984 0.291663,-0.200514 0.624345,-0.300774 0.998047,-0.300781 0.628902,7e-6 1.11198,0.232429 1.44922,0.697265 0.34179,0.460293 0.51269,1.198574 0.5127,2.214844 l 0,4.621094 -1.37403,0 0,-4.607422 c -4e-6,-0.688146 -0.08887,-1.166661 -0.266601,-1.435547 -0.173181,-0.273431 -0.451176,-0.41015 -0.833985,-0.410156 -0.259768,6e-6 -0.487633,0.08204 -0.683593,0.246093 -0.195966,0.164069 -0.360029,0.391933 -0.492188,0.683594 l 0,5.523438 -1.374023,0 0,-7.396485 1.257812,0"
         id="path5164"
         style="font-size:14px;font-variant:normal;font-stretch:normal;writing-mode:lr-tb;font-family:Roboto Condensed;-inkscape-font-specification:'Roboto Condensed,'" />
      <path
         d="m 105.31934,54.709635 c -0.83399,0 -1.4948,-0.298502 -1.98243,-0.895507 -0.48763,-0.601562 -0.73144,-1.387694 -0.73144,-2.358399 l 0,-1.080078 c 0,-0.98437 0.24153,-1.786452 0.72461,-2.40625 0.48307,-0.619784 1.11197,-0.92968 1.88672,-0.929687 0.82031,7e-6 1.44238,0.282559 1.86621,0.847656 0.42382,0.560553 0.63573,1.333013 0.63574,2.317383 l 0,0.957031 -3.73926,0 0,0.293945 c 0,0.656253 0.11849,1.189455 0.35547,1.59961 0.23698,0.4056 0.59472,0.608399 1.07324,0.608398 0.4375,1e-6 0.78613,-0.06152 1.0459,-0.18457 0.26432,-0.123046 0.49218,-0.298502 0.6836,-0.526368 l 0.38964,0.888672 c -0.22331,0.268881 -0.52181,0.480795 -0.8955,0.635743 -0.36915,0.154947 -0.80665,0.232421 -1.3125,0.232421 M 105.2168,48.10612 c -0.3737,6e-6 -0.66765,0.191412 -0.88184,0.574219 -0.21419,0.382818 -0.33268,0.879562 -0.35547,1.490234 l 2.38574,0 0,-0.280274 c 0,-0.533197 -0.0957,-0.963861 -0.2871,-1.291992 -0.18686,-0.328118 -0.47397,-0.492181 -0.86133,-0.492187"
         id="path5166"
         style="font-size:14px;font-variant:normal;font-stretch:normal;writing-mode:lr-tb;font-family:Roboto Condensed;-inkscape-font-specification:'Roboto Condensed,'" />
      <path
         d="m 111.6084,50.799479 -2.91895,0 0,-1.052734 2.91895,0 0,1.052734"
         id="path5168"
         style="font-size:14px;font-variant:normal;font-stretch:normal;writing-mode:lr-tb;font-family:Roboto Condensed;-inkscape-font-specification:'Roboto Condensed,'" />
      <path
         d="m 57.789062,72.072917 -1.374023,0 0,-9.953125 1.374023,0 0,9.953125"
         id="path5170"
         style="font-size:14px;font-variant:normal;font-stretch:normal;writing-mode:lr-tb;font-family:Roboto Condensed;-inkscape-font-specification:'Roboto Condensed,'" />
      <path
         d="m 60.803711,64.676432 0.0752,0.998047 0.02051,0 c 0.186847,-0.360019 0.423826,-0.638014 0.710938,-0.833984 0.291663,-0.200514 0.624345,-0.300774 0.998046,-0.300781 0.628902,7e-6 1.111975,0.232429 1.449219,0.697265 0.341791,0.460293 0.51269,1.198574 0.512695,2.214844 l 0,4.621094 -1.374023,0 0,-4.607422 c -4e-6,-0.688146 -0.08887,-1.166661 -0.266602,-1.435547 -0.173181,-0.273431 -0.451175,-0.41015 -0.833984,-0.410156 -0.259769,6e-6 -0.487633,0.08204 -0.683594,0.246093 -0.195966,0.164069 -0.360028,0.391933 -0.492187,0.683594 l 0,5.523438 -1.374024,0 0,-7.396485 1.257813,0"
         id="path5172"
         style="font-size:14px;font-variant:normal;font-stretch:normal;writing-mode:lr-tb;font-family:Roboto Condensed;-inkscape-font-specification:'Roboto Condensed,'" />
      <path
         d="m 67.755859,62.837565 0,1.838867 1.066407,0 0,0.991211 -1.066407,0 0,4.402344 c -2e-6,0.391929 0.04557,0.665366 0.136719,0.820312 0.09114,0.154949 0.21419,0.232423 0.369141,0.232422 0.09114,10e-7 0.175452,-0.0068 0.252929,-0.02051 0.07747,-0.01367 0.154945,-0.0319 0.232422,-0.05469 l 0.143555,0.950195 c -0.12305,0.0638 -0.271162,0.113933 -0.444336,0.150391 -0.168623,0.04102 -0.344078,0.06152 -0.526367,0.06152 -0.496747,0 -0.87728,-0.166341 -1.141602,-0.499023 -0.264324,-0.337239 -0.396485,-0.884113 -0.396484,-1.640625 l 0,-4.402344 -0.813477,0 0,-0.991211 0.813477,0 0,-1.838867 1.374023,0"
         id="path5174"
         style="font-size:14px;font-variant:normal;font-stretch:normal;writing-mode:lr-tb;font-family:Roboto Condensed;-inkscape-font-specification:'Roboto Condensed,'" />
      <path
         d="m 72.46582,72.209635 c -0.833986,0 -1.494793,-0.298502 -1.982422,-0.895507 -0.487631,-0.601562 -0.731445,-1.387694 -0.731445,-2.358399 l 0,-1.080078 c 0,-0.98437 0.241536,-1.786452 0.724609,-2.40625 0.483072,-0.619784 1.111977,-0.92968 1.886719,-0.929687 0.820309,7e-6 1.442378,0.282559 1.866211,0.847656 0.423823,0.560553 0.635737,1.333013 0.635742,2.317383 l 0,0.957031 -3.739257,0 0,0.293945 c -2e-6,0.656253 0.118487,1.189455 0.355468,1.59961 0.236977,0.4056 0.594724,0.608399 1.073242,0.608398 0.437497,10e-7 0.786129,-0.06152 1.045899,-0.18457 0.264318,-0.123046 0.492183,-0.298502 0.683594,-0.526368 l 0.389648,0.888672 c -0.223312,0.268881 -0.521815,0.480795 -0.895508,0.635743 -0.369145,0.154947 -0.806644,0.232421 -1.3125,0.232421 M 72.363281,65.60612 c -0.3737,6e-6 -0.667645,0.191412 -0.881836,0.574219 -0.214194,0.382818 -0.332684,0.879562 -0.355468,1.490234 l 2.385742,0 0,-0.280274 c -5e-6,-0.533197 -0.09571,-0.963861 -0.28711,-1.291992 -0.186852,-0.328118 -0.473962,-0.492181 -0.861328,-0.492187"
         id="path5176"
         style="font-size:14px;font-variant:normal;font-stretch:normal;writing-mode:lr-tb;font-family:Roboto Condensed;-inkscape-font-specification:'Roboto Condensed,'" />
      <path
         d="m 79.151367,65.845378 -0.635742,-0.03418 c -0.259769,6e-6 -0.473961,0.08204 -0.642578,0.246094 -0.168622,0.159511 -0.300784,0.391932 -0.396485,0.697265 l 0,5.31836 -1.374023,0 0,-7.396485 1.257813,0 0.08887,1.032227 0.02051,0 c 0.145831,-0.369134 0.330401,-0.656243 0.55371,-0.861328 0.227862,-0.205071 0.496742,-0.30761 0.806641,-0.307617 0.08658,7e-6 0.173174,0.0091 0.259766,0.02734 0.09114,0.01368 0.166337,0.03191 0.225586,0.05469 l -0.164063,1.223633"
         id="path5178"
         style="font-size:14px;font-variant:normal;font-stretch:normal;writing-mode:lr-tb;font-family:Roboto Condensed;-inkscape-font-specification:'Roboto Condensed,'" />
      <path
         d="m 82.59668,71.163737 c 0.328121,10e-7 0.608394,-0.13216 0.84082,-0.396484 0.232418,-0.264322 0.339514,-0.626626 0.321289,-1.086914 l 1.285156,0 c 0.01822,0.729168 -0.214198,1.333008 -0.697265,1.811523 -0.483078,0.478516 -1.059575,0.717773 -1.729493,0.717773 -0.897788,0 -1.574545,-0.305338 -2.030273,-0.916015 -0.45573,-0.615233 -0.683594,-1.415037 -0.683594,-2.399414 l 0,-1.018555 c 0,-0.98437 0.227864,-1.786452 0.683594,-2.40625 0.460285,-0.619784 1.134763,-0.92968 2.023438,-0.929687 0.742834,7e-6 1.33756,0.248379 1.784179,0.745117 0.446609,0.492194 0.663081,1.159836 0.649414,2.002929 l -1.285156,0 c 0.01367,-0.510411 -0.08659,-0.918288 -0.300781,-1.223632 -0.209639,-0.305333 -0.496749,-0.458002 -0.861328,-0.458008 -0.501305,6e-6 -0.847659,0.209641 -1.039063,0.628906 -0.186851,0.414719 -0.280275,0.961593 -0.280273,1.640625 l 0,1.018555 c -2e-6,0.692711 0.09342,1.244142 0.280273,1.654297 0.186847,0.410157 0.533201,0.615235 1.039063,0.615234"
         id="path5180"
         style="font-size:14px;font-variant:normal;font-stretch:normal;writing-mode:lr-tb;font-family:Roboto Condensed;-inkscape-font-specification:'Roboto Condensed,'" />
      <path
         d="m 88.735352,72.209635 c -0.833987,0 -1.494794,-0.298502 -1.982422,-0.895507 -0.487631,-0.601562 -0.731446,-1.387694 -0.731446,-2.358399 l 0,-1.080078 c 0,-0.98437 0.241536,-1.786452 0.72461,-2.40625 0.483071,-0.619784 1.111977,-0.92968 1.886718,-0.929687 0.820309,7e-6 1.442379,0.282559 1.866211,0.847656 0.423823,0.560553 0.635737,1.333013 0.635743,2.317383 l 0,0.957031 -3.739258,0 0,0.293945 c -2e-6,0.656253 0.118487,1.189455 0.355469,1.59961 0.236976,0.4056 0.594723,0.608399 1.073242,0.608398 0.437496,10e-7 0.786128,-0.06152 1.045898,-0.18457 0.264318,-0.123046 0.492183,-0.298502 0.683594,-0.526368 l 0.389648,0.888672 c -0.223312,0.268881 -0.521814,0.480795 -0.895507,0.635743 -0.369145,0.154947 -0.806645,0.232421 -1.3125,0.232421 m -0.10254,-6.603515 c -0.3737,6e-6 -0.667645,0.191412 -0.881835,0.574219 -0.214195,0.382818 -0.332685,0.879562 -0.355469,1.490234 l 2.385742,0 0,-0.280274 c -4e-6,-0.533197 -0.09571,-0.963861 -0.287109,-1.291992 -0.186853,-0.328118 -0.473962,-0.492181 -0.861329,-0.492187"
         id="path5182"
         style="font-size:14px;font-variant:normal;font-stretch:normal;writing-mode:lr-tb;font-family:Roboto Condensed;-inkscape-font-specification:'Roboto Condensed,'" />
      <path
         d="m 97.601562,68.989909 c -6e-6,0.993492 -0.200526,1.779624 -0.601562,2.358398 -0.396489,0.574219 -0.96615,0.861328 -1.708984,0.861328 -0.341801,0 -0.638024,-0.06608 -0.888672,-0.198242 -0.250654,-0.136718 -0.464846,-0.33496 -0.642578,-0.594726 l -0.02051,0.0068 0,3.493164 -1.367188,0 0,-10.240235 1.230469,0 0.0752,0.786133 0.01367,0.0068 c 0.18229,-0.300774 0.403318,-0.530917 0.663086,-0.69043 0.259763,-0.159497 0.569658,-0.23925 0.929688,-0.239257 0.747391,7e-6 1.319331,0.319017 1.71582,0.957031 0.401036,0.633469 0.601556,1.494797 0.601562,2.583984 l 0,0.90918 m -1.367187,-0.90918 c -5e-6,-0.742834 -0.10938,-1.33756 -0.328125,-1.78418 -0.214197,-0.451165 -0.549157,-0.676751 -1.004883,-0.676757 -0.282555,6e-6 -0.517255,0.08204 -0.704101,0.246093 -0.186852,0.164069 -0.339521,0.394212 -0.458008,0.69043 l 0,3.75293 c 0.11393,0.277996 0.26432,0.48991 0.451172,0.635742 0.191403,0.145834 0.432939,0.218751 0.724609,0.21875 0.455725,1e-6 0.788407,-0.195962 0.998047,-0.587891 0.214188,-0.391925 0.321284,-0.92057 0.321289,-1.585937 l 0,-0.90918"
         id="path5184"
         style="font-size:14px;font-variant:normal;font-stretch:normal;writing-mode:lr-tb;font-family:Roboto Condensed;-inkscape-font-specification:'Roboto Condensed,'" />
      <path
         d="m 100.54102,62.837565 0,1.838867 1.0664,0 0,0.991211 -1.0664,0 0,4.402344 c -1e-5,0.391929 0.0456,0.665366 0.13671,0.820312 0.0911,0.154949 0.21419,0.232423 0.36915,0.232422 0.0911,10e-7 0.17545,-0.0068 0.25292,-0.02051 0.0775,-0.01367 0.15495,-0.0319 0.23243,-0.05469 l 0.14355,0.950195 c -0.12305,0.0638 -0.27116,0.113933 -0.44433,0.150391 -0.16863,0.04102 -0.34408,0.06152 -0.52637,0.06152 -0.49675,0 -0.877282,-0.166341 -1.141603,-0.499023 -0.264325,-0.337239 -0.396486,-0.884113 -0.396485,-1.640625 l 0,-4.402344 -0.813476,0 0,-0.991211 0.813476,0 0,-1.838867 1.374028,0"
         id="path5186"
         style="font-size:14px;font-variant:normal;font-stretch:normal;writing-mode:lr-tb;font-family:Roboto Condensed;-inkscape-font-specification:'Roboto Condensed,'" />
      <path
         d="m 102.37988,67.909831 c 0,-1.002599 0.23926,-1.813796 0.71778,-2.433594 0.47851,-0.624342 1.15071,-0.936516 2.0166,-0.936523 0.87044,7e-6 1.54491,0.312181 2.02344,0.936523 0.47851,0.619798 0.71776,1.430995 0.71777,2.433594 l 0,0.943359 c -1e-5,1.011721 -0.23926,1.825197 -0.71777,2.44043 -0.47397,0.610677 -1.14389,0.916015 -2.00977,0.916015 -0.875,0 -1.55176,-0.307617 -2.03027,-0.922851 -0.47852,-0.615233 -0.71778,-1.42643 -0.71778,-2.433594 l 0,-0.943359 m 1.37403,0.943359 c -1e-5,0.692711 0.10937,1.250979 0.32812,1.674805 0.21875,0.423829 0.56738,0.635743 1.0459,0.635742 0.46484,10e-7 0.80664,-0.211913 1.02539,-0.635742 0.2233,-0.428384 0.33496,-0.986651 0.33496,-1.674805 l 0,-0.943359 c 0,-0.683589 -0.11166,-1.2373 -0.33496,-1.661133 -0.22331,-0.428379 -0.56966,-0.642572 -1.03906,-0.642578 -0.47396,6e-6 -0.82032,0.214199 -1.03906,0.642578 -0.2142,0.423833 -0.3213,0.977544 -0.32129,1.661133 l 0,0.943359"
         id="path5188"
         style="font-size:14px;font-variant:normal;font-stretch:normal;writing-mode:lr-tb;font-family:Roboto Condensed;-inkscape-font-specification:'Roboto Condensed,'" />
      <path
         d="m 112.20996,65.845378 -0.63574,-0.03418 c -0.25977,6e-6 -0.47396,0.08204 -0.64258,0.246094 -0.16862,0.159511 -0.30078,0.391932 -0.39648,0.697265 l 0,5.31836 -1.37403,0 0,-7.396485 1.25782,0 0.0889,1.032227 0.0205,0 c 0.14583,-0.369134 0.3304,-0.656243 0.55371,-0.861328 0.22786,-0.205071 0.49674,-0.30761 0.80664,-0.307617 0.0866,7e-6 0.17318,0.0091 0.25977,0.02734 0.0911,0.01368 0.16633,0.03191 0.22558,0.05469 l -0.16406,1.223633"
         id="path5190"
         style="font-size:14px;font-variant:normal;font-stretch:normal;writing-mode:lr-tb;font-family:Roboto Condensed;-inkscape-font-specification:'Roboto Condensed,'" />
    </g>
    <g
       transform="matrix(0.88,0,0,0.88,262.06515,1.72193)"
       id="flowRoot4734"
       style="font-size:40px;font-style:normal;font-weight:normal;text-align:center;line-height:125%;letter-spacing:0px;word-spacing:0px;text-anchor:middle;fill:#000000;fill-opacity:1;stroke:none;font-family:Sans">
      <path
         d="m 42.756836,32.650065 -3.46582,0 0,4.422852 -1.374024,0 0,-9.953125 5.393555,0 0,1.066406 -4.019531,0 0,3.404297 3.46582,0 0,1.05957"
         id="path5113"
         style="font-size:14px;font-variant:normal;font-stretch:normal;writing-mode:lr-tb;font-family:Roboto Condensed;-inkscape-font-specification:'Roboto Condensed,'" />
      <path
         d="m 45.880859,37.072917 -1.367187,0 0,-10.664063 1.367187,0 0,10.664063"
         id="path5115"
         style="font-size:14px;font-variant:normal;font-stretch:normal;writing-mode:lr-tb;font-family:Roboto Condensed;-inkscape-font-specification:'Roboto Condensed,'" />
      <path
         d="m 51.212891,36.129557 -0.01367,0 c -0.186853,0.350912 -0.421554,0.619792 -0.704102,0.806641 -0.282555,0.182292 -0.61068,0.273437 -0.984375,0.273437 -0.647137,0 -1.14616,-0.250651 -1.49707,-0.751953 -0.350913,-0.505858 -0.526368,-1.310219 -0.526367,-2.413086 l 0,-4.368164 1.367187,0 0,4.381836 c -2e-6,0.774742 0.07975,1.314781 0.239258,1.620117 0.159503,0.30534 0.410153,0.458009 0.751953,0.458008 0.319007,1e-6 0.58333,-0.07519 0.792969,-0.225586 0.209631,-0.154946 0.378251,-0.378253 0.505859,-0.669922 l 0,-5.564453 1.367188,0 0,7.396485 -1.209961,0 -0.08887,-0.94336"
         id="path5117"
         style="font-size:14px;font-variant:normal;font-stretch:normal;writing-mode:lr-tb;font-family:Roboto Condensed;-inkscape-font-specification:'Roboto Condensed,'" />
      <path
         d="m 55.300781,29.676432 0.0752,0.90918 0.02051,0.0068 c 0.186847,-0.337233 0.421547,-0.596998 0.704102,-0.779297 0.287106,-0.182284 0.628903,-0.27343 1.025391,-0.273437 0.382808,7e-6 0.708654,0.104825 0.977539,0.314453 0.273432,0.205085 0.483067,0.526374 0.628906,0.963867 0.186843,-0.405592 0.428379,-0.720045 0.724609,-0.94336 0.296218,-0.223299 0.651686,-0.334953 1.066406,-0.33496 0.606112,7e-6 1.077792,0.248379 1.41504,0.745117 0.341787,0.496751 0.512686,1.27149 0.512695,2.324218 l 0,4.463868 -1.374024,0 0,-4.470703 c -7e-6,-0.747391 -0.08432,-1.264643 -0.252929,-1.551758 -0.168627,-0.287103 -0.423835,-0.430658 -0.765625,-0.430664 -0.287116,0.0046 -0.526374,0.113938 -0.717774,0.328125 -0.186855,0.214198 -0.32813,0.499029 -0.423828,0.854492 0.0046,0.08659 0.0091,0.173182 0.01367,0.259765 0.0046,0.08659 0.0068,0.175461 0.0068,0.266602 l 0,4.744141 -1.374023,0 0,-4.504883 c -5e-6,-0.710932 -0.08431,-1.212234 -0.25293,-1.503906 -0.168624,-0.296218 -0.426111,-0.44433 -0.772461,-0.444336 -0.264326,6e-6 -0.487633,0.0752 -0.669922,0.225586 -0.177737,0.150396 -0.325849,0.36231 -0.444336,0.635742 l 0,5.591797 -1.374023,0 0,-7.396485 1.250976,0"
         id="path5119"
         style="font-size:14px;font-variant:normal;font-stretch:normal;writing-mode:lr-tb;font-family:Roboto Condensed;-inkscape-font-specification:'Roboto Condensed,'" />
      <path
         d="m 66.436523,37.209635 c -0.833986,0 -1.494793,-0.298502 -1.982421,-0.895507 -0.487631,-0.601562 -0.731446,-1.387694 -0.731446,-2.358399 l 0,-1.080078 c 0,-0.98437 0.241536,-1.786452 0.72461,-2.40625 0.483071,-0.619784 1.111976,-0.92968 1.886718,-0.929687 0.820309,7e-6 1.442379,0.282559 1.866211,0.847656 0.423823,0.560553 0.635737,1.333013 0.635742,2.317383 l 0,0.957031 -3.739257,0 0,0.293945 c -2e-6,0.656253 0.118487,1.189455 0.355468,1.59961 0.236977,0.4056 0.594724,0.608399 1.073243,0.608398 0.437496,1e-6 0.786128,-0.06152 1.045898,-0.18457 0.264318,-0.123046 0.492183,-0.298502 0.683594,-0.526368 l 0.389648,0.888672 c -0.223312,0.268881 -0.521815,0.480795 -0.895508,0.635743 -0.369144,0.154947 -0.806644,0.232421 -1.3125,0.232421 M 66.333984,30.60612 c -0.3737,6e-6 -0.667645,0.191412 -0.881836,0.574219 -0.214194,0.382818 -0.332684,0.879562 -0.355468,1.490234 l 2.385742,0 0,-0.280274 c -4e-6,-0.533197 -0.09571,-0.963861 -0.28711,-1.291992 -0.186852,-0.328118 -0.473961,-0.492181 -0.861328,-0.492187"
         id="path5121"
         style="font-size:14px;font-variant:normal;font-stretch:normal;writing-mode:lr-tb;font-family:Roboto Condensed;-inkscape-font-specification:'Roboto Condensed,'" />
      <path
         d="m 36.570312,54.572917 -1.374023,0 0,-4.388672 -3.53418,0 0,4.388672 -1.374023,0 0,-9.953125 1.374023,0 0,4.504882 3.53418,0 0,-4.504882 1.374023,0 0,9.953125"
         id="path5123"
         style="font-size:14px;font-variant:normal;font-stretch:normal;writing-mode:lr-tb;font-family:Roboto Condensed;-inkscape-font-specification:'Roboto Condensed,'" />
      <path
         d="m 38.053711,50.963542 c -10e-7,-1.207678 0.20052,-2.162429 0.601562,-2.864258 0.401041,-0.706373 0.977537,-1.059563 1.729493,-1.05957 0.323564,7e-6 0.606116,0.07065 0.847656,0.211914 0.24609,0.141283 0.460282,0.346361 0.642578,0.615234 l 0.02051,-0.0068 0,-3.951172 1.374023,0 0,10.664063 -1.196289,0 -0.0957,-0.786133 -0.02051,-0.0068 c -0.186853,0.305339 -0.41016,0.537761 -0.669922,0.697266 -0.259769,0.154947 -0.565107,0.232421 -0.916015,0.232421 -0.747398,0 -1.321616,-0.321288 -1.722657,-0.963867 -0.396485,-0.647134 -0.594727,-1.52669 -0.594726,-2.638672 l 0,-0.143554 m 1.367187,0.143554 c -10e-7,0.792972 0.100259,1.412763 0.300782,1.859375 0.205075,0.446616 0.535479,0.669923 0.991211,0.669922 0.277991,10e-7 0.512691,-0.07519 0.704101,-0.225586 0.191402,-0.154946 0.350907,-0.375975 0.478516,-0.663086 l 0,-3.677734 c -0.127609,-0.300775 -0.287114,-0.533197 -0.478516,-0.697266 -0.19141,-0.168613 -0.421553,-0.252923 -0.69043,-0.252929 -0.455731,6e-6 -0.788413,0.257493 -0.998046,0.772461 -0.20508,0.514979 -0.307619,1.205408 -0.307618,2.071289 l 0,0.143554"
         id="path5125"
         style="font-size:14px;font-variant:normal;font-stretch:normal;writing-mode:lr-tb;font-family:Roboto Condensed;-inkscape-font-specification:'Roboto Condensed,'" />
      <path
         d="m 45.299805,54.572917 0,-6.405274 -0.895508,0 0,-0.991211 0.895508,0 0,-0.950195 c -2e-6,-0.802074 0.177733,-1.412751 0.533203,-1.832031 0.355466,-0.419261 0.865883,-0.628896 1.53125,-0.628907 0.132158,1.1e-5 0.262041,0.01368 0.389648,0.04102 0.132158,0.0228 0.28027,0.05698 0.444336,0.102539 l -0.136719,1.018555 c -0.07292,-0.02278 -0.152673,-0.04101 -0.239257,-0.05469 -0.08659,-0.01366 -0.184574,-0.0205 -0.293946,-0.02051 -0.29167,9e-6 -0.508141,0.11622 -0.649414,0.348632 -0.136721,0.232431 -0.20508,0.574228 -0.205078,1.025391 l 0,0.950195 1.203125,0 0,0.991211 -1.203125,0 0,6.405274 -1.374023,0"
         id="path5127"
         style="font-size:14px;font-variant:normal;font-stretch:normal;writing-mode:lr-tb;font-family:Roboto Condensed;-inkscape-font-specification:'Roboto Condensed,'" />
      <path
         d="m 52.224609,52.720378 c -4e-6,-0.291665 -0.08659,-0.533201 -0.259765,-0.72461 -0.168624,-0.195961 -0.501306,-0.41471 -0.998047,-0.65625 -0.738283,-0.300777 -1.280601,-0.612952 -1.626953,-0.936523 -0.341798,-0.328121 -0.512696,-0.76562 -0.512696,-1.3125 0,-0.57877 0.211914,-1.064121 0.635743,-1.456055 0.423826,-0.396477 0.991208,-0.594719 1.702148,-0.594726 0.738278,7e-6 1.32161,0.2142 1.75,0.642578 0.42838,0.428392 0.642573,0.979823 0.642578,1.654297 l -1.367187,0 c -4e-6,-0.360021 -0.08887,-0.66308 -0.266602,-0.90918 -0.177738,-0.250645 -0.430667,-0.37597 -0.758789,-0.375977 -0.32357,7e-6 -0.571942,0.09799 -0.745117,0.293946 -0.173179,0.191412 -0.259768,0.421555 -0.259766,0.690429 -2e-6,0.287115 0.07292,0.510422 0.21875,0.669922 0.150389,0.15951 0.485349,0.373703 1.004883,0.642578 0.751949,0.282556 1.303381,0.597009 1.654297,0.94336 0.350906,0.341799 0.526362,0.79525 0.526367,1.360351 -5e-6,0.62435 -0.218755,1.123373 -0.65625,1.497071 -0.432947,0.373698 -1.018558,0.560546 -1.756836,0.560546 -0.797528,0 -1.417319,-0.227864 -1.859375,-0.683593 -0.442058,-0.460286 -0.663086,-1.016275 -0.663086,-1.667969 l 1.326172,0 c 0.01367,0.487632 0.13216,0.836264 0.355469,1.045898 0.227862,0.205079 0.514971,0.307618 0.861328,0.307618 0.337236,0 0.597002,-0.09114 0.779297,-0.273438 0.182288,-0.18229 0.273433,-0.421548 0.273437,-0.717773"
         id="path5129"
         style="font-size:14px;font-variant:normal;font-stretch:normal;writing-mode:lr-tb;font-family:Roboto Condensed;-inkscape-font-specification:'Roboto Condensed,'" />
      <path
         d="m 59.306641,52.070964 c -6e-6,-0.478513 -0.120774,-0.863604 -0.362305,-1.155274 -0.236984,-0.29622 -0.667647,-0.560543 -1.291992,-0.792969 -0.920576,-0.291662 -1.617841,-0.66308 -2.091797,-1.114257 -0.473959,-0.455724 -0.710938,-1.070957 -0.710938,-1.845704 0,-0.802075 0.264322,-1.449209 0.792969,-1.941406 0.528644,-0.496735 1.225909,-0.745107 2.091797,-0.745117 0.893225,1e-5 1.60644,0.287119 2.139648,0.861328 0.533197,0.574228 0.799799,1.292 0.799805,2.15332 l -1.374023,0 c -6e-6,-0.59244 -0.134446,-1.066398 -0.403321,-1.421875 -0.268884,-0.355459 -0.660811,-0.533194 -1.175781,-0.533203 -0.487633,9e-6 -0.859052,0.1504 -1.114258,0.451172 -0.25521,0.296232 -0.382814,0.683602 -0.382812,1.16211 -2e-6,0.432949 0.136716,0.790696 0.410156,1.073242 0.277992,0.282558 0.745114,0.544602 1.401367,0.786133 0.88411,0.287114 1.544917,0.669926 1.982422,1.148437 0.437494,0.473962 0.656244,1.107425 0.65625,1.900391 -6e-6,0.833986 -0.26205,1.485678 -0.786133,1.955078 -0.524094,0.469401 -1.230473,0.704101 -2.11914,0.704101 -0.865889,0 -1.611005,-0.259765 -2.235352,-0.779297 -0.62435,-0.524087 -0.936524,-1.282875 -0.936523,-2.276367 l 1.374023,0 c -2e-6,0.701825 0.161782,1.212242 0.485352,1.53125 0.323565,0.319012 0.761064,0.478517 1.3125,0.478516 0.49674,1e-6 0.877274,-0.141275 1.141601,-0.423828 0.264318,-0.282551 0.396479,-0.674477 0.396485,-1.175781"
         id="path5131"
         style="font-size:14px;font-variant:normal;font-stretch:normal;writing-mode:lr-tb;font-family:Roboto Condensed;-inkscape-font-specification:'Roboto Condensed,'" />
      <path
         d="m 63.435547,54.572917 -1.367188,0 0,-7.396485 1.367188,0 0,7.396485 m 0,-9.337891 -1.367188,0 0,-1.326172 1.367188,0 0,1.326172"
         id="path5133"
         style="font-size:14px;font-variant:normal;font-stretch:normal;writing-mode:lr-tb;font-family:Roboto Condensed;-inkscape-font-specification:'Roboto Condensed,'" />
      <path
         d="m 66.313477,47.176432 0.07519,0.998047 0.02051,0 c 0.186846,-0.360019 0.423825,-0.638014 0.710937,-0.833984 0.291664,-0.200514 0.624346,-0.300774 0.998047,-0.300781 0.628902,7e-6 1.111974,0.232429 1.449219,0.697265 0.341791,0.460293 0.512689,1.198574 0.512695,2.214844 l 0,4.621094 -1.374023,0 0,-4.607422 c -5e-6,-0.688146 -0.08887,-1.166661 -0.266602,-1.435547 -0.173181,-0.273431 -0.451175,-0.41015 -0.833984,-0.410156 -0.259769,6e-6 -0.487633,0.08204 -0.683594,0.246093 -0.195966,0.164069 -0.360028,0.391933 -0.492188,0.683594 l 0,5.523438 -1.374023,0 0,-7.396485 1.257813,0"
         id="path5135"
         style="font-size:14px;font-variant:normal;font-stretch:normal;writing-mode:lr-tb;font-family:Roboto Condensed;-inkscape-font-specification:'Roboto Condensed,'" />
      <path
         d="m 73.566406,51.182292 -0.560547,0 0,3.390625 -1.367187,0 0,-10.664063 1.367187,0 0,6.213867 0.553711,0 1.469727,-2.946289 1.599609,0 -1.989258,3.335938 2.242188,4.060547 -1.592774,0 -1.722656,-3.390625"
         id="path5137"
         style="font-size:14px;font-variant:normal;font-stretch:normal;writing-mode:lr-tb;font-family:Roboto Condensed;-inkscape-font-specification:'Roboto Condensed,'" />
    </g>
    <path
       d="m 61.91884,1011.7761 20.95978,0"
       transform="translate(0,-972.36218)"
       id="path4752"
       style="fill:none;stroke:#000000;stroke-width:1;stroke-linecap:butt;stroke-linejoin:miter;stroke-miterlimit:4;stroke-opacity:1;stroke-dasharray:none;marker-end:url(#Arrow2Lend)" />
    <path
       d="m 164.14625,1011.7761 20.9343,0"
       transform="translate(0,-972.36218)"
       id="path4754"
       style="fill:none;stroke:#000000;stroke-width:1;stroke-linecap:butt;stroke-linejoin:miter;stroke-miterlimit:4;stroke-opacity:1;stroke-dasharray:none;marker-end:url(#Arrow2Lend)" />
    <path
       d="m 258.11347,1011.7761 20.94372,0"
       transform="translate(0,-972.36218)"
       id="path4756"
       style="fill:none;stroke:#000000;stroke-width:1;stroke-linecap:butt;stroke-linejoin:miter;stroke-miterlimit:4;stroke-opacity:1;stroke-dasharray:none;marker-end:url(#Arrow2Lend)" />
    <path
       d="m 340.31042,1011.7761 20.9692,0"
       transform="translate(0,-972.36218)"
       id="path4758"
       style="fill:none;stroke:#000000;stroke-width:1;stroke-linecap:butt;stroke-linejoin:miter;stroke-miterlimit:4;stroke-opacity:1;stroke-dasharray:none;marker-end:url(#Arrow2Lend)" />
  </g>
  <g
     id="layer3"
     style="display:none">
    <path
       d="m 91.923882,49.219429 a 32.526913,18.031223 0 1 1 -65.053826,0 32.526913,18.031223 0 1 1 65.053826,0 z"
       transform="matrix(0.88,0,0,0.88,-18.974176,-3.89921)"
       id="path4808"
       style="fill:none;stroke:#000000;stroke-width:1.13636363;stroke-linecap:round;stroke-miterlimit:4;stroke-opacity:1;stroke-dasharray:none" />
    <path
       d="m 91.923882,49.219429 a 32.526913,18.031223 0 1 1 -65.053826,0 32.526913,18.031223 0 1 1 65.053826,0 z"
       transform="matrix(1.2492368,0,0,0.88,49.311557,-3.89921)"
       id="path4810"
       style="fill:none;stroke:#000000;stroke-width:0.95375383;stroke-linecap:round;stroke-miterlimit:4;stroke-opacity:1;stroke-dasharray:none" />
    <path
       d="m 91.923882,49.219429 a 32.526913,18.031223 0 1 1 -65.053826,0 32.526913,18.031223 0 1 1 65.053826,0 z"
       transform="matrix(0.94157759,0,0,1.3812297,253.75695,-28.56945)"
       id="path4812"
       style="fill:none;stroke:#000000;stroke-width:0.87687761;stroke-linecap:round;stroke-miterlimit:4;stroke-opacity:1;stroke-dasharray:none" />
    <path
       d="m 91.923882,49.219429 a 32.526913,18.031223 0 1 1 -65.053826,0 32.526913,18.031223 0 1 1 65.053826,0 z"
       transform="matrix(0.68912259,0,0,0.88,342.76286,-3.89921)"
       id="path4814"
       style="fill:none;stroke:#000000;stroke-width:1.28413427;stroke-linecap:round;stroke-miterlimit:4;stroke-opacity:1;stroke-dasharray:none" />
    <path
       d="m 91.923882,49.219429 a 32.526913,18.031223 0 1 1 -65.053826,0 32.526913,18.031223 0 1 1 65.053826,0 z"
       transform="matrix(0.68912259,0,0,0.88,532.48133,-3.89921)"
       id="path4816"
       style="fill:none;stroke:#000000;stroke-width:1.28413427;stroke-linecap:round;stroke-miterlimit:4;stroke-opacity:1;stroke-dasharray:none" />
    <path
       d="m 91.923882,49.219429 a 32.526913,18.031223 0 1 1 -65.053826,0 32.526913,18.031223 0 1 1 65.053826,0 z"
       transform="matrix(1.1226538,0,0,1.8428407,154.91478,-51.28968)"
       id="path4818"
       style="fill:none;stroke:#000000;stroke-width:0.69523746;stroke-linecap:round;stroke-miterlimit:4;stroke-opacity:1;stroke-dasharray:none" />
    <path
       d="m 91.923882,49.219429 a 32.526913,18.031223 0 1 1 -65.053826,0 32.526913,18.031223 0 1 1 65.053826,0 z"
       transform="matrix(1.5828257,0,0,1.5176879,384.53883,-35.28584)"
       id="path4820"
       style="fill:none;stroke:#000000;stroke-width:0.6451968;stroke-linecap:round;stroke-miterlimit:4;stroke-opacity:1;stroke-dasharray:none" />
    <flowRoot
       transform="matrix(0.88,0,0,0.88,349.28032,10.4095)"
       id="flowRoot4822"
       xml:space="preserve"
       style="font-size:40px;font-style:normal;font-weight:normal;line-height:125%;letter-spacing:0px;word-spacing:0px;fill:#000000;fill-opacity:1;stroke:none;font-family:Sans"><flowRegion
         id="flowRegion4824"><rect
           width="38.68882"
           height="21.11219"
           x="24.243662"
           y="23.207998"
           id="rect4826" /></flowRegion><flowPara
         id="flowPara4828"
         style="font-size:14px;font-style:normal;font-variant:normal;font-weight:normal;font-stretch:normal;text-align:start;line-height:125%;writing-mode:lr-tb;text-anchor:start;font-family:Roboto Condensed;-inkscape-font-specification:'Roboto Condensed,'">HDFS</flowPara></flowRoot>    <flowRoot
       transform="matrix(0.88,0,0,0.88,256.71939,-216.19393)"
       id="flowRoot4830"
       xml:space="preserve"
       style="font-size:40px;font-style:normal;font-weight:normal;line-height:125%;letter-spacing:0px;word-spacing:0px;fill:#000000;fill-opacity:1;stroke:none;font-family:Sans"><flowRegion
         id="flowRegion4832"><rect
           width="98.994934"
           height="38.183769"
           x="202.93965"
           y="270.8974"
           id="rect4834" /></flowRegion><flowPara
         id="flowPara4836"
         style="font-size:14px;font-style:normal;font-variant:normal;font-weight:normal;font-stretch:normal;text-align:center;line-height:125%;writing-mode:lr-tb;text-anchor:middle;font-family:Roboto Condensed;-inkscape-font-specification:'Roboto Condensed,'">MapReduce with Morphline Mapper</flowPara></flowRoot>    <flowRoot
       transform="matrix(0.88,0,0,0.88,-5.7695994,10.4095)"
       id="flowRoot4838"
       xml:space="preserve"
       style="font-size:40px;font-style:normal;font-weight:normal;line-height:125%;letter-spacing:0px;word-spacing:0px;fill:#000000;fill-opacity:1;stroke:none;font-family:Sans"><flowRegion
         id="flowRegion4840"><rect
           width="47.174122"
           height="23.940615"
           x="24.243662"
           y="23.207998"
           id="rect4842" /></flowRegion><flowPara
         id="flowPara4844"
         style="font-size:14px;font-style:normal;font-variant:normal;font-weight:normal;font-stretch:normal;text-align:start;line-height:125%;writing-mode:lr-tb;text-anchor:start;font-family:Roboto Condensed;-inkscape-font-specification:'Roboto Condensed,'">Sources</flowPara></flowRoot>    <flowRoot
       transform="matrix(0.88,0,0,0.88,71.957211,10.65915)"
       id="flowRoot4846"
       xml:space="preserve"
       style="font-size:40px;font-style:normal;font-weight:normal;line-height:125%;letter-spacing:0px;word-spacing:0px;fill:#000000;fill-opacity:1;stroke:none;font-family:Sans"><flowRegion
         id="flowRegion4848"><rect
           width="74.044182"
           height="20.405081"
           x="24.243662"
           y="23.207998"
           id="rect4850" /></flowRegion><flowPara
         id="flowPara4852"
         style="font-size:14px;font-style:normal;font-variant:normal;font-weight:normal;font-stretch:normal;text-align:start;line-height:125%;writing-mode:lr-tb;text-anchor:start;font-family:Roboto Condensed;-inkscape-font-specification:'Roboto Condensed,'">Flume Source</flowPara></flowRoot>    <flowRoot
       transform="matrix(0.88,0,0,0.88,148.10622,-6.41586)"
       id="flowRoot4854"
       xml:space="preserve"
       style="font-size:40px;font-style:normal;font-weight:normal;text-align:center;line-height:125%;letter-spacing:0px;word-spacing:0px;text-anchor:middle;fill:#000000;fill-opacity:1;stroke:none;font-family:Sans"><flowRegion
         id="flowRegion4856"><rect
           width="119.47578"
           height="59.826286"
           x="24.243662"
           y="23.207998"
           id="rect4858"
           style="text-align:center;text-anchor:middle" /></flowRegion><flowPara
         id="flowPara4860"
         style="font-size:14px;font-style:normal;font-variant:normal;font-weight:normal;font-stretch:normal;text-align:center;line-height:125%;writing-mode:lr-tb;text-anchor:middle;font-family:Roboto Condensed;-inkscape-font-specification:'Roboto Condensed,'">Flume </flowPara><flowPara
         id="flowPara4862"
         style="font-size:14px;font-style:normal;font-variant:normal;font-weight:normal;font-stretch:normal;text-align:center;line-height:125%;writing-mode:lr-tb;text-anchor:middle;font-family:Roboto Condensed;-inkscape-font-specification:'Roboto Condensed,'">Morphline-</flowPara><flowPara
         id="flowPara4864"
         style="font-size:14px;font-style:normal;font-variant:normal;font-weight:normal;font-stretch:normal;text-align:center;line-height:125%;writing-mode:lr-tb;text-anchor:middle;font-family:Roboto Condensed;-inkscape-font-specification:'Roboto Condensed,'">Interceptor</flowPara></flowRoot>    <flowRoot
       transform="matrix(0.88,0,0,0.88,262.06515,1.72193)"
       id="flowRoot4866"
       xml:space="preserve"
       style="font-size:40px;font-style:normal;font-weight:normal;text-align:center;line-height:125%;letter-spacing:0px;word-spacing:0px;text-anchor:middle;fill:#000000;fill-opacity:1;stroke:none;font-family:Sans"><flowRegion
         id="flowRegion4868"><rect
           width="57.780704"
           height="37.905979"
           x="24.243662"
           y="23.207998"
           id="rect4870"
           style="text-align:center;text-anchor:middle" /></flowRegion><flowPara
         id="flowPara4872"
         style="font-size:14px;font-style:normal;font-variant:normal;font-weight:normal;font-stretch:normal;text-align:center;line-height:125%;writing-mode:lr-tb;text-anchor:middle;font-family:Roboto Condensed;-inkscape-font-specification:'Roboto Condensed,'">Flume </flowPara><flowPara
         id="flowPara4874"
         style="font-size:14px;font-style:normal;font-variant:normal;font-weight:normal;font-stretch:normal;text-align:center;line-height:125%;writing-mode:lr-tb;text-anchor:middle;font-family:Roboto Condensed;-inkscape-font-specification:'Roboto Condensed,'">HdfsSink</flowPara></flowRoot>    <flowRoot
       transform="matrix(0.88,0,0,0.88,539.90132,10.4095)"
       id="flowRoot4876"
       xml:space="preserve"
       style="font-size:40px;font-style:normal;font-weight:normal;line-height:125%;letter-spacing:0px;word-spacing:0px;fill:#000000;fill-opacity:1;stroke:none;font-family:Sans"><flowRegion
         id="flowRegion4878"><rect
           width="38.68882"
           height="21.11219"
           x="24.243662"
           y="23.207998"
           id="rect4880" /></flowRegion><flowPara
         id="flowPara4882"
         style="font-size:14px;font-style:normal;font-variant:normal;font-weight:normal;font-stretch:normal;text-align:start;line-height:125%;writing-mode:lr-tb;text-anchor:start;font-family:Roboto Condensed;-inkscape-font-specification:'Roboto Condensed,'">HDFS</flowPara></flowRoot>    <path
       d="m 61.91884,1011.7761 20.95978,0"
       transform="translate(0,-972.36218)"
       id="path4884"
       style="fill:none;stroke:#000000;stroke-width:1;stroke-linecap:butt;stroke-linejoin:miter;stroke-miterlimit:4;stroke-opacity:1;stroke-dasharray:none;marker-end:url(#Arrow2Lend)" />
    <path
       d="m 164.14625,1011.7761 20.9343,0"
       transform="translate(0,-972.36218)"
       id="path4886"
       style="fill:none;stroke:#000000;stroke-width:1;stroke-linecap:butt;stroke-linejoin:miter;stroke-miterlimit:4;stroke-opacity:1;stroke-dasharray:none;marker-end:url(#Arrow2Lend)" />
    <path
       d="m 258.11347,1011.7761 20.94372,0"
       transform="translate(0,-972.36218)"
       id="path4888"
       style="fill:none;stroke:#000000;stroke-width:1;stroke-linecap:butt;stroke-linejoin:miter;stroke-miterlimit:4;stroke-opacity:1;stroke-dasharray:none;marker-end:url(#Arrow2Lend)" />
    <path
       d="m 340.31042,1011.7761 20.9692,0"
       transform="translate(0,-972.36218)"
       id="path4890"
       style="fill:none;stroke:#000000;stroke-width:1;stroke-linecap:butt;stroke-linejoin:miter;stroke-miterlimit:4;stroke-opacity:1;stroke-dasharray:none;marker-end:url(#Arrow2Lend)" />
    <path
       d="m 406.10968,1011.7761 20.95977,0"
       transform="translate(0,-972.36218)"
       id="path4892"
       style="fill:none;stroke:#000000;stroke-width:1;stroke-linecap:butt;stroke-linejoin:miter;stroke-miterlimit:4;stroke-opacity:1;stroke-dasharray:none;marker-end:url(#Arrow2Lend)" />
    <path
       d="m 530.03831,1011.7761 20.95978,0"
       transform="translate(0,-972.36218)"
       id="path4894"
       style="fill:none;stroke:#000000;stroke-width:1;stroke-linecap:butt;stroke-linejoin:miter;stroke-miterlimit:4;stroke-opacity:1;stroke-dasharray:none;marker-end:url(#Arrow2Lend)" />
  </g>
</svg>
