<?xml version="1.0" encoding="UTF-8" standalone="no"?>
<!-- Created with Inkscape (http://www.inkscape.org/) -->

<svg
   xmlns:dc="http://purl.org/dc/elements/1.1/"
   xmlns:cc="http://creativecommons.org/ns#"
   xmlns:rdf="http://www.w3.org/1999/02/22-rdf-syntax-ns#"
   xmlns:svg="http://www.w3.org/2000/svg"
   xmlns="http://www.w3.org/2000/svg"
   version="1.2"
   width="600"
   height="80"
   id="svg2">
  <defs
     id="defs4">
    <marker
       refX="0"
       refY="0"
       orient="auto"
       id="Arrow2Lend"
       style="overflow:visible">
      <path
         d="M 8.7185878,4.0337352 -2.2072895,0.01601326 8.7185884,-4.0017078 c -1.7454984,2.3720609 -1.7354408,5.6174519 -6e-7,8.035443 z"
         transform="matrix(-1.1,0,0,-1.1,-1.1,0)"
         id="path3942"
         style="font-size:12px;fill-rule:evenodd;stroke-width:0.625;stroke-linejoin:round" />
    </marker>
  </defs>
  <metadata
     id="metadata7">
    <rdf:RDF>
      <cc:Work
         rdf:about="">
        <dc:format>image/svg+xml</dc:format>
        <dc:type
           rdf:resource="http://purl.org/dc/dcmitype/StillImage" />
        <dc:title></dc:title>
      </cc:Work>
    </rdf:RDF>
  </metadata>
  <g
     transform="translate(0,-972.36218)"
     id="layer1"
     style="display:none">
    <path
       d="m 91.923882,49.219429 a 32.526913,18.031223 0 1 1 -65.053826,0 32.526913,18.031223 0 1 1 65.053826,0 z"
       transform="matrix(0.88,0,0,0.88,-18.974176,968.46297)"
       id="path3888"
       style="fill:none;stroke:#000000;stroke-width:1.13636363;stroke-linecap:round;stroke-miterlimit:4;stroke-opacity:1;stroke-dasharray:none" />
    <path
       d="m 91.923882,49.219429 a 32.526913,18.031223 0 1 1 -65.053826,0 32.526913,18.031223 0 1 1 65.053826,0 z"
       transform="matrix(1.2492368,0,0,0.88,49.311557,968.46297)"
       id="path3890"
       style="fill:none;stroke:#000000;stroke-width:0.95375383;stroke-linecap:round;stroke-miterlimit:4;stroke-opacity:1;stroke-dasharray:none" />
    <path
       d="m 91.923882,49.219429 a 32.526913,18.031223 0 1 1 -65.053826,0 32.526913,18.031223 0 1 1 65.053826,0 z"
       transform="matrix(0.94157759,0,0,1.3812297,253.75695,943.79273)"
       id="path3892"
       style="fill:none;stroke:#000000;stroke-width:0.87687761;stroke-linecap:round;stroke-miterlimit:4;stroke-opacity:1;stroke-dasharray:none" />
    <path
       d="m 91.923882,49.219429 a 32.526913,18.031223 0 1 1 -65.053826,0 32.526913,18.031223 0 1 1 65.053826,0 z"
       transform="matrix(0.68912259,0,0,0.88,342.76286,968.46297)"
       id="path3894"
       style="fill:none;stroke:#000000;stroke-width:1.28413427;stroke-linecap:round;stroke-miterlimit:4;stroke-opacity:1;stroke-dasharray:none" />
    <path
       d="m 91.923882,49.219429 a 32.526913,18.031223 0 1 1 -65.053826,0 32.526913,18.031223 0 1 1 65.053826,0 z"
       transform="matrix(0.68912259,0,0,0.88,532.48133,968.46297)"
       id="path3896"
       style="fill:none;stroke:#000000;stroke-width:1.28413427;stroke-linecap:round;stroke-miterlimit:4;stroke-opacity:1;stroke-dasharray:none" />
    <path
       d="m 91.923882,49.219429 a 32.526913,18.031223 0 1 1 -65.053826,0 32.526913,18.031223 0 1 1 65.053826,0 z"
       transform="matrix(1.1226538,0,0,1.8428407,154.91478,921.0725)"
       id="path3898"
       style="fill:none;stroke:#000000;stroke-width:0.69523746;stroke-linecap:round;stroke-miterlimit:4;stroke-opacity:1;stroke-dasharray:none" />
    <path
       d="m 91.923882,49.219429 a 32.526913,18.031223 0 1 1 -65.053826,0 32.526913,18.031223 0 1 1 65.053826,0 z"
       transform="matrix(1.5828257,0,0,1.5176879,384.53883,937.07634)"
       id="path3900"
       style="fill:none;stroke:#000000;stroke-width:0.6451968;stroke-linecap:round;stroke-miterlimit:4;stroke-opacity:1;stroke-dasharray:none" />
    <flowRoot
       transform="matrix(0.88,0,0,0.88,349.28032,982.77168)"
       id="flowRoot3050"
       xml:space="preserve"
       style="font-size:40px;font-style:normal;font-weight:normal;line-height:125%;letter-spacing:0px;word-spacing:0px;fill:#000000;fill-opacity:1;stroke:none;font-family:Sans"><flowRegion
         id="flowRegion3052"><rect
           width="38.68882"
           height="21.11219"
           x="24.243662"
           y="23.207998"
           id="rect3054" /></flowRegion><flowPara
         id="flowPara3056"
         style="font-size:14px;font-style:normal;font-variant:normal;font-weight:normal;font-stretch:normal;text-align:start;line-height:125%;writing-mode:lr-tb;text-anchor:start;font-family:Roboto Condensed;-inkscape-font-specification:'Roboto Condensed,'">HDFS</flowPara></flowRoot>    <flowRoot
       transform="translate(0,552.36218)"
       id="flowRoot3060"
       xml:space="preserve"
       style="font-size:40px;font-style:normal;font-weight:normal;line-height:125%;letter-spacing:0px;word-spacing:0px;fill:#000000;fill-opacity:1;stroke:none;font-family:Sans"><flowRegion
         id="flowRegion3062"><rect
           width="132.93608"
           height="58.689861"
           x="310.41989"
           y="316.15225"
           id="rect3064" /></flowRegion><flowPara
         id="flowPara3066">MapReduce with Morphline Mapper MapReduce with Morphline Mapper MapReduce with Morphline Mapper MapReduce with Morphline Mapper MapReduce with Morphline Mapper </flowPara></flowRoot>    <flowRoot
       transform="matrix(0.88,0,0,0.88,256.71939,756.16825)"
       id="flowRoot3068"
       xml:space="preserve"
       style="font-size:40px;font-style:normal;font-weight:normal;line-height:125%;letter-spacing:0px;word-spacing:0px;fill:#000000;fill-opacity:1;stroke:none;font-family:Sans"><flowRegion
         id="flowRegion3070"><rect
           width="98.994934"
           height="38.183769"
           x="202.93965"
           y="270.8974"
           id="rect3072" /></flowRegion><flowPara
         id="flowPara3074"
         style="font-size:14px;font-style:normal;font-variant:normal;font-weight:normal;font-stretch:normal;text-align:center;line-height:125%;writing-mode:lr-tb;text-anchor:middle;font-family:Roboto Condensed;-inkscape-font-specification:'Roboto Condensed,'">MapReduce with Morphline Mapper</flowPara></flowRoot>    <flowRoot
       transform="matrix(0.88,0,0,0.88,-5.7695994,982.77168)"
       id="flowRoot3076"
       xml:space="preserve"
       style="font-size:40px;font-style:normal;font-weight:normal;line-height:125%;letter-spacing:0px;word-spacing:0px;fill:#000000;fill-opacity:1;stroke:none;font-family:Sans"><flowRegion
         id="flowRegion3078"><rect
           width="47.174122"
           height="23.940615"
           x="24.243662"
           y="23.207998"
           id="rect3080" /></flowRegion><flowPara
         id="flowPara3082"
         style="font-size:14px;font-style:normal;font-variant:normal;font-weight:normal;font-stretch:normal;text-align:start;line-height:125%;writing-mode:lr-tb;text-anchor:start;font-family:Roboto Condensed;-inkscape-font-specification:'Roboto Condensed,'">Sources</flowPara></flowRoot>    <flowRoot
       transform="matrix(0.88,0,0,0.88,71.957211,983.02133)"
       id="flowRoot3084"
       xml:space="preserve"
       style="font-size:40px;font-style:normal;font-weight:normal;line-height:125%;letter-spacing:0px;word-spacing:0px;fill:#000000;fill-opacity:1;stroke:none;font-family:Sans"><flowRegion
         id="flowRegion3086"><rect
           width="74.044182"
           height="20.405081"
           x="24.243662"
           y="23.207998"
           id="rect3088" /></flowRegion><flowPara
         id="flowPara3090"
         style="font-size:14px;font-style:normal;font-variant:normal;font-weight:normal;font-stretch:normal;text-align:start;line-height:125%;writing-mode:lr-tb;text-anchor:start;font-family:Roboto Condensed;-inkscape-font-specification:'Roboto Condensed,'">Flume Source</flowPara></flowRoot>    <flowRoot
       transform="matrix(0.88,0,0,0.88,148.10622,965.94632)"
       id="flowRoot3092"
       xml:space="preserve"
       style="font-size:40px;font-style:normal;font-weight:normal;text-align:center;line-height:125%;letter-spacing:0px;word-spacing:0px;text-anchor:middle;fill:#000000;fill-opacity:1;stroke:none;font-family:Sans"><flowRegion
         id="flowRegion3094"><rect
           width="119.47578"
           height="59.826286"
           x="24.243662"
           y="23.207998"
           id="rect3096"
           style="text-align:center;text-anchor:middle" /></flowRegion><flowPara
         id="flowPara3098"
         style="font-size:14px;font-style:normal;font-variant:normal;font-weight:normal;font-stretch:normal;text-align:center;line-height:125%;writing-mode:lr-tb;text-anchor:middle;font-family:Roboto Condensed;-inkscape-font-specification:'Roboto Condensed,'">Flume </flowPara><flowPara
         id="flowPara3100"
         style="font-size:14px;font-style:normal;font-variant:normal;font-weight:normal;font-stretch:normal;text-align:center;line-height:125%;writing-mode:lr-tb;text-anchor:middle;font-family:Roboto Condensed;-inkscape-font-specification:'Roboto Condensed,'">Morphline-</flowPara><flowPara
         id="flowPara4362"
         style="font-size:14px;font-style:normal;font-variant:normal;font-weight:normal;font-stretch:normal;text-align:center;line-height:125%;writing-mode:lr-tb;text-anchor:middle;font-family:Roboto Condensed;-inkscape-font-specification:'Roboto Condensed,'">Interceptor</flowPara></flowRoot>    <flowRoot
       transform="matrix(0.88,0,0,0.88,262.06515,974.08411)"
       id="flowRoot3102"
       xml:space="preserve"
       style="font-size:40px;font-style:normal;font-weight:normal;text-align:center;line-height:125%;letter-spacing:0px;word-spacing:0px;text-anchor:middle;fill:#000000;fill-opacity:1;stroke:none;font-family:Sans"><flowRegion
         id="flowRegion3104"><rect
           width="57.780704"
           height="37.905979"
           x="24.243662"
           y="23.207998"
           id="rect3106"
           style="text-align:center;text-anchor:middle" /></flowRegion><flowPara
         id="flowPara3108"
         style="font-size:14px;font-style:normal;font-variant:normal;font-weight:normal;font-stretch:normal;text-align:center;line-height:125%;writing-mode:lr-tb;text-anchor:middle;font-family:Roboto Condensed;-inkscape-font-specification:'Roboto Condensed,'">Flume </flowPara><flowPara
         id="flowPara4364"
         style="font-size:14px;font-style:normal;font-variant:normal;font-weight:normal;font-stretch:normal;text-align:center;line-height:125%;writing-mode:lr-tb;text-anchor:middle;font-family:Roboto Condensed;-inkscape-font-specification:'Roboto Condensed,'">HdfsSink</flowPara></flowRoot>    <flowRoot
       transform="matrix(0.88,0,0,0.88,539.90132,982.77168)"
       id="flowRoot3110"
       xml:space="preserve"
       style="font-size:40px;font-style:normal;font-weight:normal;line-height:125%;letter-spacing:0px;word-spacing:0px;fill:#000000;fill-opacity:1;stroke:none;font-family:Sans"><flowRegion
         id="flowRegion3112"><rect
           width="38.68882"
           height="21.11219"
           x="24.243662"
           y="23.207998"
           id="rect3114" /></flowRegion><flowPara
         id="flowPara3116"
         style="font-size:14px;font-style:normal;font-variant:normal;font-weight:normal;font-stretch:normal;text-align:start;line-height:125%;writing-mode:lr-tb;text-anchor:start;font-family:Roboto Condensed;-inkscape-font-specification:'Roboto Condensed,'">HDFS</flowPara></flowRoot>    <path
       d="m 61.91884,1011.7761 20.95978,0"
       id="path3904"
       style="fill:none;stroke:#000000;stroke-width:1;stroke-linecap:butt;stroke-linejoin:miter;stroke-miterlimit:4;stroke-opacity:1;stroke-dasharray:none;marker-end:url(#Arrow2Lend)" />
    <path
       d="m 164.14625,1011.7761 20.9343,0"
       id="path3906"
       style="fill:none;stroke:#000000;stroke-width:1;stroke-linecap:butt;stroke-linejoin:miter;stroke-miterlimit:4;stroke-opacity:1;stroke-dasharray:none;marker-end:url(#Arrow2Lend)" />
    <path
       d="m 258.11347,1011.7761 20.94372,0"
       id="path3910"
       style="fill:none;stroke:#000000;stroke-width:1;stroke-linecap:butt;stroke-linejoin:miter;stroke-miterlimit:4;stroke-opacity:1;stroke-dasharray:none;marker-end:url(#Arrow2Lend)" />
    <path
       d="m 340.31042,1011.7761 20.9692,0"
       id="path3912"
       style="fill:none;stroke:#000000;stroke-width:1;stroke-linecap:butt;stroke-linejoin:miter;stroke-miterlimit:4;stroke-opacity:1;stroke-dasharray:none;marker-end:url(#Arrow2Lend)" />
    <path
       d="m 406.10968,1011.7761 20.95977,0"
       id="path3914"
       style="fill:none;stroke:#000000;stroke-width:1;stroke-linecap:butt;stroke-linejoin:miter;stroke-miterlimit:4;stroke-opacity:1;stroke-dasharray:none;marker-end:url(#Arrow2Lend)" />
    <path
       d="m 530.03831,1011.7761 20.95978,0"
       id="path3916"
       style="fill:none;stroke:#000000;stroke-width:1;stroke-linecap:butt;stroke-linejoin:miter;stroke-miterlimit:4;stroke-opacity:1;stroke-dasharray:none;marker-end:url(#Arrow2Lend)" />
  </g>
  <g
     id="layer2"
     style="display:none">
    <path
       d="m 91.923882,49.219429 a 32.526913,18.031223 0 1 1 -65.053826,0 32.526913,18.031223 0 1 1 65.053826,0 z"
       transform="matrix(0.88,0,0,0.88,-18.974176,-3.89921)"
       id="path4676"
       style="fill:none;stroke:#000000;stroke-width:1.13636363;stroke-linecap:round;stroke-miterlimit:4;stroke-opacity:1;stroke-dasharray:none" />
    <path
       d="m 91.923882,49.219429 a 32.526913,18.031223 0 1 1 -65.053826,0 32.526913,18.031223 0 1 1 65.053826,0 z"
       transform="matrix(1.2492368,0,0,0.88,49.311557,-3.89921)"
       id="path4678"
       style="fill:none;stroke:#000000;stroke-width:0.95375383;stroke-linecap:round;stroke-miterlimit:4;stroke-opacity:1;stroke-dasharray:none" />
    <path
       d="m 91.923882,49.219429 a 32.526913,18.031223 0 1 1 -65.053826,0 32.526913,18.031223 0 1 1 65.053826,0 z"
       transform="matrix(0.94157759,0,0,1.3812297,253.75695,-28.56945)"
       id="path4680"
       style="fill:none;stroke:#000000;stroke-width:0.87687761;stroke-linecap:round;stroke-miterlimit:4;stroke-opacity:1;stroke-dasharray:none" />
    <path
       d="m 91.923882,49.219429 a 32.526913,18.031223 0 1 1 -65.053826,0 32.526913,18.031223 0 1 1 65.053826,0 z"
       transform="matrix(0.68912259,0,0,0.88,342.76286,-3.89921)"
       id="path4682"
       style="fill:none;stroke:#000000;stroke-width:1.28413427;stroke-linecap:round;stroke-miterlimit:4;stroke-opacity:1;stroke-dasharray:none" />
    <path
       d="m 91.923882,49.219429 a 32.526913,18.031223 0 1 1 -65.053826,0 32.526913,18.031223 0 1 1 65.053826,0 z"
       transform="matrix(1.1226538,0,0,1.8428407,154.91478,-51.28968)"
       id="path4686"
       style="fill:none;stroke:#000000;stroke-width:0.69523746;stroke-linecap:round;stroke-miterlimit:4;stroke-opacity:1;stroke-dasharray:none" />
    <flowRoot
       transform="matrix(0.88,0,0,0.88,349.28032,10.4095)"
       id="flowRoot4690"
       xml:space="preserve"
       style="font-size:40px;font-style:normal;font-weight:normal;line-height:125%;letter-spacing:0px;word-spacing:0px;fill:#000000;fill-opacity:1;stroke:none;font-family:Sans"><flowRegion
         id="flowRegion4692"><rect
           width="38.68882"
           height="21.11219"
           x="24.243662"
           y="23.207998"
           id="rect4694" /></flowRegion><flowPara
         id="flowPara4696"
         style="font-size:14px;font-style:normal;font-variant:normal;font-weight:normal;font-stretch:normal;text-align:start;line-height:125%;writing-mode:lr-tb;text-anchor:start;font-family:Roboto Condensed;-inkscape-font-specification:'Roboto Condensed,'">HDFS</flowPara></flowRoot>    <flowRoot
       transform="matrix(0.88,0,0,0.88,-5.7695994,10.4095)"
       id="flowRoot4706"
       xml:space="preserve"
       style="font-size:40px;font-style:normal;font-weight:normal;line-height:125%;letter-spacing:0px;word-spacing:0px;fill:#000000;fill-opacity:1;stroke:none;font-family:Sans"><flowRegion
         id="flowRegion4708"><rect
           width="47.174122"
           height="23.940615"
           x="24.243662"
           y="23.207998"
           id="rect4710" /></flowRegion><flowPara
         id="flowPara4712"
         style="font-size:14px;font-style:normal;font-variant:normal;font-weight:normal;font-stretch:normal;text-align:start;line-height:125%;writing-mode:lr-tb;text-anchor:start;font-family:Roboto Condensed;-inkscape-font-specification:'Roboto Condensed,'">Sources</flowPara></flowRoot>    <flowRoot
       transform="matrix(0.88,0,0,0.88,71.957211,10.65915)"
       id="flowRoot4714"
       xml:space="preserve"
       style="font-size:40px;font-style:normal;font-weight:normal;line-height:125%;letter-spacing:0px;word-spacing:0px;fill:#000000;fill-opacity:1;stroke:none;font-family:Sans"><flowRegion
         id="flowRegion4716"><rect
           width="74.044182"
           height="20.405081"
           x="24.243662"
           y="23.207998"
           id="rect4718" /></flowRegion><flowPara
         id="flowPara4720"
         style="font-size:14px;font-style:normal;font-variant:normal;font-weight:normal;font-stretch:normal;text-align:start;line-height:125%;writing-mode:lr-tb;text-anchor:start;font-family:Roboto Condensed;-inkscape-font-specification:'Roboto Condensed,'">Flume Source</flowPara></flowRoot>    <flowRoot
       transform="matrix(0.88,0,0,0.88,148.10622,-6.41586)"
       id="flowRoot4722"
       xml:space="preserve"
       style="font-size:40px;font-style:normal;font-weight:normal;text-align:center;line-height:125%;letter-spacing:0px;word-spacing:0px;text-anchor:middle;fill:#000000;fill-opacity:1;stroke:none;font-family:Sans"><flowRegion
         id="flowRegion4724"><rect
           width="119.47578"
           height="59.826286"
           x="24.243662"
           y="23.207998"
           id="rect4726"
           style="text-align:center;text-anchor:middle" /></flowRegion><flowPara
         id="flowPara4728"
         style="font-size:14px;font-style:normal;font-variant:normal;font-weight:normal;font-stretch:normal;text-align:center;line-height:125%;writing-mode:lr-tb;text-anchor:middle;font-family:Roboto Condensed;-inkscape-font-specification:'Roboto Condensed,'">Flume </flowPara><flowPara
         id="flowPara4730"
         style="font-size:14px;font-style:normal;font-variant:normal;font-weight:normal;font-stretch:normal;text-align:center;line-height:125%;writing-mode:lr-tb;text-anchor:middle;font-family:Roboto Condensed;-inkscape-font-specification:'Roboto Condensed,'">Morphline-</flowPara><flowPara
         id="flowPara4732"
         style="font-size:14px;font-style:normal;font-variant:normal;font-weight:normal;font-stretch:normal;text-align:center;line-height:125%;writing-mode:lr-tb;text-anchor:middle;font-family:Roboto Condensed;-inkscape-font-specification:'Roboto Condensed,'">Interceptor</flowPara></flowRoot>    <flowRoot
       transform="matrix(0.88,0,0,0.88,262.06515,1.72193)"
       id="flowRoot4734"
       xml:space="preserve"
       style="font-size:40px;font-style:normal;font-weight:normal;text-align:center;line-height:125%;letter-spacing:0px;word-spacing:0px;text-anchor:middle;fill:#000000;fill-opacity:1;stroke:none;font-family:Sans"><flowRegion
         id="flowRegion4736"><rect
           width="57.780704"
           height="37.905979"
           x="24.243662"
           y="23.207998"
           id="rect4738"
           style="text-align:center;text-anchor:middle" /></flowRegion><flowPara
         id="flowPara4740"
         style="font-size:14px;font-style:normal;font-variant:normal;font-weight:normal;font-stretch:normal;text-align:center;line-height:125%;writing-mode:lr-tb;text-anchor:middle;font-family:Roboto Condensed;-inkscape-font-specification:'Roboto Condensed,'">Flume </flowPara><flowPara
         id="flowPara4742"
         style="font-size:14px;font-style:normal;font-variant:normal;font-weight:normal;font-stretch:normal;text-align:center;line-height:125%;writing-mode:lr-tb;text-anchor:middle;font-family:Roboto Condensed;-inkscape-font-specification:'Roboto Condensed,'">HdfsSink</flowPara></flowRoot>    <path
       d="m 61.91884,1011.7761 20.95978,0"
       transform="translate(0,-972.36218)"
       id="path4752"
       style="fill:none;stroke:#000000;stroke-width:1;stroke-linecap:butt;stroke-linejoin:miter;stroke-miterlimit:4;stroke-opacity:1;stroke-dasharray:none;marker-end:url(#Arrow2Lend)" />
    <path
       d="m 164.14625,1011.7761 20.9343,0"
       transform="translate(0,-972.36218)"
       id="path4754"
       style="fill:none;stroke:#000000;stroke-width:1;stroke-linecap:butt;stroke-linejoin:miter;stroke-miterlimit:4;stroke-opacity:1;stroke-dasharray:none;marker-end:url(#Arrow2Lend)" />
    <path
       d="m 258.11347,1011.7761 20.94372,0"
       transform="translate(0,-972.36218)"
       id="path4756"
       style="fill:none;stroke:#000000;stroke-width:1;stroke-linecap:butt;stroke-linejoin:miter;stroke-miterlimit:4;stroke-opacity:1;stroke-dasharray:none;marker-end:url(#Arrow2Lend)" />
    <path
       d="m 340.31042,1011.7761 20.9692,0"
       transform="translate(0,-972.36218)"
       id="path4758"
       style="fill:none;stroke:#000000;stroke-width:1;stroke-linecap:butt;stroke-linejoin:miter;stroke-miterlimit:4;stroke-opacity:1;stroke-dasharray:none;marker-end:url(#Arrow2Lend)" />
  </g>
  <g
     id="layer3"
     style="display:inline">
    <path
       d="m 91.923882,49.219429 a 32.526913,18.031223 0 1 1 -65.053826,0 32.526913,18.031223 0 1 1 65.053826,0 z"
       transform="matrix(0.68912259,0,0,0.88,-13.23714,-3.89921)"
       id="path4814"
       style="fill:none;stroke:#000000;stroke-width:1.28413427;stroke-linecap:round;stroke-miterlimit:4;stroke-opacity:1;stroke-dasharray:none" />
    <path
       d="m 91.923882,49.219429 a 32.526913,18.031223 0 1 1 -65.053826,0 32.526913,18.031223 0 1 1 65.053826,0 z"
       transform="matrix(0.68912259,0,0,0.88,176.48133,-3.89921)"
       id="path4816"
       style="fill:none;stroke:#000000;stroke-width:1.28413427;stroke-linecap:round;stroke-miterlimit:4;stroke-opacity:1;stroke-dasharray:none" />
    <path
       d="m 91.923882,49.219429 a 32.526913,18.031223 0 1 1 -65.053826,0 32.526913,18.031223 0 1 1 65.053826,0 z"
       transform="matrix(1.5828257,0,0,1.5176879,28.53883,-35.28584)"
       id="path4820"
       style="fill:none;stroke:#000000;stroke-width:0.6451968;stroke-linecap:round;stroke-miterlimit:4;stroke-opacity:1;stroke-dasharray:none" />
    <g
       transform="matrix(0.88,0,0,0.88,-6.71968,10.4095)"
       id="flowRoot4822"
       style="font-size:40px;font-style:normal;font-weight:normal;line-height:125%;letter-spacing:0px;word-spacing:0px;fill:#000000;fill-opacity:1;stroke:none;font-family:Sans">
      <path
         d="m 31.46875,37.072917 -1.374023,0 0,-4.388672 -3.53418,0 0,4.388672 -1.374024,0 0,-9.953125 1.374024,0 0,4.504882 3.53418,0 0,-4.504882 1.374023,0 0,9.953125"
         id="path5450"
         style="font-size:14px;font-variant:normal;font-stretch:normal;text-align:start;writing-mode:lr-tb;text-anchor:start;font-family:Roboto Condensed;-inkscape-font-specification:'Roboto Condensed,'" />
      <path
         d="m 33.362305,37.072917 0,-9.953125 2.37207,0 c 1.184891,10e-6 2.084956,0.337249 2.700195,1.011718 0.615228,0.674488 0.922845,1.702156 0.922852,3.083008 l 0,1.777344 c -7e-6,1.389977 -0.309903,2.417645 -0.929688,3.083008 -0.619797,0.665365 -1.53809,0.998047 -2.754882,0.998047 l -2.310547,0 m 1.374023,-8.886719 0,7.833984 0.888672,0 c 0.865881,1e-6 1.476558,-0.239256 1.832031,-0.717773 0.355464,-0.483071 0.533198,-1.253252 0.533203,-2.310547 l 0,-1.791016 c -5e-6,-1.061842 -0.175461,-1.829745 -0.526367,-2.303711 -0.350916,-0.473949 -0.941085,-0.710928 -1.770508,-0.710937 l -0.957031,0"
         id="path5452"
         style="font-size:14px;font-variant:normal;font-stretch:normal;text-align:start;writing-mode:lr-tb;text-anchor:start;font-family:Roboto Condensed;-inkscape-font-specification:'Roboto Condensed,'" />
      <path
         d="m 45.913086,32.650065 -3.46582,0 0,4.422852 -1.374024,0 0,-9.953125 5.393555,0 0,1.066406 -4.019531,0 0,3.404297 3.46582,0 0,1.05957"
         id="path5454"
         style="font-size:14px;font-variant:normal;font-stretch:normal;text-align:start;writing-mode:lr-tb;text-anchor:start;font-family:Roboto Condensed;-inkscape-font-specification:'Roboto Condensed,'" />
      <path
         d="m 52.044922,34.570964 c -5e-6,-0.478513 -0.120773,-0.863604 -0.362305,-1.155274 -0.236984,-0.29622 -0.667647,-0.560543 -1.291992,-0.792969 -0.920576,-0.291662 -1.617841,-0.66308 -2.091797,-1.114257 -0.473959,-0.455724 -0.710938,-1.070957 -0.710937,-1.845704 -10e-7,-0.802075 0.264321,-1.449209 0.792968,-1.941406 0.528644,-0.496735 1.225909,-0.745107 2.091797,-0.745117 0.893225,10e-6 1.60644,0.287119 2.139649,0.861328 0.533196,0.574228 0.799798,1.292 0.799804,2.15332 l -1.374023,0 c -5e-6,-0.59244 -0.134445,-1.066398 -0.40332,-1.421875 -0.268885,-0.355459 -0.660812,-0.533194 -1.175782,-0.533203 -0.487633,9e-6 -0.859052,0.1504 -1.114257,0.451172 -0.255211,0.296232 -0.382815,0.683602 -0.382813,1.16211 -2e-6,0.432949 0.136717,0.790696 0.410156,1.073242 0.277992,0.282558 0.745114,0.544602 1.401367,0.786133 0.88411,0.287114 1.544917,0.669926 1.982422,1.148437 0.437494,0.473962 0.656244,1.107425 0.65625,1.900391 -6e-6,0.833986 -0.26205,1.485678 -0.786132,1.955078 -0.524094,0.469401 -1.230474,0.704101 -2.119141,0.704101 -0.865888,0 -1.611005,-0.259765 -2.235352,-0.779297 -0.624349,-0.524087 -0.936524,-1.282875 -0.936523,-2.276367 l 1.374023,0 c -2e-6,0.701825 0.161782,1.212242 0.485352,1.53125 0.323565,0.319012 0.761064,0.478517 1.3125,0.478516 0.496741,1e-6 0.877274,-0.141275 1.141601,-0.423828 0.264318,-0.282551 0.39648,-0.674477 0.396485,-1.175781"
         id="path5456"
         style="font-size:14px;font-variant:normal;font-stretch:normal;text-align:start;writing-mode:lr-tb;text-anchor:start;font-family:Roboto Condensed;-inkscape-font-specification:'Roboto Condensed,'" />
    </g>
    <g
       transform="matrix(0.88,0,0,0.88,-99.28061,-216.19393)"
       id="flowRoot4830"
       style="font-size:40px;font-style:normal;font-weight:normal;line-height:125%;letter-spacing:0px;word-spacing:0px;fill:#000000;fill-opacity:1;stroke:none;font-family:Sans">
      <path
         d="m 211.85937,274.80729 2.17383,8.14844 0.0205,0 2.17383,-8.14844 1.77051,0 0,9.95313 -1.36035,0 0,-3.82129 0.12988,-3.79395 -0.0205,-0.007 -2.24902,7.62207 -0.90918,0 -2.24219,-7.62207 -0.0205,0.007 0.12988,3.79395 0,3.82129 -1.36035,0 0,-9.95313 1.76367,0"
         id="path5393"
         style="font-size:14px;font-variant:normal;font-stretch:normal;text-align:center;writing-mode:lr-tb;text-anchor:middle;font-family:Roboto Condensed;-inkscape-font-specification:'Roboto Condensed,'" />
      <path
         d="m 223.24121,284.76042 c -0.0456,-0.16862 -0.0843,-0.32813 -0.11621,-0.47852 -0.0319,-0.15495 -0.0547,-0.30534 -0.0684,-0.45117 l -0.0137,-0.007 c -0.19141,0.31446 -0.42839,0.57194 -0.71094,0.77246 -0.28255,0.20052 -0.59929,0.30079 -0.95019,0.30079 -0.61068,0 -1.08236,-0.19141 -1.41504,-0.57422 -0.32813,-0.38737 -0.49219,-0.9183 -0.49219,-1.59278 0,-0.72005 0.22331,-1.27831 0.66992,-1.6748 0.45117,-0.39648 1.09831,-0.59472 1.94141,-0.59473 l 0.95019,0 0,-0.75879 c 0,-0.46028 -0.0912,-0.81347 -0.27343,-1.05957 -0.17774,-0.25064 -0.43751,-0.37597 -0.7793,-0.37597 -0.31446,0 -0.56055,0.11166 -0.73828,0.33496 -0.17774,0.21875 -0.26661,0.50586 -0.2666,0.86133 l -1.37403,-0.007 c 0,-0.60611 0.22559,-1.12792 0.67676,-1.56543 0.45117,-0.44205 1.04817,-0.66308 1.79102,-0.66309 0.70637,10e-6 1.27148,0.21192 1.69531,0.63575 0.42838,0.41927 0.64257,1.03679 0.64258,1.85253 l 0,3.43165 c -1e-5,0.28255 0.0159,0.55599 0.0479,0.82031 0.0365,0.25976 0.0911,0.52409 0.16406,0.79297 l -1.38086,0 m -1.54492,-0.92969 c 0.30078,0 0.56966,-0.0889 0.80664,-0.2666 0.23698,-0.18229 0.41471,-0.41471 0.5332,-0.69727 l 0,-1.54492 -0.9707,0 c -0.39649,0 -0.69955,0.13444 -0.90918,0.40332 -0.20964,0.26888 -0.31446,0.60157 -0.31445,0.99805 -1e-5,0.33724 0.0729,0.60612 0.21875,0.80664 0.14583,0.20052 0.35774,0.30078 0.63574,0.30078"
         id="path5395"
         style="font-size:14px;font-variant:normal;font-stretch:normal;text-align:center;writing-mode:lr-tb;text-anchor:middle;font-family:Roboto Condensed;-inkscape-font-specification:'Roboto Condensed,'" />
      <path
         d="m 231.16406,281.67741 c 0,0.99349 -0.20052,1.77962 -0.60156,2.3584 -0.39649,0.57422 -0.96615,0.86133 -1.70898,0.86133 -0.3418,0 -0.63803,-0.0661 -0.88868,-0.19825 -0.25065,-0.13672 -0.46484,-0.33496 -0.64257,-0.59472 l -0.0205,0.007 0,3.49317 -1.36719,0 0,-10.24024 1.23047,0 0.0752,0.78614 0.0137,0.007 c 0.18229,-0.30077 0.40331,-0.53092 0.66308,-0.69043 0.25976,-0.1595 0.56966,-0.23925 0.92969,-0.23926 0.74739,10e-6 1.31933,0.31902 1.71582,0.95703 0.40104,0.63347 0.60156,1.4948 0.60156,2.58399 l 0,0.90918 m -1.36719,-0.90918 c 0,-0.74283 -0.10937,-1.33756 -0.32812,-1.78418 -0.2142,-0.45117 -0.54916,-0.67675 -1.00488,-0.67676 -0.28256,10e-6 -0.51726,0.082 -0.7041,0.2461 -0.18686,0.16406 -0.33952,0.39421 -0.45801,0.69043 l 0,3.75292 c 0.11393,0.278 0.26432,0.48991 0.45117,0.63575 0.1914,0.14583 0.43294,0.21875 0.72461,0.21875 0.45572,0 0.78841,-0.19597 0.99805,-0.58789 0.21418,-0.39193 0.32128,-0.92057 0.32128,-1.58594 l 0,-0.90918"
         id="path5397"
         style="font-size:14px;font-variant:normal;font-stretch:normal;text-align:center;writing-mode:lr-tb;text-anchor:middle;font-family:Roboto Condensed;-inkscape-font-specification:'Roboto Condensed,'" />
      <path
         d="m 234.00781,280.47428 0,4.28614 -1.37402,0 0,-9.94629 3.02832,0 c 0.91145,1e-5 1.5996,0.23699 2.06445,0.71094 0.46484,0.47396 0.69726,1.17806 0.69727,2.1123 -1e-5,0.53777 -0.12078,0.99805 -0.36231,1.38086 -0.24154,0.37826 -0.59017,0.67676 -1.0459,0.89551 0.48307,0.17318 0.82487,0.45573 1.0254,0.84765 0.20507,0.39193 0.30761,0.89324 0.30761,1.50391 l 0,0.86816 c 0,0.3099 0.0273,0.59245 0.082,0.84766 0.0592,0.25065 0.1595,0.45345 0.30079,0.6084 l 0,0.1709 -1.40821,0 c -0.15039,-0.15495 -0.2461,-0.38054 -0.28711,-0.67676 -0.041,-0.30078 -0.0615,-0.62207 -0.0615,-0.96387 l 0,-0.84082 c -1e-5,-0.56966 -0.11166,-1.01171 -0.33496,-1.32617 -0.21876,-0.31901 -0.53549,-0.47851 -0.9502,-0.47852 l -1.68164,0 m 0,-1.05957 1.52442,0 c 0.52864,10e-6 0.91373,-0.1481 1.15527,-0.44433 0.24153,-0.30078 0.3623,-0.73372 0.3623,-1.29883 0,-0.58333 -0.11393,-1.02766 -0.34179,-1.33301 -0.22787,-0.30989 -0.59018,-0.46483 -1.08692,-0.46484 l -1.61328,0 0,3.54101"
         id="path5399"
         style="font-size:14px;font-variant:normal;font-stretch:normal;text-align:center;writing-mode:lr-tb;text-anchor:middle;font-family:Roboto Condensed;-inkscape-font-specification:'Roboto Condensed,'" />
      <path
         d="m 242.53223,284.89714 c -0.83399,0 -1.4948,-0.29851 -1.98243,-0.89551 -0.48763,-0.60156 -0.73144,-1.3877 -0.73144,-2.3584 l 0,-1.08008 c 0,-0.98437 0.24154,-1.78645 0.72461,-2.40625 0.48307,-0.61978 1.11198,-0.92968 1.88672,-0.92969 0.82031,10e-6 1.44238,0.28256 1.86621,0.84766 0.42382,0.56055 0.63573,1.33301 0.63574,2.31738 l 0,0.95703 -3.73926,0 0,0.29395 c 0,0.65625 0.11849,1.18945 0.35547,1.59961 0.23698,0.4056 0.59473,0.6084 1.07324,0.6084 0.4375,0 0.78613,-0.0615 1.0459,-0.18457 0.26432,-0.12305 0.49218,-0.2985 0.6836,-0.52637 l 0.38964,0.88867 c -0.22331,0.26888 -0.52181,0.4808 -0.8955,0.63574 -0.36915,0.15495 -0.80665,0.23243 -1.3125,0.23243 m -0.10254,-6.60352 c -0.3737,1e-5 -0.66765,0.19141 -0.88184,0.57422 -0.21419,0.38282 -0.33268,0.87956 -0.35547,1.49023 l 2.38574,0 0,-0.28027 c 0,-0.5332 -0.0957,-0.96386 -0.2871,-1.29199 -0.18686,-0.32812 -0.47397,-0.49218 -0.86133,-0.49219"
         id="path5401"
         style="font-size:14px;font-variant:normal;font-stretch:normal;text-align:center;writing-mode:lr-tb;text-anchor:middle;font-family:Roboto Condensed;-inkscape-font-specification:'Roboto Condensed,'" />
      <path
         d="m 245.92285,281.15104 c 0,-1.20768 0.20052,-2.16243 0.60156,-2.86426 0.40104,-0.70637 0.97754,-1.05956 1.7295,-1.05957 0.32356,10e-6 0.60611,0.0707 0.84765,0.21192 0.24609,0.14128 0.46028,0.34636 0.64258,0.61523 l 0.0205,-0.007 0,-3.95118 1.37402,0 0,10.66407 -1.19629,0 -0.0957,-0.78614 -0.0205,-0.007 c -0.18685,0.30534 -0.41016,0.53776 -0.66992,0.69726 -0.25977,0.15495 -0.56511,0.23243 -0.91602,0.23243 -0.74739,0 -1.32161,-0.32129 -1.72265,-0.96387 -0.39649,-0.64714 -0.59473,-1.52669 -0.59473,-2.63867 l 0,-0.14356 m 1.36719,0.14356 c 0,0.79297 0.10026,1.41276 0.30078,1.85937 0.20508,0.44662 0.53548,0.66992 0.99121,0.66992 0.27799,0 0.51269,-0.0752 0.7041,-0.22558 0.1914,-0.15495 0.35091,-0.37598 0.47852,-0.66309 l 0,-3.67773 c -0.12761,-0.30078 -0.28712,-0.5332 -0.47852,-0.69727 -0.19141,-0.16861 -0.42155,-0.25292 -0.69043,-0.25293 -0.45573,1e-5 -0.78841,0.25749 -0.99804,0.77246 -0.20508,0.51498 -0.30762,1.20541 -0.30762,2.07129 l 0,0.14356"
         id="path5403"
         style="font-size:14px;font-variant:normal;font-stretch:normal;text-align:center;writing-mode:lr-tb;text-anchor:middle;font-family:Roboto Condensed;-inkscape-font-specification:'Roboto Condensed,'" />
      <path
         d="m 256.40234,283.81706 -0.0137,0 c -0.18685,0.35091 -0.42155,0.61979 -0.7041,0.80664 -0.28256,0.18229 -0.61068,0.27344 -0.98437,0.27344 -0.64714,0 -1.14617,-0.25066 -1.49708,-0.75196 -0.35091,-0.50586 -0.52636,-1.31022 -0.52636,-2.41308 l 0,-4.36817 1.36719,0 0,4.38184 c -1e-5,0.77474 0.0798,1.31478 0.23925,1.62012 0.15951,0.30534 0.41016,0.458 0.75196,0.458 0.319,0 0.58333,-0.0752 0.79296,-0.22558 0.20964,-0.15495 0.37826,-0.37826 0.50586,-0.66992 l 0,-5.56446 1.36719,0 0,7.39649 -1.20996,0 -0.0889,-0.94336"
         id="path5405"
         style="font-size:14px;font-variant:normal;font-stretch:normal;text-align:center;writing-mode:lr-tb;text-anchor:middle;font-family:Roboto Condensed;-inkscape-font-specification:'Roboto Condensed,'" />
      <path
         d="m 261.68652,283.85124 c 0.32812,0 0.6084,-0.13216 0.84082,-0.39649 0.23242,-0.26432 0.33952,-0.62662 0.32129,-1.08691 l 1.28516,0 c 0.0182,0.72917 -0.2142,1.33301 -0.69727,1.81152 -0.48307,0.47852 -1.05957,0.71778 -1.72949,0.71778 -0.89779,0 -1.57454,-0.30534 -2.03027,-0.91602 -0.45573,-0.61523 -0.6836,-1.41504 -0.6836,-2.39941 l 0,-1.01856 c 0,-0.98437 0.22787,-1.78645 0.6836,-2.40625 0.46028,-0.61978 1.13476,-0.92968 2.02344,-0.92969 0.74283,10e-6 1.33756,0.24838 1.78417,0.74512 0.44661,0.49219 0.66309,1.15984 0.64942,2.00293 l -1.28516,0 c 0.0137,-0.51041 -0.0866,-0.91829 -0.30078,-1.22363 -0.20964,-0.30533 -0.49675,-0.458 -0.86133,-0.45801 -0.5013,1e-5 -0.84766,0.20964 -1.03906,0.62891 -0.18685,0.41472 -0.28027,0.96159 -0.28027,1.64062 l 0,1.01856 c 0,0.69271 0.0934,1.24414 0.28027,1.65429 0.18685,0.41016 0.5332,0.61524 1.03906,0.61524"
         id="path5407"
         style="font-size:14px;font-variant:normal;font-stretch:normal;text-align:center;writing-mode:lr-tb;text-anchor:middle;font-family:Roboto Condensed;-inkscape-font-specification:'Roboto Condensed,'" />
      <path
         d="m 267.8252,284.89714 c -0.83399,0 -1.4948,-0.29851 -1.98243,-0.89551 -0.48763,-0.60156 -0.73144,-1.3877 -0.73144,-2.3584 l 0,-1.08008 c 0,-0.98437 0.24153,-1.78645 0.72461,-2.40625 0.48307,-0.61978 1.11197,-0.92968 1.88672,-0.92969 0.8203,10e-6 1.44237,0.28256 1.86621,0.84766 0.42382,0.56055 0.63573,1.33301 0.63574,2.31738 l 0,0.95703 -3.73926,0 0,0.29395 c 0,0.65625 0.11849,1.18945 0.35547,1.59961 0.23698,0.4056 0.59472,0.6084 1.07324,0.6084 0.4375,0 0.78613,-0.0615 1.0459,-0.18457 0.26432,-0.12305 0.49218,-0.2985 0.68359,-0.52637 l 0.38965,0.88867 c -0.22331,0.26888 -0.52181,0.4808 -0.8955,0.63574 -0.36915,0.15495 -0.80665,0.23243 -1.3125,0.23243 m -0.10254,-6.60352 c -0.3737,1e-5 -0.66765,0.19141 -0.88184,0.57422 -0.21419,0.38282 -0.33268,0.87956 -0.35547,1.49023 l 2.38574,0 0,-0.28027 c 0,-0.5332 -0.0957,-0.96386 -0.28711,-1.29199 -0.18685,-0.32812 -0.47396,-0.49218 -0.86132,-0.49219"
         id="path5409"
         style="font-size:14px;font-variant:normal;font-stretch:normal;text-align:center;writing-mode:lr-tb;text-anchor:middle;font-family:Roboto Condensed;-inkscape-font-specification:'Roboto Condensed,'" />
      <path
         d="m 276.13086,282.27897 0.041,0.35547 0.0205,0 0.0478,-0.34863 1.17579,-4.92188 0.97753,0 1.17579,4.91504 0.0615,0.47168 0.0205,0 0.0684,-0.49902 0.85449,-4.8877 1.3125,0 -1.59961,7.39649 -1.13477,0 -1.1416,-4.77832 -0.0957,-0.54004 -0.0273,0 -0.0957,0.54004 -1.12793,4.77832 -1.13476,0 -1.60645,-7.39649 1.30567,0 0.90234,4.91504"
         id="path5411"
         style="font-size:14px;font-variant:normal;font-stretch:normal;text-align:center;writing-mode:lr-tb;text-anchor:middle;font-family:Roboto Condensed;-inkscape-font-specification:'Roboto Condensed,'" />
      <path
         d="m 284.42969,284.76042 -1.36719,0 0,-7.39649 1.36719,0 0,7.39649 m 0,-9.33789 -1.36719,0 0,-1.32618 1.36719,0 0,1.32618"
         id="path5413"
         style="font-size:14px;font-variant:normal;font-stretch:normal;text-align:center;writing-mode:lr-tb;text-anchor:middle;font-family:Roboto Condensed;-inkscape-font-specification:'Roboto Condensed,'" />
      <path
         d="m 287.69727,275.52507 0,1.83886 1.0664,0 0,0.99121 -1.0664,0 0,4.40235 c -10e-6,0.39193 0.0456,0.66536 0.13671,0.82031 0.0912,0.15495 0.21419,0.23242 0.36914,0.23242 0.0911,0 0.17546,-0.007 0.25293,-0.0205 0.0775,-0.0137 0.15495,-0.0319 0.23243,-0.0547 l 0.14355,0.95019 c -0.12305,0.0638 -0.27116,0.11393 -0.44433,0.15039 -0.16863,0.041 -0.34408,0.0615 -0.52637,0.0615 -0.49675,0 -0.87728,-0.16635 -1.1416,-0.49903 -0.26433,-0.33724 -0.39649,-0.88411 -0.39649,-1.64062 l 0,-4.40235 -0.81347,0 0,-0.99121 0.81347,0 0,-1.83886 1.37403,0"
         id="path5415"
         style="font-size:14px;font-variant:normal;font-stretch:normal;text-align:center;writing-mode:lr-tb;text-anchor:middle;font-family:Roboto Condensed;-inkscape-font-specification:'Roboto Condensed,'" />
      <path
         d="m 291.27246,278.23893 0.0205,0.007 c 0.1914,-0.31901 0.42382,-0.56738 0.69726,-0.74512 0.278,-0.18228 0.59017,-0.27343 0.93653,-0.27344 0.64257,10e-6 1.13704,0.24155 1.4834,0.72461 0.34634,0.47852 0.51952,1.23959 0.51953,2.28321 l 0,4.52539 -1.36719,0 0,-4.53907 c 0,-0.69726 -0.0912,-1.18944 -0.27344,-1.47656 -0.17774,-0.29166 -0.45573,-0.43749 -0.83398,-0.4375 -0.25521,10e-6 -0.48308,0.0775 -0.6836,0.23242 -0.19596,0.1504 -0.3623,0.36231 -0.49902,0.63575 l 0,5.58496 -1.37402,0 0,-10.66407 1.37402,0 0,4.14258"
         id="path5417"
         style="font-size:14px;font-variant:normal;font-stretch:normal;text-align:center;writing-mode:lr-tb;text-anchor:middle;font-family:Roboto Condensed;-inkscape-font-specification:'Roboto Condensed,'" />
      <path
         d="m 207.77148,292.30729 2.17383,8.14844 0.0205,0 2.17383,-8.14844 1.77051,0 0,9.95313 -1.36036,0 0,-3.82129 0.12989,-3.79395 -0.0205,-0.007 -2.24902,7.62207 -0.90918,0 -2.24219,-7.62207 -0.0205,0.007 0.12988,3.79395 0,3.82129 -1.36035,0 0,-9.95313 1.76367,0"
         id="path5419"
         style="font-size:14px;font-variant:normal;font-stretch:normal;text-align:center;writing-mode:lr-tb;text-anchor:middle;font-family:Roboto Condensed;-inkscape-font-specification:'Roboto Condensed,'" />
      <path
         d="m 215.33887,298.09733 c 0,-1.0026 0.23925,-1.8138 0.71777,-2.43359 0.47851,-0.62434 1.15071,-0.93652 2.0166,-0.93653 0.87044,10e-6 1.54492,0.31219 2.02344,0.93653 0.47851,0.61979 0.71777,1.43099 0.71777,2.43359 l 0,0.94336 c 0,1.01172 -0.23926,1.8252 -0.71777,2.44043 -0.47396,0.61068 -1.14388,0.91602 -2.00977,0.91602 -0.875,0 -1.55176,-0.30762 -2.03027,-0.92286 -0.47852,-0.61523 -0.71777,-1.42643 -0.71777,-2.43359 l 0,-0.94336 m 1.37402,0.94336 c 0,0.69271 0.10937,1.25098 0.32813,1.6748 0.21874,0.42383 0.56738,0.63575 1.04589,0.63575 0.46484,0 0.80664,-0.21192 1.02539,-0.63575 0.22331,-0.42838 0.33496,-0.98665 0.33497,-1.6748 l 0,-0.94336 c -1e-5,-0.68359 -0.11166,-1.2373 -0.33497,-1.66113 -0.22331,-0.42838 -0.56966,-0.64257 -1.03906,-0.64258 -0.47396,1e-5 -0.82031,0.2142 -1.03906,0.64258 -0.2142,0.42383 -0.32129,0.97754 -0.32129,1.66113 l 0,0.94336"
         id="path5421"
         style="font-size:14px;font-variant:normal;font-stretch:normal;text-align:center;writing-mode:lr-tb;text-anchor:middle;font-family:Roboto Condensed;-inkscape-font-specification:'Roboto Condensed,'" />
      <path
         d="m 225.16895,296.03288 -0.63575,-0.0342 c -0.25977,0 -0.47396,0.082 -0.64258,0.24609 -0.16862,0.15951 -0.30078,0.39193 -0.39648,0.69727 l 0,5.31836 -1.37402,0 0,-7.39649 1.25781,0 0.0889,1.03223 0.0205,0 c 0.14584,-0.36914 0.33041,-0.65624 0.55372,-0.86133 0.22786,-0.20507 0.49674,-0.30761 0.80664,-0.30762 0.0866,10e-6 0.17317,0.009 0.25976,0.0274 0.0911,0.0137 0.16634,0.0319 0.22559,0.0547 l -0.16406,1.22364"
         id="path5423"
         style="font-size:14px;font-variant:normal;font-stretch:normal;text-align:center;writing-mode:lr-tb;text-anchor:middle;font-family:Roboto Condensed;-inkscape-font-specification:'Roboto Condensed,'" />
      <path
         d="m 231.5332,299.17741 c 0,0.99349 -0.20052,1.77962 -0.60156,2.3584 -0.39649,0.57422 -0.96615,0.86133 -1.70898,0.86133 -0.3418,0 -0.63803,-0.0661 -0.88868,-0.19825 -0.25065,-0.13672 -0.46484,-0.33496 -0.64257,-0.59472 l -0.0205,0.007 0,3.49317 -1.36719,0 0,-10.24024 1.23047,0 0.0752,0.78614 0.0137,0.007 c 0.18229,-0.30077 0.40331,-0.53092 0.66308,-0.69043 0.25977,-0.1595 0.56966,-0.23925 0.92969,-0.23926 0.74739,10e-6 1.31933,0.31902 1.71582,0.95703 0.40104,0.63347 0.60156,1.4948 0.60156,2.58399 l 0,0.90918 m -1.36718,-0.90918 c -10e-6,-0.74283 -0.10938,-1.33756 -0.32813,-1.78418 -0.2142,-0.45117 -0.54916,-0.67675 -1.00488,-0.67676 -0.28256,10e-6 -0.51726,0.082 -0.7041,0.2461 -0.18686,0.16406 -0.33952,0.39421 -0.45801,0.69043 l 0,3.75292 c 0.11393,0.278 0.26432,0.48991 0.45117,0.63575 0.1914,0.14583 0.43294,0.21875 0.72461,0.21875 0.45573,0 0.78841,-0.19597 0.99805,-0.58789 0.21418,-0.39193 0.32128,-0.92057 0.32129,-1.58594 l 0,-0.90918"
         id="path5425"
         style="font-size:14px;font-variant:normal;font-stretch:normal;text-align:center;writing-mode:lr-tb;text-anchor:middle;font-family:Roboto Condensed;-inkscape-font-specification:'Roboto Condensed,'" />
      <path
         d="m 234.19238,295.73893 0.0205,0.007 c 0.1914,-0.31901 0.42383,-0.56738 0.69727,-0.74512 0.27799,-0.18228 0.59016,-0.27343 0.93652,-0.27344 0.64257,10e-6 1.13704,0.24155 1.4834,0.72461 0.34635,0.47852 0.51952,1.23959 0.51953,2.28321 l 0,4.52539 -1.36719,0 0,-4.53907 c 0,-0.69726 -0.0911,-1.18944 -0.27344,-1.47656 -0.17773,-0.29166 -0.45573,-0.43749 -0.83398,-0.4375 -0.25521,10e-6 -0.48308,0.0775 -0.68359,0.23242 -0.19597,0.1504 -0.36231,0.36231 -0.49903,0.63575 l 0,5.58496 -1.37402,0 0,-10.66407 1.37402,0 0,4.14258"
         id="path5427"
         style="font-size:14px;font-variant:normal;font-stretch:normal;text-align:center;writing-mode:lr-tb;text-anchor:middle;font-family:Roboto Condensed;-inkscape-font-specification:'Roboto Condensed,'" />
      <path
         d="m 240.83008,302.26042 -1.36719,0 0,-10.66407 1.36719,0 0,10.66407"
         id="path5429"
         style="font-size:14px;font-variant:normal;font-stretch:normal;text-align:center;writing-mode:lr-tb;text-anchor:middle;font-family:Roboto Condensed;-inkscape-font-specification:'Roboto Condensed,'" />
      <path
         d="m 243.91992,302.26042 -1.36719,0 0,-7.39649 1.36719,0 0,7.39649 m 0,-9.33789 -1.36719,0 0,-1.32618 1.36719,0 0,1.32618"
         id="path5431"
         style="font-size:14px;font-variant:normal;font-stretch:normal;text-align:center;writing-mode:lr-tb;text-anchor:middle;font-family:Roboto Condensed;-inkscape-font-specification:'Roboto Condensed,'" />
      <path
         d="m 246.79785,294.86393 0.0752,0.99805 0.0205,0 c 0.18685,-0.36002 0.42383,-0.63801 0.71094,-0.83399 0.29167,-0.20051 0.62435,-0.30077 0.99805,-0.30078 0.6289,10e-6 1.11197,0.23243 1.44922,0.69727 0.34179,0.46029 0.51269,1.19857 0.51269,2.21484 l 0,4.6211 -1.37402,0 0,-4.60743 c 0,-0.68814 -0.0889,-1.16666 -0.2666,-1.43554 -0.17318,-0.27343 -0.45118,-0.41015 -0.83399,-0.41016 -0.25976,10e-6 -0.48763,0.082 -0.68359,0.2461 -0.19597,0.16406 -0.36003,0.39193 -0.49219,0.68359 l 0,5.52344 -1.37402,0 0,-7.39649 1.25781,0"
         id="path5433"
         style="font-size:14px;font-variant:normal;font-stretch:normal;text-align:center;writing-mode:lr-tb;text-anchor:middle;font-family:Roboto Condensed;-inkscape-font-specification:'Roboto Condensed,'" />
      <path
         d="m 254.60449,302.39714 c -0.83398,0 -1.49479,-0.29851 -1.98242,-0.89551 -0.48763,-0.60156 -0.73145,-1.3877 -0.73145,-2.3584 l 0,-1.08008 c 0,-0.98437 0.24154,-1.78645 0.72461,-2.40625 0.48308,-0.61978 1.11198,-0.92968 1.88672,-0.92969 0.82031,10e-6 1.44238,0.28256 1.86621,0.84766 0.42383,0.56055 0.63574,1.33301 0.63575,2.31738 l 0,0.95703 -3.73926,0 0,0.29395 c 0,0.65625 0.11849,1.18945 0.35547,1.59961 0.23697,0.4056 0.59472,0.6084 1.07324,0.6084 0.4375,0 0.78613,-0.0615 1.0459,-0.18457 0.26432,-0.12305 0.49218,-0.2985 0.68359,-0.52637 l 0.38965,0.88867 c -0.22331,0.26888 -0.52181,0.4808 -0.89551,0.63574 -0.36914,0.15495 -0.80664,0.23243 -1.3125,0.23243 m -0.10254,-6.60352 c -0.3737,1e-5 -0.66764,0.19141 -0.88183,0.57422 -0.2142,0.38282 -0.33269,0.87956 -0.35547,1.49023 l 2.38574,0 0,-0.28027 c 0,-0.5332 -0.0957,-0.96386 -0.28711,-1.29199 -0.18685,-0.32812 -0.47396,-0.49218 -0.86133,-0.49219"
         id="path5435"
         style="font-size:14px;font-variant:normal;font-stretch:normal;text-align:center;writing-mode:lr-tb;text-anchor:middle;font-family:Roboto Condensed;-inkscape-font-specification:'Roboto Condensed,'" />
      <path
         d="m 263.08789,292.30729 2.17383,8.14844 0.0205,0 2.17382,-8.14844 1.77051,0 0,9.95313 -1.36035,0 0,-3.82129 0.12988,-3.79395 -0.0205,-0.007 -2.24903,7.62207 -0.90918,0 -2.24218,-7.62207 -0.0205,0.007 0.12988,3.79395 0,3.82129 -1.36035,0 0,-9.95313 1.76367,0"
         id="path5437"
         style="font-size:14px;font-variant:normal;font-stretch:normal;text-align:center;writing-mode:lr-tb;text-anchor:middle;font-family:Roboto Condensed;-inkscape-font-specification:'Roboto Condensed,'" />
      <path
         d="m 274.46973,302.26042 c -0.0456,-0.16862 -0.0843,-0.32813 -0.11621,-0.47852 -0.0319,-0.15495 -0.0547,-0.30534 -0.0684,-0.45117 l -0.0137,-0.007 c -0.19141,0.31446 -0.42838,0.57194 -0.71093,0.77246 -0.28256,0.20052 -0.59929,0.30079 -0.9502,0.30079 -0.61068,0 -1.08236,-0.19141 -1.41504,-0.57422 -0.32812,-0.38737 -0.49219,-0.9183 -0.49219,-1.59278 0,-0.72005 0.22331,-1.27831 0.66993,-1.6748 0.45117,-0.39648 1.0983,-0.59472 1.9414,-0.59473 l 0.9502,0 0,-0.75879 c -10e-6,-0.46028 -0.0912,-0.81347 -0.27344,-1.05957 -0.17774,-0.25064 -0.4375,-0.37597 -0.7793,-0.37597 -0.31445,0 -0.56055,0.11166 -0.73828,0.33496 -0.17773,0.21875 -0.2666,0.50586 -0.2666,0.86133 l -1.37402,-0.007 c 0,-0.60611 0.22558,-1.12792 0.67676,-1.56543 0.45117,-0.44205 1.04817,-0.66308 1.79101,-0.66309 0.70638,10e-6 1.27148,0.21192 1.69531,0.63575 0.42838,0.41927 0.64258,1.03679 0.64258,1.85253 l 0,3.43165 c 0,0.28255 0.016,0.55599 0.0478,0.82031 0.0365,0.25976 0.0911,0.52409 0.16407,0.79297 l -1.38086,0 m -1.54493,-0.92969 c 0.30078,0 0.56966,-0.0889 0.80665,-0.2666 0.23697,-0.18229 0.4147,-0.41471 0.5332,-0.69727 l 0,-1.54492 -0.9707,0 c -0.39649,0 -0.69955,0.13444 -0.90918,0.40332 -0.20964,0.26888 -0.31446,0.60157 -0.31446,0.99805 0,0.33724 0.0729,0.60612 0.21875,0.80664 0.14583,0.20052 0.35775,0.30078 0.63574,0.30078"
         id="path5439"
         style="font-size:14px;font-variant:normal;font-stretch:normal;text-align:center;writing-mode:lr-tb;text-anchor:middle;font-family:Roboto Condensed;-inkscape-font-specification:'Roboto Condensed,'" />
      <path
         d="m 282.39258,299.17741 c -1e-5,0.99349 -0.20053,1.77962 -0.60156,2.3584 -0.39649,0.57422 -0.96615,0.86133 -1.70899,0.86133 -0.3418,0 -0.63802,-0.0661 -0.88867,-0.19825 -0.25065,-0.13672 -0.46485,-0.33496 -0.64258,-0.59472 l -0.0205,0.007 0,3.49317 -1.36718,0 0,-10.24024 1.23046,0 0.0752,0.78614 0.0137,0.007 c 0.18229,-0.30077 0.40332,-0.53092 0.66309,-0.69043 0.25976,-0.1595 0.56966,-0.23925 0.92969,-0.23926 0.74739,10e-6 1.31933,0.31902 1.71582,0.95703 0.40103,0.63347 0.60155,1.4948 0.60156,2.58399 l 0,0.90918 m -1.36719,-0.90918 c 0,-0.74283 -0.10938,-1.33756 -0.32812,-1.78418 -0.2142,-0.45117 -0.54916,-0.67675 -1.00489,-0.67676 -0.28255,10e-6 -0.51725,0.082 -0.7041,0.2461 -0.18685,0.16406 -0.33952,0.39421 -0.45801,0.69043 l 0,3.75292 c 0.11393,0.278 0.26432,0.48991 0.45118,0.63575 0.1914,0.14583 0.43293,0.21875 0.7246,0.21875 0.45573,0 0.78841,-0.19597 0.99805,-0.58789 0.21419,-0.39193 0.32129,-0.92057 0.32129,-1.58594 l 0,-0.90918"
         id="path5441"
         style="font-size:14px;font-variant:normal;font-stretch:normal;text-align:center;writing-mode:lr-tb;text-anchor:middle;font-family:Roboto Condensed;-inkscape-font-specification:'Roboto Condensed,'" />
      <path
         d="m 288.92773,299.17741 c 0,0.99349 -0.20052,1.77962 -0.60156,2.3584 -0.39649,0.57422 -0.96615,0.86133 -1.70898,0.86133 -0.3418,0 -0.63803,-0.0661 -0.88867,-0.19825 -0.25066,-0.13672 -0.46485,-0.33496 -0.64258,-0.59472 l -0.0205,0.007 0,3.49317 -1.36719,0 0,-10.24024 1.23047,0 0.0752,0.78614 0.0137,0.007 c 0.18229,-0.30077 0.40332,-0.53092 0.66308,-0.69043 0.25977,-0.1595 0.56966,-0.23925 0.92969,-0.23926 0.74739,10e-6 1.31933,0.31902 1.71582,0.95703 0.40104,0.63347 0.60156,1.4948 0.60156,2.58399 l 0,0.90918 m -1.36718,-0.90918 c -10e-6,-0.74283 -0.10938,-1.33756 -0.32813,-1.78418 -0.21419,-0.45117 -0.54916,-0.67675 -1.00488,-0.67676 -0.28256,10e-6 -0.51726,0.082 -0.7041,0.2461 -0.18685,0.16406 -0.33952,0.39421 -0.45801,0.69043 l 0,3.75292 c 0.11393,0.278 0.26432,0.48991 0.45117,0.63575 0.19141,0.14583 0.43294,0.21875 0.72461,0.21875 0.45573,0 0.78841,-0.19597 0.99805,-0.58789 0.21419,-0.39193 0.32128,-0.92057 0.32129,-1.58594 l 0,-0.90918"
         id="path5443"
         style="font-size:14px;font-variant:normal;font-stretch:normal;text-align:center;writing-mode:lr-tb;text-anchor:middle;font-family:Roboto Condensed;-inkscape-font-specification:'Roboto Condensed,'" />
      <path
         d="m 292.72168,302.39714 c -0.83399,0 -1.49479,-0.29851 -1.98242,-0.89551 -0.48763,-0.60156 -0.73145,-1.3877 -0.73145,-2.3584 l 0,-1.08008 c 0,-0.98437 0.24154,-1.78645 0.72461,-2.40625 0.48307,-0.61978 1.11198,-0.92968 1.88672,-0.92969 0.82031,10e-6 1.44238,0.28256 1.86621,0.84766 0.42382,0.56055 0.63574,1.33301 0.63574,2.31738 l 0,0.95703 -3.73925,0 0,0.29395 c -1e-5,0.65625 0.11848,1.18945 0.35546,1.59961 0.23698,0.4056 0.59473,0.6084 1.07325,0.6084 0.43749,0 0.78613,-0.0615 1.0459,-0.18457 0.26431,-0.12305 0.49218,-0.2985 0.68359,-0.52637 l 0.38965,0.88867 c -0.22332,0.26888 -0.52182,0.4808 -0.89551,0.63574 -0.36915,0.15495 -0.80664,0.23243 -1.3125,0.23243 m -0.10254,-6.60352 c -0.3737,1e-5 -0.66765,0.19141 -0.88184,0.57422 -0.21419,0.38282 -0.33268,0.87956 -0.35546,1.49023 l 2.38574,0 0,-0.28027 c -1e-5,-0.5332 -0.0957,-0.96386 -0.28711,-1.29199 -0.18685,-0.32812 -0.47396,-0.49218 -0.86133,-0.49219"
         id="path5445"
         style="font-size:14px;font-variant:normal;font-stretch:normal;text-align:center;writing-mode:lr-tb;text-anchor:middle;font-family:Roboto Condensed;-inkscape-font-specification:'Roboto Condensed,'" />
      <path
         d="m 299.40723,296.03288 -0.63575,-0.0342 c -0.25976,0 -0.47396,0.082 -0.64257,0.24609 -0.16863,0.15951 -0.30079,0.39193 -0.39649,0.69727 l 0,5.31836 -1.37402,0 0,-7.39649 1.25781,0 0.0889,1.03223 0.0205,0 c 0.14583,-0.36914 0.3304,-0.65624 0.55371,-0.86133 0.22786,-0.20507 0.49674,-0.30761 0.80664,-0.30762 0.0866,10e-6 0.17317,0.009 0.25976,0.0274 0.0911,0.0137 0.16634,0.0319 0.22559,0.0547 l -0.16406,1.22364"
         id="path5447"
         style="font-size:14px;font-variant:normal;font-stretch:normal;text-align:center;writing-mode:lr-tb;text-anchor:middle;font-family:Roboto Condensed;-inkscape-font-specification:'Roboto Condensed,'" />
    </g>
    <g
       transform="matrix(0.88,0,0,0.88,183.90132,10.4095)"
       id="flowRoot4876"
       style="font-size:40px;font-style:normal;font-weight:normal;line-height:125%;letter-spacing:0px;word-spacing:0px;fill:#000000;fill-opacity:1;stroke:none;font-family:Sans">
      <path
         d="m 31.46875,37.072917 -1.374023,0 0,-4.388672 -3.53418,0 0,4.388672 -1.374024,0 0,-9.953125 1.374024,0 0,4.504882 3.53418,0 0,-4.504882 1.374023,0 0,9.953125"
         id="path5384"
         style="font-size:14px;font-variant:normal;font-stretch:normal;text-align:start;writing-mode:lr-tb;text-anchor:start;font-family:Roboto Condensed;-inkscape-font-specification:'Roboto Condensed,'" />
      <path
         d="m 33.362305,37.072917 0,-9.953125 2.37207,0 c 1.184891,10e-6 2.084956,0.337249 2.700195,1.011718 0.615228,0.674488 0.922845,1.702156 0.922852,3.083008 l 0,1.777344 c -7e-6,1.389977 -0.309903,2.417645 -0.929688,3.083008 -0.619797,0.665365 -1.53809,0.998047 -2.754882,0.998047 l -2.310547,0 m 1.374023,-8.886719 0,7.833984 0.888672,0 c 0.865881,1e-6 1.476558,-0.239256 1.832031,-0.717773 0.355464,-0.483071 0.533198,-1.253252 0.533203,-2.310547 l 0,-1.791016 c -5e-6,-1.061842 -0.175461,-1.829745 -0.526367,-2.303711 -0.350916,-0.473949 -0.941085,-0.710928 -1.770508,-0.710937 l -0.957031,0"
         id="path5386"
         style="font-size:14px;font-variant:normal;font-stretch:normal;text-align:start;writing-mode:lr-tb;text-anchor:start;font-family:Roboto Condensed;-inkscape-font-specification:'Roboto Condensed,'" />
      <path
         d="m 45.913086,32.650065 -3.46582,0 0,4.422852 -1.374024,0 0,-9.953125 5.393555,0 0,1.066406 -4.019531,0 0,3.404297 3.46582,0 0,1.05957"
         id="path5388"
         style="font-size:14px;font-variant:normal;font-stretch:normal;text-align:start;writing-mode:lr-tb;text-anchor:start;font-family:Roboto Condensed;-inkscape-font-specification:'Roboto Condensed,'" />
      <path
         d="m 52.044922,34.570964 c -5e-6,-0.478513 -0.120773,-0.863604 -0.362305,-1.155274 -0.236984,-0.29622 -0.667647,-0.560543 -1.291992,-0.792969 -0.920576,-0.291662 -1.617841,-0.66308 -2.091797,-1.114257 -0.473959,-0.455724 -0.710938,-1.070957 -0.710937,-1.845704 -10e-7,-0.802075 0.264321,-1.449209 0.792968,-1.941406 0.528644,-0.496735 1.225909,-0.745107 2.091797,-0.745117 0.893225,10e-6 1.60644,0.287119 2.139649,0.861328 0.533196,0.574228 0.799798,1.292 0.799804,2.15332 l -1.374023,0 c -5e-6,-0.59244 -0.134445,-1.066398 -0.40332,-1.421875 -0.268885,-0.355459 -0.660812,-0.533194 -1.175782,-0.533203 -0.487633,9e-6 -0.859052,0.1504 -1.114257,0.451172 -0.255211,0.296232 -0.382815,0.683602 -0.382813,1.16211 -2e-6,0.432949 0.136717,0.790696 0.410156,1.073242 0.277992,0.282558 0.745114,0.544602 1.401367,0.786133 0.88411,0.287114 1.544917,0.669926 1.982422,1.148437 0.437494,0.473962 0.656244,1.107425 0.65625,1.900391 -6e-6,0.833986 -0.26205,1.485678 -0.786132,1.955078 -0.524094,0.469401 -1.230474,0.704101 -2.119141,0.704101 -0.865888,0 -1.611005,-0.259765 -2.235352,-0.779297 -0.624349,-0.524087 -0.936524,-1.282875 -0.936523,-2.276367 l 1.374023,0 c -2e-6,0.701825 0.161782,1.212242 0.485352,1.53125 0.323565,0.319012 0.761064,0.478517 1.3125,0.478516 0.496741,1e-6 0.877274,-0.141275 1.141601,-0.423828 0.264318,-0.282551 0.39648,-0.674477 0.396485,-1.175781"
         id="path5390"
         style="font-size:14px;font-variant:normal;font-stretch:normal;text-align:start;writing-mode:lr-tb;text-anchor:start;font-family:Roboto Condensed;-inkscape-font-specification:'Roboto Condensed,'" />
    </g>
    <path
       d="m 50.10968,39.413889 20.95977,1e-6"
       id="path4892"
       style="fill:none;stroke:#000000;stroke-width:1;stroke-linecap:butt;stroke-linejoin:miter;stroke-miterlimit:4;stroke-opacity:1;stroke-dasharray:none;marker-end:url(#Arrow2Lend)" />
    <path
       d="m 174.03831,39.41389 20.95978,-1e-6"
       id="path4894"
       style="fill:none;stroke:#000000;stroke-width:1;stroke-linecap:butt;stroke-linejoin:miter;stroke-miterlimit:4;stroke-opacity:1;stroke-dasharray:none;marker-end:url(#Arrow2Lend)" />
  </g>
</svg>
